<svg width="3" height="8" viewBox="0 0 3 8" fill="none" xmlns="http://www.w3.org/2000/svg">
<path d="M0.845975 3.05747C1.15491 3.44852 1.35358 3.98059 1.48952 4.49078C1.61597 4.96531 1.69236 5.48076 1.6483 5.98072C1.63531 6.12821 1.59305 6.54165 1.39538 6.50291C1.20039 6.4647 0.995433 6.21035 0.870331 6.04878C0.603122 5.70369 0.387969 5.26136 0.300786 4.79506C0.234186 4.43885 0.310436 4.12348 0.481579 3.83075C0.64318 3.55434 0.897162 3.25006 1.19445 3.23134C1.41447 3.21748 1.60299 3.39268 1.74947 3.56937C2.04603 3.92706 2.26655 4.39826 2.36117 4.89458C2.45737 5.39921 2.42764 5.95056 2.24548 6.42227C2.19288 6.55849 2.1243 6.72562 1.99069 6.7723C1.84667 6.82263 1.72337 6.71772 1.61599 6.61902C1.39616 6.41697 1.28902 6.24114 1.15417 5.93382C0.941818 5.44992 0.803617 4.94203 0.683917 4.41357C0.556952 3.85303 0.462519 3.35219 0.450666 2.77321C0.444765 2.48499 0.454862 2.2324 0.593989 1.99707C0.680156 1.85131 0.773926 1.80262 0.918105 1.81747C1.09462 1.83566 1.19881 1.92892 1.31857 2.08858C1.49365 2.32199 1.59171 2.57272 1.68624 2.86701C1.80476 3.23594 1.87157 3.54868 1.91294 3.94228C1.95668 4.35853 1.95556 4.80435 1.84362 5.20687C1.77675 5.44729 1.62459 5.63823 1.40053 5.56491C1.08531 5.46176 0.914438 5.04361 0.815063 4.70241C0.668218 4.19822 0.572968 3.60212 0.638016 3.06662C0.676424 2.75043 0.819481 2.32302 1.13356 2.31164C1.5239 2.29749 1.81543 2.84975 1.97945 3.19817C2.22291 3.71535 2.42459 4.3214 2.46281 4.92204C2.47015 5.03737 2.46437 5.32775 2.4422 5.44938C2.43532 5.48711 2.39258 5.67689 2.30918 5.6507C2.2561 5.63404 2.21367 5.58172 2.17569 5.53345C2.00808 5.32044 1.85969 4.99957 1.74947 4.75217C1.4515 4.08329 1.17833 3.34594 1.13356 2.57588C1.1213 2.36507 1.11357 1.91038 1.35135 1.84493C1.62659 1.76917 1.8716 2.14778 1.99584 2.38771C2.19928 2.7806 2.26454 3.21643 2.19911 3.67289C2.14171 4.07339 2.00002 4.57985 1.68952 4.79392C1.38693 5.00254 1.02884 4.82285 0.824898 4.51538C0.564679 4.12305 0.497415 3.55571 0.535442 3.06776C0.5584 2.77318 0.626906 2.43914 0.802885 2.21898C0.987701 1.98777 1.2502 1.99926 1.45112 2.19153C1.72827 2.45674 1.90219 2.91011 2.01504 3.3057C2.02006 3.3233 2.0867 3.57805 2.06282 3.64086C2.03566 3.71228 1.92942 3.61388 1.88015 3.56307C1.10847 2.7673 0.727945 1.52863 0.727945 0.318954C0.727945 0.293016 0.726237 0.265855 0.728881 0.240025C0.734021 0.189814 0.784183 0.316983 0.802416 0.362423C0.944403 0.716272 1.07486 1.08462 1.17243 1.46057C1.19175 1.53499 1.22037 1.61916 1.2277 1.69793C1.234 1.76561 1.20938 1.84923 1.1996 1.91413C1.19765 1.92708 1.16817 2.1766 1.15229 2.17323C1.12315 2.16704 1.12698 2.10779 1.11717 2.07371C1.09649 2.00191 1.04116 1.80469 1.02583 1.74998C0.958333 1.50914 0.891402 1.26809 0.82724 1.02589C0.808473 0.955043 0.76537 0.788966 0.744806 0.706739C0.738679 0.682238 0.717459 0.610897 0.728881 0.632385C0.754128 0.679879 0.769818 0.734026 0.788834 0.785668C0.85437 0.963649 0.928882 1.17701 0.986488 1.35305C1.26468 2.20319 1.51589 3.06991 1.72371 3.94971C1.91871 4.77523 2.08438 5.62091 2.13682 6.48004C2.14653 6.63904 2.14906 6.89223 2.14057 7.06114C2.13845 7.10321 2.12508 7.25006 2.10872 7.30365C2.07831 7.4032 1.97198 7.37847 1.90825 7.35627C1.73825 7.29704 1.59982 7.15604 1.48671 6.99479C1.32691 6.76699 1.19712 6.49838 1.06096 6.24897C1.04038 6.21128 1.11525 6.31101 1.13918 6.34563C1.26418 6.52649 1.3682 6.72804 1.4469 6.94446C1.46932 7.00612 1.59146 7.30482 1.4825 7.3557C1.35748 7.41407 1.18774 7.14216 1.12653 7.05485C0.895747 6.72564 0.763032 6.32279 0.55324 5.97672C0.543427 5.96053 0.518272 5.91108 0.520922 5.93096C0.537086 6.05221 0.602436 6.18478 0.630522 6.30159C0.690498 6.55102 0.748668 6.82723 0.722324 7.08974C0.716451 7.14826 0.689986 7.30817 0.614598 7.30022C0.554191 7.29384 0.504984 7.19401 0.480174 7.14121C0.413431 6.99919 0.376866 6.83825 0.356522 6.67736C0.352091 6.64231 0.326744 6.56683 0.355586 6.57098C0.402782 6.57776 0.462897 6.69273 0.483452 6.72712C0.551124 6.84034 0.608962 6.96232 0.656752 7.08974C0.668755 7.12174 0.695392 7.20223 0.703589 7.24302C0.706526 7.25763 0.710288 7.28742 0.697969 7.28763C0.62584 7.28891 0.539266 7.0879 0.514365 7.03483C0.43654 6.86897 0.371201 6.68018 0.338256 6.49262C0.323848 6.4106 0.322093 6.32903 0.358864 6.25583C0.373077 6.22754 0.396757 6.20544 0.407575 6.17461C0.432662 6.10313 0.373553 6.0494 0.330762 6.01332C0.272515 5.96421 0.300054 6.12417 0.302659 6.15917C0.302913 6.16259 0.316125 6.26483 0.301722 6.25469C0.250403 6.21853 0.210338 6.1131 0.182287 6.0545C0.0983961 5.87927 0.097434 5.72346 0.128892 5.52659C0.154454 5.36661 0.166332 5.20543 0.170577 5.04215C0.173992 4.91078 0.177799 4.77417 0.154652 4.64521C0.137663 4.55055 0.139677 4.45335 0.120929 4.35923C0.103621 4.27234 0.104068 4.18953 0.104068 4.10071C0.104068 4.02186 0.0993298 3.94211 0.0951686 3.86335C0.0914414 3.7928 0.0703448 3.72492 0.0703448 3.65401C0.0703448 3.54954 0.0703448 3.44506 0.0703448 3.34058C0.0703448 2.96824 0.0703448 2.5959 0.0703448 2.22356C0.0703448 1.92991 0.0872064 1.63715 0.0872064 1.34332C0.0872064 1.06707 0.0872064 0.790816 0.0872064 0.514563" stroke="#F5FFCB" stroke-linecap="round"/>
</svg>
