<svg width="2" height="2" viewBox="0 0 2 2" fill="none" xmlns="http://www.w3.org/2000/svg">
<path d="M0.799482 0.653569C0.744444 0.705828 0.688668 0.756173 0.646967 0.824324C0.627361 0.856366 0.604858 0.897763 0.604858 0.938956C0.604858 0.97157 0.627561 1.00136 0.658264 0.998661C0.764133 0.989371 0.884056 0.873406 0.961498 0.806413C1.09196 0.693549 1.21288 0.568298 1.31506 0.420722C1.36512 0.348422 1.43579 0.249634 1.45756 0.156828C1.48134 0.0554326 1.36766 0.0371545 1.30787 0.0454795C1.19949 0.0605667 1.10033 0.134737 1.02081 0.217727C0.912173 0.331095 0.818102 0.475899 0.772009 0.638345C0.723825 0.808159 0.719157 1.00156 0.752238 1.17598C0.758331 1.2081 0.767383 1.24054 0.78305 1.26793C0.81047 1.31586 0.841236 1.29878 0.878051 1.28047C1.06681 1.18654 1.19605 0.963291 1.33585 0.798651C1.35231 0.77927 1.36889 0.759975 1.38643 0.741932C1.40262 0.725283 1.41306 0.714771 1.40389 0.740141C1.32817 0.949694 1.26188 1.16193 1.20311 1.37898C1.19097 1.42379 1.17948 1.46885 1.16896 1.51421C1.16635 1.52544 1.14855 1.57439 1.1628 1.59541C1.18061 1.62167 1.22934 1.60581 1.24984 1.59929C1.29499 1.58491 1.33405 1.55754 1.37539 1.53331C1.38792 1.52598 1.41953 1.50227 1.43317 1.52466C1.45062 1.55332 1.43881 1.60165 1.44908 1.63451C1.44995 1.63729 1.45198 1.64117 1.45088 1.64436C1.44407 1.66416 1.43242 1.60711 1.427 1.58675C1.40765 1.51405 1.39541 1.43384 1.39876 1.35748C1.40196 1.2846 1.42704 1.23394 1.46398 1.17748C1.55079 1.04473 1.65113 0.924815 1.74436 0.798353C1.78847 0.738513 1.8531 0.667063 1.8789 0.592074C1.88264 0.581216 1.8729 0.583715 1.86709 0.583715" stroke="#F5FFCB" stroke-linecap="round"/>
</svg>
