<svg width="3" height="6" viewBox="0 0 3 6" fill="none" xmlns="http://www.w3.org/2000/svg">
<path d="M0.429235 3.3038C0.510922 3.41064 0.612217 3.51571 0.733495 3.55468C1.02755 3.64917 1.31773 3.32081 1.46286 3.06169C1.68193 2.67055 1.64534 2.20669 1.39812 1.84552C1.2732 1.66303 1.09024 1.50025 0.88131 1.48487C0.690286 1.47082 0.531875 1.60085 0.421143 1.76838C0.133502 2.20353 0.0459147 2.8474 0.0893692 3.38157C0.106466 3.59173 0.149648 3.88773 0.307854 4.02698C0.47249 4.17188 0.706555 4.05745 0.858652 3.94983C1.06186 3.80604 1.30605 3.54238 1.45638 3.33892C1.7536 2.93665 2.00028 2.46215 2.11939 1.94713C2.17967 1.68648 2.23448 1.28764 2.0444 1.06464C1.90135 0.896804 1.67969 0.972765 1.53515 1.08032C1.35011 1.21801 1.24025 1.37555 1.11598 1.58836C0.87132 2.00733 0.696772 2.48724 0.560865 2.96636C0.491857 3.20963 0.421217 3.53438 0.388235 3.79302C0.37248 3.91658 0.320546 4.24273 0.416287 4.3594C0.471154 4.42626 0.54517 4.38136 0.599707 4.34811C0.760567 4.25003 0.884627 4.08094 0.991361 3.9147C1.07904 3.77815 1.16251 3.62728 1.22279 3.47126C1.22629 3.4622 1.27367 3.35328 1.21254 3.37405C0.997183 3.44721 0.86926 3.78491 0.802008 4.00063C0.727273 4.24035 0.68779 4.49159 0.661206 4.74388C0.648371 4.86569 0.625438 5.01853 0.642864 5.14279C0.65082 5.19952 0.665186 5.17642 0.68818 5.13715C0.789341 4.96435 0.860984 4.75399 0.935256 4.56575C1.05082 4.27288 1.17693 3.97477 1.25462 3.66507" stroke="#F5FFCB" stroke-linecap="round"/>
</svg>
