<svg width="3" height="12" viewBox="0 0 3 12" fill="none" xmlns="http://www.w3.org/2000/svg">
<path d="M2.04794 0.299377C2.04794 1.94716 2.17604 3.57113 2.26198 5.21419C2.31494 6.22679 2.2919 7.27324 2.26198 8.28655C2.25101 8.65807 2.20764 9.02468 2.29079 9.38724C2.31585 9.4965 2.32433 9.64573 2.28873 9.75334C2.16816 10.1178 1.94024 10.4372 1.81127 10.8038C1.77775 10.899 1.80242 11.0014 1.74952 11.0885C1.68074 11.2018 1.64838 11.3067 1.64045 11.445C1.62844 11.6545 1.50853 11.7608 1.34409 11.7896C1.26999 11.8026 0.987475 11.8536 0.918071 11.7729C0.884491 11.7338 0.743474 11.5983 0.755484 11.5599C0.814527 11.3711 1.05812 11.1594 1.16504 11.0143C1.40389 10.6904 1.63207 10.3637 1.8339 10.007C2.08752 9.55878 2.06747 8.90328 1.86272 8.43969C1.67154 8.00683 1.72347 7.37947 1.75364 6.9059C1.82966 5.71264 1.75158 4.52217 1.75158 3.32866C1.75158 2.73388 1.71454 2.14263 1.71454 1.54842C1.71454 1.43089 1.70038 1.21534 1.63222 1.12729C1.60983 1.09837 1.53143 1.12099 1.5005 1.10814C1.41908 1.07433 1.33402 1.0095 1.25353 0.966969C1.10746 0.889775 1.42946 0.40214 1.40995 0.404661C1.35646 0.41157 1.25991 1.55671 1.24119 1.66806C1.18052 2.02886 1.19591 2.31386 1.19591 2.67064C1.19591 2.88377 1.18274 3.10429 1.19797 3.3167C1.20795 3.456 1.26405 3.55122 1.3091 3.67562C1.39121 3.90234 1.4419 4.14958 1.50667 4.38389C1.6472 4.89221 1.46779 5.51622 1.45522 6.02774C1.44299 6.52539 1.34409 6.98934 1.34409 7.49214C1.34409 7.90377 1.37702 8.31184 1.38319 8.72443C1.38484 8.83484 1.33504 9.47993 1.43464 9.55713C1.46045 9.57713 1.39094 9.61144 1.38113 9.64566" stroke="#F5FFCB" stroke-linecap="round"/>
</svg>
