<svg width="4" height="8" viewBox="0 0 4 8" fill="none" xmlns="http://www.w3.org/2000/svg">
<path d="M1.85668 4.97894C1.53129 5.34992 1.2242 5.83029 1.16724 6.37136C1.13995 6.63054 1.17654 6.95486 1.36846 7.12527C1.67233 7.39509 2.08397 7.1513 2.30336 6.87125C2.4013 6.74623 2.48763 6.60804 2.5623 6.46293C2.72246 6.15173 2.92834 5.59504 3.01114 5.25116C3.18512 4.52863 3.19909 3.67849 2.75651 3.07096C2.66553 2.94607 2.55289 2.83983 2.43067 2.7586C2.15016 2.57217 1.93153 2.54194 1.62741 2.69463C1.2421 2.88807 1.00615 3.22624 0.799321 3.64235C0.521511 4.20125 0.413533 4.66427 0.338614 5.30008C0.309038 5.55109 0.292585 5.80595 0.303009 6.05901C0.313697 6.31845 0.385229 6.75571 0.581375 6.9484C0.667539 7.03304 0.784256 7.07816 0.896425 7.09203C1.24881 7.13562 1.47464 6.97521 1.68405 6.63542C1.81812 6.41787 1.91654 6.16812 1.98399 5.91224C2.10877 5.43892 2.15913 4.68771 2.10268 4.1874C2.07734 3.96282 1.99772 3.59594 1.7736 3.49119C1.65974 3.43797 1.3704 3.52608 1.27621 3.57775C0.6103 3.94301 0.358218 4.94995 0.529586 5.73097C0.585999 5.98808 0.690527 6.26534 0.889951 6.41777C1.14766 6.61475 1.47987 6.51839 1.70131 6.2986C2.01546 5.98681 2.20969 5.51034 2.34544 5.06989C2.55728 4.38254 2.65699 3.6519 2.6702 2.92293C2.68041 2.35945 2.64175 1.75902 2.46682 1.22757C2.36787 0.926965 2.16048 0.530455 1.82917 0.648654C1.53385 0.754012 1.29817 1.09875 1.12624 1.37371C0.837174 1.83601 0.580559 2.39533 0.534981 2.97437C0.516242 3.21243 0.532308 3.51796 0.653125 3.72326C0.805081 3.98147 1.07726 3.90242 1.26542 3.74835C1.4444 3.6018 1.5748 3.38907 1.63118 3.14246C1.66768 2.98283 1.68334 2.75835 1.60259 2.61058C1.53461 2.48619 1.38427 2.42922 1.26542 2.41489C0.998566 2.38272 0.735854 2.53757 0.544691 2.74355C0.211717 3.10234 0.091427 3.78241 0.438956 4.18991C0.575791 4.35035 0.765179 4.39524 0.947135 4.30657C1.35916 4.10578 1.65096 3.56771 1.83294 3.12239C2.07937 2.51937 2.17551 1.88308 2.11562 1.22318C2.11514 1.2178 2.11732 1.01246 2.06599 1.09962C2.01459 1.1869 1.93967 1.39167 1.9144 1.45964C1.81119 1.73732 1.73692 1.95612 1.64952 2.24554C1.53724 2.61738 1.44209 2.99438 1.36576 3.37829C1.34527 3.48136 1.32072 3.58411 1.31182 3.68939C1.30805 3.73387 1.32218 3.73999 1.35282 3.70821C1.52502 3.52957 1.66442 3.26916 1.79302 3.0534C2.06062 2.60442 2.32161 2.14418 2.54936 1.666C2.582 1.59745 2.6789 1.39895 2.62704 1.44898C2.52773 1.54479 2.44696 1.76313 2.40046 1.88427C2.23251 2.32184 2.12124 2.7864 2.0401 3.25536C1.99925 3.49147 1.95991 3.81027 1.94623 4.05819C1.94453 4.08907 1.93882 4.31048 1.9581 4.37305C1.98825 4.47087 2.12236 4.38163 2.15662 4.36051C2.37673 4.22482 2.5471 4.01126 2.70149 3.78849C2.78792 3.66378 2.87293 3.5333 2.94425 3.39585C2.96459 3.35665 2.98994 3.3061 3.00035 3.26038C3.00547 3.23791 2.97476 3.21472 2.96583 3.19765C2.89069 3.05413 2.86422 2.85167 2.82934 2.69275C2.77465 2.44353 2.73407 2.19841 2.75004 1.94072C2.7619 1.74922 2.7961 1.56128 2.82988 1.37371C2.86584 1.1741 2.92695 0.970733 2.94263 0.767198C2.94832 0.693362 2.92906 0.623669 2.92267 0.550809C2.9112 0.420145 2.91564 0.289014 2.90541 0.158173" stroke="#F5FFCB" stroke-linecap="round"/>
</svg>
