<svg width="2" height="7" viewBox="0 0 2 7" fill="none" xmlns="http://www.w3.org/2000/svg">
<path d="M1.0495 0.535339C1.0122 0.80791 0.913171 1.0653 0.878115 1.3412C0.84632 1.59144 0.820609 1.83974 0.77584 2.0876C0.755267 2.20151 0.742852 2.31997 0.739214 2.4363C0.734479 2.5877 0.698528 2.726 0.68393 2.87499C0.655906 3.16099 0.677991 3.45726 0.639012 3.7411C0.612732 3.93247 0.583702 4.12149 0.558159 4.31155C0.529692 4.52338 0.542862 4.73246 0.504948 4.94307C0.49326 5.008 0.475758 5.07101 0.471087 5.13509C0.460475 5.28068 0.457856 5.42718 0.449664 5.57297C0.437926 5.78188 0.387613 5.98301 0.365356 6.19002" stroke="#F5FFCB" stroke-linecap="round"/>
</svg>
