<svg width="6" height="18" viewBox="0 0 6 18" fill="none" xmlns="http://www.w3.org/2000/svg">
<path d="M2.18471 14.0348C2.20846 14.2089 2.49995 15.4778 2.77522 15.0049C3.17793 14.313 3.26932 13.2295 3.26932 12.4741C3.26932 11.5317 3.18523 10.7969 2.77522 9.94639C2.64995 9.68654 2.50365 9.41231 2.26907 9.24441C2.16593 9.17059 1.95018 9.20228 1.89548 9.31672C1.76758 9.58431 1.79351 9.90641 1.81112 10.2025C1.84757 10.8153 2.18744 12.7028 2.41368 13.2755C2.51167 13.5236 2.62941 13.8995 2.89573 13.9142C3.17373 13.9297 3.35396 13.5739 3.49829 13.3358C3.79403 12.8479 3.98134 12.3014 4.19425 11.7721C4.41144 11.2322 4.61397 10.6856 4.78777 10.1302C4.89659 9.7824 4.99259 9.42785 5.04084 9.06666C5.05975 8.92516 5.07048 8.75737 4.98661 8.64185C4.89608 8.51716 4.39785 8.73802 4.37803 8.75031C4.03478 8.96318 3.66762 9.38953 3.45009 9.70236C2.27929 11.386 1.89273 13.3667 1.93766 15.3845C1.9394 15.4625 1.89905 16.4698 2.13952 16.5414C2.57261 16.6704 3.32889 15.0899 3.42297 14.9024C3.86335 14.0248 4.16713 13.0949 4.42021 12.1487C4.46897 11.9664 4.80701 11.0715 4.6311 10.8291C4.52091 10.6773 4.08567 10.7445 3.9713 10.7598C3.05768 10.8826 2.32337 11.4136 1.77497 12.1427C0.816823 13.4166 0.686903 15.0209 1.36222 16.451C1.44051 16.6168 1.60478 16.9672 1.781 17.0897C1.89917 17.172 2.10402 16.6253 2.1124 16.6077C2.22049 16.381 2.72572 15.595 2.59445 15.3242C2.47038 15.0683 1.75803 15.2931 1.59722 15.3453C1.13352 15.496 0.875712 15.7382 0.672286 16.1769C0.641305 16.2437 0.317598 16.9194 0.503569 16.9632C0.58511 16.9824 0.660037 16.9812 0.74158 17.0174C0.753079 17.0225 0.77316 17.048 0.774721 17.0355C0.813841 16.7225 0.848643 16.4085 0.889208 16.0955C1.26542 13.1924 1.41557 10.3099 1.48273 7.38853C1.49788 6.72967 1.66765 6.11346 1.8292 5.47841C1.89817 5.20731 1.96801 4.93781 2.05215 4.67098C2.07909 4.58555 2.08879 4.34625 2.14253 4.41791C2.18919 4.48012 2.18176 4.67144 2.18471 4.72521C2.20351 5.06825 2.21652 5.41222 2.22689 5.75559C2.24951 6.5048 2.18849 7.12584 2.00394 7.84647C1.99347 7.88737 1.81706 8.72722 2.01599 8.48519C2.58215 7.79637 3.05237 6.62856 3.06445 5.7345C3.06532 5.67028 3.06351 5.38443 2.9108 5.47841C2.3855 5.80168 2.20137 6.87388 2.14856 7.40058C2.1403 7.48292 2.14782 9.24583 2.44984 8.59365C2.79476 7.84882 2.93308 6.85506 2.85054 6.03879C2.79742 5.51349 2.60153 5.02461 2.46189 4.52034C2.33235 4.05256 2.33125 3.57125 2.28112 3.09228C2.2645 2.93343 2.20033 2.75567 2.27208 2.6042C2.53234 2.05477 2.60183 1.39272 2.72701 0.802551" stroke="#F5FFCB" stroke-linecap="round"/>
</svg>
