<svg width="2" height="16" viewBox="0 0 2 16" fill="none" xmlns="http://www.w3.org/2000/svg">
<path d="M0.466797 6.57765C0.519942 7.2002 0.656141 7.8111 0.700352 8.43686C0.771434 9.44294 0.675619 10.4228 0.62382 11.4242C0.621083 11.4772 0.609723 11.6763 0.614583 11.7528C0.627356 11.954 0.782854 11.3854 0.84418 11.1933C1.08826 10.4291 1.34702 9.64365 1.44192 8.84327C1.46052 8.68641 1.46886 8.52679 1.4538 8.36956C1.44653 8.29366 1.42875 8.20948 1.37595 8.15448C1.34975 8.1272 1.28485 8.14022 1.26379 8.17163C1.14257 8.35243 1.0625 8.89952 1.04211 9.05043C0.967076 9.60579 0.949465 10.1705 0.945783 10.7302C0.941936 11.3148 0.93461 11.928 1.04079 12.5049C1.13232 13.0023 1.45579 13.4254 1.36671 13.9472C1.31373 14.2575 1.28957 14.5655 1.27434 14.8801C1.2719 14.9306 1.30014 15.5312 1.22684 15.5557C1.20872 15.5617 1.18434 15.5418 1.17538 15.5306C1.09053 15.4245 1.04056 15.2012 1.0078 15.0886C0.722739 14.1079 0.633495 13.1669 0.720145 12.1513C0.79618 11.2601 0.857223 10.3799 0.84286 9.48455C0.829835 8.67267 0.701237 7.86959 0.688476 7.05928C0.672335 6.0343 0.836002 5.01379 1.00252 4.00591C1.04782 3.73175 1.0944 3.43992 1.19781 3.18385C1.23865 3.08272 1.26737 2.97512 1.29546 2.8698C1.34685 2.67708 1.13567 3.23619 1.07642 3.42664C0.903465 3.98255 0.782645 4.55228 0.70431 5.12882C0.685487 5.26736 0.690256 5.35896 0.728062 5.49565C0.794528 5.73595 0.909761 5.94388 1.15295 6.03929C1.2484 6.07674 1.34693 6.05938 1.4406 6.08943C1.48766 6.10452 1.52607 6.13574 1.5686 6.15936C1.59147 6.17207 1.63981 5.93342 1.64117 5.92581C1.72935 5.43306 1.60447 4.91684 1.52241 4.43211C1.44057 3.94865 1.35512 3.46526 1.28886 2.97932C1.22158 2.48594 1.59318 2.0397 1.56728 1.54236C1.54907 1.19271 1.36827 0.848998 1.29546 0.507861C1.26077 0.345357 1.25059 0.187327 1.25059 0.0222778" stroke="#F5FFCB" stroke-linecap="round"/>
</svg>
