<svg width="2" height="3" viewBox="0 0 2 3" fill="none" xmlns="http://www.w3.org/2000/svg">
<path d="M-0.0063267 0.600137C0.0986907 0.63263 0.16495 0.646821 0.264748 0.704669C0.413319 0.790789 0.542796 0.916776 0.653303 1.06427C0.687757 1.11026 0.890951 1.38053 0.7583 1.44457C0.722897 1.46165 0.667138 1.44582 0.636138 1.42878C0.533779 1.3725 0.450521 1.26353 0.38312 1.15764C0.330951 1.07569 0.29371 1.00576 0.262964 0.909379C0.233664 0.817523 0.210954 0.689338 0.253156 0.595781C0.330321 0.424714 0.526974 0.570586 0.608941 0.648592C0.74623 0.779246 0.857162 0.972081 0.922371 1.16853C0.964784 1.29631 0.978678 1.44765 0.871545 1.53249C0.728136 1.64607 0.53897 1.57587 0.421017 1.44593C0.367081 1.38651 0.333877 1.33292 0.298855 1.25564C0.269934 1.19183 0.226413 1.08016 0.254047 1.00302C0.271005 0.955693 0.320153 0.932969 0.358376 0.932246C0.49098 0.929739 0.618943 1.02693 0.717728 1.12334C0.807065 1.21054 0.87091 1.29706 0.941765 1.40564C1.01131 1.5122 1.07551 1.628 1.10829 1.7598C1.13744 1.87699 1.15547 2.05828 1.10004 2.16949C1.03838 2.2932 0.897373 2.19891 0.824285 2.14798C0.784811 2.12048 0.719056 2.06653 0.681168 2.03311C0.666482 2.02015 0.652188 2.00652 0.638144 1.99255C0.62958 1.98402 0.606419 1.96231 0.617412 1.96097C0.630284 1.9594 0.681879 1.98348 0.68206 1.98356C0.741091 2.00963 0.798847 2.03975 0.854157 2.07612C0.908994 2.11217 0.960617 2.15456 1.00887 2.20243" stroke="#F5FFCB" stroke-linecap="round"/>
</svg>
