<svg width="4" height="5" viewBox="0 0 4 5" fill="none" xmlns="http://www.w3.org/2000/svg">
<path d="M0.772659 2.10115C0.772659 2.23177 0.772665 2.36245 0.767732 2.49296C0.762944 2.61964 0.75797 2.71475 0.743965 2.84053C0.73217 2.94647 0.720027 3.08124 0.664258 3.17076C0.607511 3.26185 0.519587 3.24449 0.455571 3.17996C0.299678 3.02281 0.259091 2.80618 0.30833 2.57048C0.340543 2.41628 0.48015 1.90813 0.67875 2.12168C0.718524 2.16445 0.748885 2.21903 0.779616 2.27175C0.866379 2.42061 0.931696 2.57122 0.995839 2.73648C1.08704 2.97146 1.16196 3.21571 1.20742 3.47019C1.22007 3.54097 1.23588 3.6741 1.23757 3.75405C1.23964 3.85217 1.21168 3.78771 1.19525 3.73954C1.0342 3.26721 0.973083 2.69487 1.13351 2.21052C1.25747 1.83628 1.54835 1.50747 1.90189 1.56741C2.2321 1.6234 2.48984 1.9976 2.60476 2.35457C2.65114 2.49863 2.67596 2.61813 2.6578 2.77187C2.63561 2.95977 2.52919 3.12645 2.3981 3.22385C2.25854 3.32755 2.09228 3.35111 1.94247 3.26739C1.77238 3.17233 1.65775 2.96743 1.58306 2.76585C1.52558 2.61072 1.47473 2.38389 1.45785 2.21583C1.43641 2.00234 1.42865 1.71172 1.54799 1.53166C1.65907 1.36407 1.85791 1.3868 2.00333 1.46619C2.25451 1.6033 2.43689 1.87748 2.53491 2.18504C2.6126 2.42883 2.63211 2.6294 2.61809 2.88867C2.61222 2.99734 2.5991 3.10629 2.57491 3.21111C2.54581 3.33718 2.45995 3.55763 2.37028 3.64858C2.20832 3.81283 2.00701 3.70573 1.8645 3.57142C1.63345 3.35366 1.46424 3.0349 1.3564 2.7071C1.32138 2.60063 1.2686 2.37455 1.28452 2.24485C1.30779 2.0554 1.46206 2.00118 1.59552 2.02152C1.76802 2.04781 1.89143 2.12708 2.02797 2.26149C2.2636 2.49343 2.43357 2.82337 2.48505 3.19058C2.50816 3.35538 2.49601 3.6131 2.44042 3.77317C2.41827 3.83693 2.38327 3.89591 2.34042 3.94129C2.24685 4.04038 2.16118 4.03416 2.04942 3.9873C1.85436 3.90551 1.7016 3.70089 1.60161 3.48789C1.5106 3.29401 1.44724 3.05316 1.45901 2.82744C1.46399 2.73196 1.47676 2.64595 1.54567 2.58888C1.6625 2.49213 1.84186 2.61424 1.94073 2.68232C2.15091 2.82706 2.36111 3.02013 2.50534 3.25924C2.59964 3.41557 2.68403 3.64817 2.62476 3.84749C2.59364 3.95216 2.5135 4.02155 2.42419 4.03296C2.25964 4.05398 2.08661 3.93672 1.98218 3.79122C1.84557 3.60087 1.79325 3.33338 1.78363 3.08652C1.77295 2.8122 1.80363 2.49635 1.92769 2.25972C2.10992 1.91213 2.5161 1.86344 2.80562 2.01692C3.03338 2.13765 3.21497 2.3675 3.3427 2.6218C3.43322 2.80202 3.52239 3.04617 3.46009 3.26349C3.42899 3.37195 3.33673 3.48537 3.25314 3.53249C3.06161 3.64043 2.83133 3.5971 2.64766 3.49214C2.37213 3.33469 2.15597 3.04815 1.98768 2.74532C1.82663 2.45551 1.69747 2.1189 1.64596 1.7727C1.58953 1.39351 1.65161 0.890037 1.99696 0.744855C2.21558 0.652947 2.44075 0.74679 2.61346 0.915808C2.8294 1.12714 2.97943 1.43794 3.07228 1.75217C3.11339 1.8913 3.14762 2.094 3.14706 2.24627C3.14671 2.33864 3.13392 2.55286 3.01692 2.54606C2.98206 2.54403 2.94824 2.527 2.91692 2.50818C2.84374 2.46422 2.69196 2.32721 2.63403 2.26963C2.50303 2.1394 2.37458 1.99353 2.2868 1.81517C2.20277 1.64443 2.14417 1.37231 2.30419 1.23258C2.36063 1.18331 2.45856 1.15386 2.52447 1.14622C2.6845 1.12767 2.84734 1.16686 2.99808 1.2294C3.11528 1.27803 3.19578 1.32595 3.30328 1.39787C3.39064 1.45632 3.48872 1.52371 3.56211 1.60847C3.60216 1.65471 3.61846 1.70641 3.60907 1.77305C3.60046 1.83411 3.57152 1.92078 3.52617 1.95604C3.48918 1.9848 3.44381 1.97464 3.40676 1.95321C3.28009 1.87994 3.17481 1.73667 3.09025 1.60528C3.01316 1.4855 2.93564 1.34457 2.90243 1.19507C2.88369 1.11074 2.89374 1.02538 2.91112 0.942708C2.93025 0.851729 2.95673 0.749764 3.00793 0.676899C3.05034 0.616541 3.11121 0.584487 3.16445 0.541694C3.22425 0.493627 3.2983 0.417525 3.32734 0.335701C3.35684 0.252568 3.39368 0.173181 3.42936 0.0939597C3.44441 0.0605611 3.47543 0.0501696 3.5053 0.0553802C3.5686 0.0664223 3.58869 0.152907 3.60327 0.216777C3.61777 0.280264 3.63069 0.343139 3.64849 0.405427C3.65311 0.421597 3.65429 0.430345 3.66993 0.431618C3.72896 0.436424 3.79634 0.436412 3.85283 0.41286C3.87088 0.405331 3.88841 0.395592 3.90703 0.390207C3.9152 0.387844 3.93187 0.388354 3.93833 0.379589C3.94102 0.37594 3.93877 0.369087 3.94007 0.364724C3.94436 0.350314 3.95967 0.335386 3.96818 0.324375C3.9704 0.321508 3.97674 0.313201 3.97572 0.316942C3.96888 0.341992 3.94524 0.354685 3.93253 0.37605C3.86193 0.49476 3.81469 0.637498 3.79978 0.783081C3.7921 0.858173 3.7899 0.93439 3.78819 1.00996C3.78495 1.15345 3.77094 1.29473 3.74877 1.43575C3.73268 1.53812 3.71622 1.6434 3.68675 1.74155C3.66157 1.82541 3.63664 1.90689 3.61602 1.99285C3.56663 2.19875 3.51025 2.40089 3.44965 2.60233C3.43575 2.64854 3.42223 2.69403 3.40212 2.73683C3.3716 2.80178 3.35985 2.86996 3.34473 2.94211" stroke="#F5FFCB" stroke-linecap="round"/>
</svg>
