<svg width="4" height="3" viewBox="0 0 4 3" fill="none" xmlns="http://www.w3.org/2000/svg">
<path d="M1.4529 0.908765C1.27007 0.995118 1.07256 1.15596 1.02052 1.39177C0.997597 1.49563 1.02728 1.62737 1.13914 1.62283C1.17702 1.62129 1.21551 1.60938 1.24903 1.5888C1.35364 1.52455 1.4744 1.37887 1.54431 1.27834C1.68668 1.0736 1.82234 0.825182 1.87707 0.56636C1.90725 0.423582 1.89974 0.264236 1.80928 0.150518C1.73479 0.0568726 1.61572 0.0284988 1.5117 0.0472295C1.33593 0.0788799 1.17351 0.200065 1.04671 0.340378C0.86212 0.544632 0.74123 0.871371 0.799189 1.17087C0.815541 1.25536 0.855302 1.2871 0.928083 1.26281C1.06637 1.21666 1.19551 1.09864 1.30449 0.995336C1.40893 0.896335 1.51887 0.782326 1.5954 0.651438C1.63092 0.590687 1.61619 0.569245 1.5556 0.557105C1.28654 0.50319 1.01718 0.603554 0.810487 0.80667C0.717037 0.898503 0.638046 1.0128 0.585052 1.14101C0.5754 1.16436 0.566315 1.18828 0.560403 1.21326C0.557562 1.22526 0.554709 1.23923 0.559119 1.25057C0.561729 1.25729 0.571733 1.26025 0.577349 1.25684C0.596316 1.24531 0.611979 1.22721 0.626904 1.20938C0.697486 1.12503 0.75412 1.03119 0.808433 0.931751C0.887716 0.786592 0.985467 0.607293 1.00049 0.429935C1.01641 0.241911 0.810041 0.242579 0.701107 0.249628C0.593161 0.256612 0.492055 0.283295 0.391969 0.329034C0.376627 0.336045 0.353495 0.349286 0.344725 0.324258C0.337724 0.304278 0.375749 0.348428 0.388887 0.363663C0.647133 0.663123 0.877403 0.993206 1.13503 1.29326C1.2539 1.43171 1.38181 1.58383 1.53583 1.67C1.68573 1.75386 1.85438 1.74915 2.01392 1.71328C2.07415 1.69974 2.13168 1.67323 2.19185 1.66044C2.21919 1.65463 2.24984 1.65177 2.2658 1.68433C2.292 1.73776 2.2854 1.81779 2.28223 1.87538C2.27843 1.94452 2.26831 2.01268 2.25656 2.08046C2.25467 2.09132 2.25061 2.1196 2.25861 2.1136C2.28062 2.0971 2.30025 2.07355 2.32126 2.05539C2.36546 2.01718 2.41053 1.98165 2.46145 1.95717C2.58923 1.89577 2.69995 1.80081 2.81912 1.72164C2.84167 1.70666 2.90716 1.65884 2.92952 1.68283C2.9389 1.6929 2.95604 1.68966 2.95957 1.70403C2.96296 1.71784 2.97118 1.73294 2.98242 1.73866C3.01223 1.75382 3.0519 1.73093 3.07973 1.72015" stroke="#F5FFCB" stroke-linecap="round"/>
</svg>
