<svg width="3" height="3" viewBox="0 0 3 3" fill="none" xmlns="http://www.w3.org/2000/svg">
<path d="M2.05191 0.421429C1.93095 0.457062 1.85463 0.472624 1.73969 0.536062C1.56856 0.630503 1.41943 0.768662 1.29215 0.93041C1.25247 0.980841 1.01843 1.27723 1.17122 1.34745C1.212 1.36618 1.27622 1.34882 1.31192 1.33013C1.42982 1.26842 1.52572 1.14892 1.60335 1.0328C1.66343 0.942924 1.70633 0.866248 1.74174 0.76055C1.77549 0.65982 1.80164 0.519249 1.75304 0.416653C1.66416 0.229058 1.43766 0.389023 1.34325 0.474566C1.18512 0.617844 1.05735 0.82931 0.982245 1.04474C0.933394 1.18487 0.917392 1.35083 1.04079 1.44387C1.20596 1.56841 1.42384 1.49143 1.5597 1.34894C1.62182 1.28378 1.66006 1.22501 1.7004 1.14027C1.73371 1.07029 1.78384 0.947828 1.75201 0.863242C1.73248 0.811339 1.67587 0.786419 1.63185 0.785626C1.47912 0.782877 1.33173 0.889455 1.21795 0.995189C1.11505 1.09081 1.04152 1.18569 0.959907 1.30476C0.87981 1.42162 0.805861 1.5486 0.768108 1.69313C0.734537 1.82165 0.713762 2.02046 0.777608 2.14241C0.848633 2.27807 1.01104 2.17467 1.09522 2.11883C1.14068 2.08866 1.21642 2.0295 1.26006 1.99285C1.27697 1.97864 1.29344 1.9637 1.30961 1.94837C1.31948 1.93902 1.34615 1.91521 1.33349 1.91374C1.31867 1.91202 1.25924 1.93843 1.25903 1.93852C1.19104 1.9671 1.12452 2.00013 1.06081 2.04002C0.997653 2.07956 0.938193 2.12604 0.882622 2.17853" stroke="#F5FFCB" stroke-linecap="round"/>
</svg>
