<svg width="2" height="4" viewBox="0 0 2 4" fill="none" xmlns="http://www.w3.org/2000/svg">
<path d="M1.13824 1.97842C1.07203 2.32946 1.03766 2.72477 1.11882 3.07605C1.13753 3.15703 1.15787 3.24454 1.20729 3.30561C1.30049 3.42077 1.42898 3.31746 1.49645 3.24414C1.67568 3.04936 1.79707 2.74543 1.87785 2.48208C1.93991 2.27975 1.9872 2.05487 1.92479 1.84294C1.87487 1.67347 1.75572 1.50914 1.61783 1.42898C1.25154 1.21605 0.978571 1.7302 0.846388 2.04867C0.70693 2.38467 0.635792 2.76427 0.679152 3.13689C0.679971 3.14393 0.692943 3.30678 0.736876 3.29683C0.811094 3.28001 0.911362 3.04453 0.933782 2.99953C1.14786 2.56987 1.27414 2.08902 1.35673 1.60398C1.39691 1.36794 1.43135 1.1468 1.51533 0.925957C1.5658 0.793234 1.60881 0.643061 1.69389 0.53332C1.71753 0.502837 1.8037 0.457808 1.80826 0.415404C1.81736 0.330734 1.86008 0.245926 1.88163 0.164518C1.88415 0.155003 1.91716 0.0647898 1.90321 0.050365C1.88381 0.0303199 1.74598 0.134866 1.72087 0.149465" stroke="#F5FFCB" stroke-linecap="round"/>
</svg>
