<svg width="3" height="4" viewBox="0 0 3 4" fill="none" xmlns="http://www.w3.org/2000/svg">
<path d="M0.755128 1.6884C0.880065 1.7464 1.00277 1.82069 1.11569 1.90785C1.29997 2.05008 1.48529 2.22816 1.49829 2.51804C1.5044 2.65441 1.4656 2.87377 1.41365 2.99373C1.368 3.09917 1.2708 3.23276 1.16091 3.2422C1.02519 3.25386 0.876196 3.11743 0.792228 3.01355C0.671478 2.86418 0.531383 2.59118 0.460648 2.40124C0.40644 2.25568 0.35571 2.04782 0.358623 1.88165C0.359907 1.80838 0.392432 1.62835 0.453112 1.57585C0.53036 1.50901 0.631669 1.5949 0.67861 1.65726C0.773077 1.78275 0.85874 2.01779 0.886717 2.17826C0.902413 2.26828 0.933627 2.53588 0.82585 2.61289C0.743763 2.67155 0.58119 2.55268 0.534847 2.49822C0.447076 2.39508 0.393838 2.22275 0.410215 2.0742C0.421295 1.97369 0.447993 1.87131 0.496008 1.78857C0.635281 1.54856 0.795733 1.48235 1.03454 1.49692C1.15107 1.50403 1.423 1.58057 1.50206 1.74645C1.51457 1.77271 1.47853 1.816 1.45365 1.81582C1.38533 1.81533 1.31866 1.78098 1.25714 1.74468C1.13321 1.67156 1.00316 1.55997 0.952222 1.39322C0.914486 1.26968 0.958573 1.17626 1.01599 1.0821C1.11971 0.912007 1.30066 0.801391 1.47568 0.84992C1.68883 0.909021 1.85275 1.15812 1.95334 1.37906C2.05746 1.60774 2.08372 1.84351 2.00146 2.08871C1.94848 2.24661 1.85851 2.38461 1.71103 2.29329C1.62672 2.24108 1.50854 2.10762 1.51742 1.97757C1.52787 1.82435 1.74208 1.86898 1.81248 1.90431C2.04736 2.02216 2.15971 2.34792 2.21536 2.62776C2.2407 2.75516 2.24136 2.89865 2.2826 3.02063C2.28922 3.0402 2.32141 3.06269 2.32028 3.0801C2.31766 3.12045 2.29777 3.16147 2.28608 3.19831C2.26904 3.25204 2.25839 3.30787 2.24232 3.36183C2.23005 3.40303 2.21075 3.4282 2.18638 3.46058C2.16636 3.48717 2.14613 3.52627 2.12435 3.54907C2.0903 3.5847 2.08696 3.68235 2.07797 3.73064C2.06877 3.78012 2.05137 3.8203 2.03856 3.86726" stroke="#F5FFCB" stroke-linecap="round"/>
</svg>
