<svg width="4" height="8" viewBox="0 0 4 8" fill="none" xmlns="http://www.w3.org/2000/svg">
<path d="M2.03131 4.98963C2.31382 5.32792 2.58044 5.76597 2.62989 6.25937C2.65358 6.49571 2.62182 6.79146 2.45519 6.94686C2.19136 7.1929 1.83397 6.97059 1.64349 6.71521C1.55846 6.60121 1.48351 6.4752 1.41867 6.34287C1.27962 6.05908 1.10088 5.55145 1.02898 5.23786C0.877931 4.57899 0.865801 3.80375 1.25006 3.24975C1.32905 3.13586 1.42685 3.03898 1.53296 2.96492C1.7765 2.79491 1.96632 2.76734 2.23037 2.90658C2.56489 3.08298 2.76975 3.39135 2.94932 3.7708C3.19052 4.28045 3.28427 4.70268 3.34932 5.28247C3.375 5.51136 3.38928 5.74377 3.38023 5.97453C3.37095 6.21112 3.30885 6.60986 3.13855 6.78557C3.06374 6.86275 2.9624 6.90389 2.86502 6.91654C2.55907 6.95629 2.363 6.81002 2.18119 6.50016C2.06479 6.30178 1.97933 6.07403 1.92077 5.8407C1.81244 5.40908 1.76872 4.72406 1.81773 4.26783C1.83973 4.06303 1.90886 3.72847 2.10344 3.63296C2.2023 3.58443 2.45351 3.66478 2.53528 3.71189C3.11344 4.04497 3.3323 4.96319 3.18351 5.6754C3.13453 5.90985 3.04378 6.16269 2.87064 6.30169C2.64689 6.48131 2.35846 6.39344 2.1662 6.19302C1.89345 5.9087 1.72482 5.47421 1.60696 5.07256C1.42303 4.44577 1.33646 3.77951 1.325 3.11477C1.31613 2.60093 1.3497 2.0534 1.50157 1.56878C1.58748 1.29466 1.76754 0.93308 2.05519 1.04086C2.3116 1.13694 2.51622 1.45131 2.66549 1.70204C2.91646 2.12361 3.13926 2.63364 3.17883 3.16167C3.1951 3.37876 3.18115 3.65737 3.07625 3.84458C2.94432 4.08004 2.70802 4.00796 2.54465 3.86746C2.38925 3.73382 2.27604 3.53983 2.22709 3.31495C2.1954 3.16938 2.1818 2.96468 2.25191 2.82994C2.31093 2.71651 2.44146 2.66455 2.54465 2.65149C2.77634 2.62215 3.00443 2.76335 3.1704 2.95119C3.45949 3.27837 3.56393 3.89852 3.2622 4.27011C3.1434 4.41642 2.97897 4.45736 2.82099 4.3765C2.46326 4.1934 2.20992 3.70273 2.05192 3.29665C1.83796 2.74676 1.75449 2.16653 1.80649 1.56477C1.80691 1.55987 1.80501 1.37262 1.84958 1.4521C1.8942 1.53169 1.95925 1.71841 1.98119 1.7804C2.0708 2.03361 2.13529 2.23314 2.21116 2.49706C2.30865 2.83613 2.39126 3.17992 2.45753 3.53001C2.47532 3.62399 2.49663 3.71769 2.50437 3.8137C2.50763 3.85426 2.49537 3.85984 2.46877 3.83085C2.31926 3.66796 2.19823 3.43049 2.08658 3.23373C1.85424 2.82432 1.62765 2.40463 1.42991 1.96857C1.40157 1.90607 1.31744 1.72505 1.36247 1.77068C1.44869 1.85805 1.51882 2.05715 1.55918 2.16761C1.705 2.56664 1.80161 2.99026 1.87206 3.4179C1.90753 3.63322 1.94168 3.92392 1.95356 4.15C1.95504 4.17816 1.96 4.38007 1.94325 4.43712C1.91708 4.52632 1.80064 4.44495 1.77089 4.42569C1.57979 4.30195 1.43187 4.10721 1.29783 3.90406C1.22279 3.79034 1.14898 3.67136 1.08706 3.54602C1.0694 3.51027 1.04739 3.46418 1.03835 3.42248C1.03391 3.40199 1.06057 3.38085 1.06833 3.36528C1.13356 3.23441 1.15655 3.04978 1.18683 2.90486C1.23431 2.6776 1.26954 2.45408 1.25568 2.21909C1.24538 2.04446 1.21569 1.87308 1.18636 1.70204C1.15514 1.52001 1.10208 1.33457 1.08847 1.14896C1.08353 1.08163 1.10024 1.01808 1.1058 0.95164C1.11575 0.832489 1.1119 0.712911 1.12078 0.593597" stroke="#F5FFCB" stroke-linecap="round"/>
</svg>
