<svg width="2" height="3" viewBox="0 0 2 3" fill="none" xmlns="http://www.w3.org/2000/svg">
<path d="M0.627603 2.19342C0.611646 2.3171 0.595227 2.44514 0.605409 2.57051C0.60763 2.59786 0.617049 2.6764 0.643744 2.69953C0.670622 2.72281 0.717066 2.69376 0.736051 2.679C0.901264 2.55054 1.04649 2.2507 0.930249 2.02804C0.879209 1.93026 0.782631 1.83391 0.677539 1.84213C0.552119 1.85194 0.442553 1.98823 0.376911 2.09959C0.230949 2.34719 0.196616 2.72106 0.357239 2.9734C0.387912 3.02159 0.415194 3.01675 0.446519 2.97164C0.5407 2.83603 0.598052 2.66158 0.66392 2.50717C0.731096 2.3497 0.801859 2.1947 0.872242 2.03918C0.874483 2.03423 0.922886 1.94378 0.908055 1.9342C0.89619 1.92654 0.850214 1.94504 0.849543 1.94535C0.795548 1.97049 0.735044 2.01238 0.69015 2.05267C0.566934 2.16325 0.437478 2.31972 0.384477 2.49427C0.357939 2.58166 0.396599 2.66275 0.483341 2.63502C0.531052 2.61977 0.581228 2.57063 0.614488 2.53297C0.694472 2.44241 0.764551 2.33389 0.821801 2.22274C0.864264 2.1403 0.902254 2.04732 0.917891 1.95209C0.923434 1.91834 0.9169 1.88632 0.913856 1.85269C0.909576 1.80542 0.905597 1.75368 0.92117 1.70842C0.939207 1.65599 0.978172 1.61567 1.00944 1.57412C1.07994 1.48044 1.12816 1.37139 1.18573 1.26741C1.21279 1.21853 1.24954 1.16604 1.24954 1.10555C1.24954 1.02119 1.24954 0.936842 1.24954 0.85249C1.24954 0.832861 1.25053 0.812829 1.24904 0.793258C1.24593 0.752645 1.20215 0.797146 1.19279 0.80616C1.10072 0.894903 1.02849 1.01707 0.96581 1.13399C0.928227 1.2041 0.904665 1.2538 0.877538 1.3284C0.858537 1.38065 0.852065 1.42728 0.840968 1.48088" stroke="#F5FFCB" stroke-linecap="round"/>
</svg>
