<svg width="5" height="5" viewBox="0 0 5 5" fill="none" xmlns="http://www.w3.org/2000/svg">
<path d="M0.553024 2.79997C0.626963 3.0257 0.748798 3.23082 0.838615 3.44764C0.932736 3.67486 1.01766 3.91534 1.05581 4.16712C1.05936 4.19054 1.09212 4.51293 1.06181 4.51293C0.761328 4.51293 0.459917 4.29472 0.318432 3.97662C0.252108 3.82751 0.158628 3.57481 0.200236 3.39782C0.225193 3.29166 0.298918 3.19773 0.36103 3.12381C0.473434 2.99002 0.604418 2.86692 0.749818 2.79118C0.979677 2.67144 1.2877 2.65822 1.49739 2.84539C1.70375 3.02959 1.75666 3.35672 1.77578 3.64839C1.79519 3.94439 1.81304 4.35567 1.67079 4.61624C1.55214 4.83357 1.26221 4.74538 1.10921 4.64847C0.611762 4.33339 0.295276 3.52242 0.489426 2.85858C0.574307 2.56836 0.763632 2.2978 1.00181 2.18307C1.16328 2.10529 1.34827 2.0901 1.51959 2.09075C1.69373 2.09142 1.87921 2.11035 2.03738 2.20944C2.28559 2.36495 2.39249 2.68601 2.40576 3.01024C2.41277 3.18134 2.40207 3.32758 2.38116 3.49746C2.35578 3.70376 2.32094 3.95818 2.20537 4.12462C2.00955 4.40665 1.69911 4.19113 1.52919 3.99347C1.15012 3.55253 0.872316 2.89414 0.779217 2.26806C0.72335 1.89236 0.752715 1.4861 0.97781 1.19544C1.21058 0.894867 1.60936 0.790949 1.93418 0.818853C2.28526 0.849014 2.66779 1.03691 2.91935 1.34344C3.25415 1.7514 3.28317 2.33102 3.19174 2.87324C3.16334 3.04167 3.1037 3.2559 3.00814 3.39049C2.84598 3.61892 2.59392 3.70128 2.35597 3.69528C1.9137 3.68413 1.55559 3.3576 1.3222 2.9172C1.11044 2.51762 0.965556 2.00114 1.06841 1.52587C1.16638 1.07313 1.54601 0.770386 1.91858 0.982237C2.2732 1.18388 2.41407 1.7285 2.45976 2.16402C2.47766 2.33466 2.4792 2.57888 2.46696 2.75161C2.45398 2.93478 2.4321 3.17196 2.34337 3.32968C2.22057 3.54795 1.98232 3.19622 1.90778 3.0901C1.71526 2.81603 1.48749 2.38675 1.54059 2.00283C1.57119 1.78158 1.74514 1.60142 1.92218 1.5691C2.18263 1.52156 2.48982 1.68402 2.64696 1.93836C2.80337 2.19152 2.86774 2.56377 2.73215 2.84759C2.57153 3.18383 2.262 2.6259 2.18257 2.46661C2.08516 2.27126 2.03088 2.11842 2.00918 1.88781C1.976 1.53538 2.07124 1.20939 2.19337 0.896515C2.24342 0.768292 2.37949 0.475779 2.45136 0.351415C2.51821 0.235764 2.61572 0.072838 2.75015 0.0898552C2.83504 0.1006 2.9014 0.161009 2.96795 0.219536C3.08283 0.320576 3.19824 0.442173 3.28894 0.57561C3.48614 0.865735 3.50063 1.20896 3.47733 1.5691C3.47394 1.62156 3.46855 2.11333 3.38313 2.10174C3.32723 2.09416 3.26307 1.98523 3.24214 1.95301C3.09168 1.7215 2.9668 1.45953 2.85695 1.19691C2.77739 1.00671 2.65159 0.754251 2.75675 0.544838C2.86779 0.323709 3.06729 0.26472 3.26914 0.289872C3.5335 0.322813 3.70912 0.495731 3.81092 0.789547C3.87291 0.968467 3.91621 1.13311 3.93931 1.32732C3.93959 1.32961 3.9476 1.43932 3.92612 1.42183C3.91538 1.41309 3.89239 1.36629 3.89192 1.36542C3.82408 1.24116 3.75778 1.1155 3.69692 0.9859C3.64254 0.870074 3.58192 0.73179 3.53613 0.609312C3.51248 0.546059 3.4789 0.462742 3.48153 0.388781C3.48335 0.337524 3.50155 0.300201 3.52713 0.262031C3.54696 0.232429 3.56693 0.241516 3.59973 0.241516C3.71818 0.241516 3.82473 0.262518 3.92252 0.352881C4.00741 0.431328 4.03995 0.579996 4.04491 0.704558C4.05398 0.932343 3.93723 1.16846 3.87572 1.37568C3.80065 1.62854 3.75686 1.88731 3.64892 2.12592C3.5485 2.34792 3.44918 2.58052 3.32853 2.78678" stroke="#F5FFCB" stroke-linecap="round"/>
</svg>
