<svg width="5" height="6" viewBox="0 0 5 6" fill="none" xmlns="http://www.w3.org/2000/svg">
<path d="M3.57703 5.11842C3.23732 5.20496 2.90369 5.25443 2.56006 5.15505C2.14493 5.03499 1.7726 4.70745 1.5947 4.2231C1.43819 3.79702 1.50295 3.2606 1.68649 2.86328C1.75949 2.70527 1.88907 2.49739 2.05308 2.47204C2.20621 2.44838 2.31986 2.6266 2.38847 2.76218C2.60527 3.19058 2.61726 3.71558 2.54387 4.19819C2.48225 4.60337 2.34201 5.32147 1.90189 5.30305C1.61146 5.29089 1.38196 5.05175 1.22091 4.77919C1.15067 4.66033 1.0505 4.49268 1.02591 4.34179C1.00833 4.23389 1.14296 4.33365 1.15071 4.3396C1.39801 4.5293 1.57008 4.88524 1.6151 5.23418C1.63638 5.39918 1.63821 5.61864 1.5413 5.75363C1.45529 5.87343 1.30722 5.8827 1.19151 5.83056C0.892431 5.69579 0.778375 5.25115 0.703725 4.91474C0.702729 4.91025 0.613868 4.57261 0.656326 4.53229C0.666323 4.52279 0.68211 4.5367 0.692925 4.54474C0.75183 4.58856 0.818903 4.68104 0.86032 4.73743C1.01465 4.94756 1.19946 5.22033 1.22151 5.51552C1.23179 5.65321 1.14398 5.61536 1.08651 5.55655C0.959029 5.42609 0.868019 5.20124 0.84352 5.00266C0.813845 4.76211 0.846617 4.52858 0.921518 4.3037C1.03839 3.9528 1.25402 3.52708 1.5353 3.33732C1.73317 3.20382 2.00509 3.249 2.19468 3.38494C2.41552 3.54329 2.47575 3.83468 2.49287 4.12419C2.50711 4.36502 2.49498 4.55951 2.44607 4.79238C2.41063 4.96112 2.33886 5.22526 2.15628 5.22978C1.97672 5.23422 1.79423 5.04189 1.68349 4.89569C1.49789 4.65064 1.3537 4.34191 1.25631 4.03115C1.21906 3.91229 1.1628 3.68315 1.17831 3.54173C1.19798 3.36234 1.3362 3.32646 1.4579 3.34391C1.68428 3.37637 1.90537 3.52782 2.08308 3.69412C2.30786 3.90448 2.50525 4.17434 2.60386 4.50298C2.67191 4.72976 2.68463 4.90598 2.67226 5.14479C2.66747 5.23736 2.64332 5.66793 2.48987 5.67817C2.33626 5.68842 2.14411 5.28667 2.08668 5.18216C1.90448 4.85057 1.81007 4.54272 1.82509 4.13518C1.83685 3.81611 1.93057 3.23301 1.99188 2.94095C2.10939 2.38124 2.26395 1.79359 2.53667 1.31371C2.64675 1.11999 2.83865 0.853465 3.06705 0.934919C3.29306 1.01552 3.44385 1.36192 3.53923 1.58992C3.63533 1.81963 3.702 2.02793 3.75463 2.27642C3.79055 2.44607 3.8341 2.67843 3.75223 2.84423C3.65204 3.04713 3.4078 3.04673 3.26504 2.93362C3.07453 2.78268 2.51163 2.11166 2.90805 1.86247C3.08734 1.74977 3.27752 1.90263 3.36824 2.08813C3.4868 2.33057 3.50558 2.6494 3.51523 2.92263C3.52804 3.2849 3.52681 3.6769 3.46544 4.03408C3.45593 4.08943 3.44734 4.12179 3.40844 4.07291C3.31241 3.95224 3.23597 3.79612 3.16425 3.65456C3.09666 3.52117 3.02023 3.3576 2.96265 3.21643C2.9225 3.118 2.85226 2.969 2.85226 2.85083C2.85226 2.65607 3.14473 2.8672 3.18164 2.90065C3.38287 3.08301 3.47548 3.37958 3.55303 3.66042C3.63776 3.96724 3.66073 4.28664 3.63763 4.60848C3.635 4.64514 3.62595 5.04452 3.52063 4.95137C3.42738 4.86888 3.34495 4.74089 3.27404 4.63339C3.17891 4.48919 3.08711 4.33457 3.02265 4.16596C3.01014 4.13322 2.98107 4.04239 2.98665 3.99744C3.00098 3.88198 3.12141 3.75667 3.17984 3.6846C3.32791 3.50198 3.57493 3.12735 3.81462 3.2809C3.9088 3.34123 3.97454 3.45573 4.06662 3.51389C4.10091 3.53555 4.23662 3.34083 4.26101 3.3146C4.30559 3.26666 4.315 3.24948 4.36601 3.27284C4.41243 3.2941 4.46454 3.32251 4.4866 3.38054C4.50569 3.43074 4.50225 3.42467 4.474 3.47066C4.45261 3.5055 4.45843 3.54571 4.4398 3.57983C4.28546 3.86254 4.03733 4.12239 4.01022 4.48247C4.00074 4.60831 3.99988 4.73437 3.99822 4.86052C3.99569 5.05223 3.97649 5.3087 3.89982 5.48035C3.81965 5.65983 3.59825 5.69844 3.45344 5.7485C3.35703 5.78183 3.25858 5.80649 3.16005 5.82836C3.02482 5.85839 3.43483 5.84571 3.57223 5.84155C3.79501 5.83481 4.02376 5.80267 4.24661 5.82031C4.25828 5.82123 4.28641 5.8261 4.28981 5.84375C4.30547 5.92503 4.45898 5.98441 4.5166 6.00201" stroke="#F5FFCB" stroke-linecap="round"/>
</svg>
