<svg width="2" height="12" viewBox="0 0 2 12" fill="none" xmlns="http://www.w3.org/2000/svg">
<path d="M0.260782 0.951355C0.260782 2.45396 0.149564 3.93484 0.0749513 5.43315C0.0289685 6.35653 0.0489704 7.31078 0.0749513 8.23481C0.0844771 8.5736 0.122133 8.90791 0.0499357 9.23852C0.0281779 9.33816 0.0208177 9.47424 0.0517225 9.57237C0.156404 9.90473 0.354289 10.196 0.466269 10.5303C0.495366 10.6171 0.473945 10.7105 0.519874 10.7899C0.579592 10.8932 0.607689 10.9889 0.614576 11.115C0.625005 11.3061 0.72911 11.4029 0.871881 11.4292C0.936216 11.4411 1.1815 11.4875 1.24176 11.414C1.27091 11.3784 1.39334 11.2548 1.38292 11.2198C1.33165 11.0476 1.12017 10.8545 1.02734 10.7223C0.819962 10.4268 0.621847 10.1289 0.446614 9.80366C0.226422 9.39495 0.243824 8.79721 0.421598 8.37446C0.587584 7.97974 0.542496 7.40765 0.5163 6.97581C0.450295 5.88768 0.518087 4.8021 0.518087 3.71374C0.518087 3.17136 0.55025 2.6322 0.55025 2.09035C0.55025 1.98318 0.562543 1.78662 0.621724 1.70632C0.641161 1.67995 0.70923 1.70058 0.736081 1.68886C0.806775 1.65803 0.880622 1.59892 0.950502 1.56013C1.07732 1.48973 0.79776 1.04506 0.814702 1.04736C0.861138 1.05366 0.944969 2.09791 0.961223 2.19945C1.01389 2.52846 1.00053 2.78835 1.00053 3.1137C1.00053 3.30805 1.01196 3.50914 0.998747 3.70283C0.990078 3.82986 0.941373 3.91669 0.902257 4.03013C0.830971 4.23688 0.786962 4.46233 0.730721 4.676C0.60871 5.13953 0.764478 5.70857 0.775392 6.17502C0.786009 6.62882 0.871881 7.05189 0.871881 7.51039C0.871881 7.88576 0.843289 8.25787 0.837931 8.63411C0.836497 8.7348 0.879736 9.32304 0.79326 9.39344C0.770849 9.41169 0.8312 9.44297 0.839718 9.47418" stroke="#F5FFCB" stroke-linecap="round"/>
</svg>
