<svg width="2" height="8" viewBox="0 0 2 8" fill="none" xmlns="http://www.w3.org/2000/svg">
<path d="M0.0532227 2.98631C0.117175 3.402 0.424185 3.76806 0.433244 4.20291C0.434505 4.26342 0.413109 4.35058 0.467552 4.39292C0.545731 4.45373 0.637523 4.47559 0.681314 4.56974C0.852967 4.93879 0.972131 4.33024 0.997999 4.18444C1.05369 3.87055 1.00328 3.51108 1.00328 3.1948C1.00328 3.11592 0.999585 3.03605 1.00328 2.95728C1.01092 2.79429 1.09828 2.6496 1.09828 2.48226C1.09828 2.31919 1.05837 2.18574 1.10356 2.02306C1.14783 1.86368 1.19374 1.67739 1.26454 1.52692C1.34248 1.3613 1.21723 1.16467 1.19197 1.00044C1.16035 0.794889 1.12203 0.603285 1.12203 0.394777C1.12203 0.330998 1.14888 0.194349 1.08773 0.150666C1.04064 0.117034 1.04426 0.258729 1.03363 0.315605C0.947867 0.774228 0.919197 1.24484 0.902993 1.71034C0.880897 2.34512 0.945166 2.9842 0.881881 3.61704C0.849214 3.94372 0.784543 4.27071 0.839656 4.59745C0.899491 4.95218 0.992128 5.24373 1.14579 5.56202C1.29929 5.87999 1.26454 6.23993 1.26454 6.58464C1.26454 6.80237 1.26454 7.02009 1.26454 7.23781" stroke="#F5FFCB" stroke-linecap="round"/>
</svg>
