<svg width="2" height="7" viewBox="0 0 2 7" fill="none" xmlns="http://www.w3.org/2000/svg">
<path d="M0.522963 0.968353C0.555344 1.21691 0.641321 1.45162 0.671758 1.70321C0.699363 1.9314 0.721685 2.15783 0.760555 2.38386C0.778417 2.48772 0.789195 2.59575 0.792354 2.70183C0.796465 2.83989 0.827678 2.96601 0.840352 3.10186C0.864683 3.36267 0.845508 3.63284 0.879351 3.89167C0.902167 4.06618 0.927372 4.23854 0.949549 4.41186C0.974264 4.60502 0.96283 4.79569 0.995747 4.98773C1.0059 5.04694 1.02109 5.1044 1.02515 5.16284C1.03436 5.29561 1.03663 5.42919 1.04375 5.56214C1.05394 5.75265 1.09762 5.93605 1.11694 6.12482" stroke="#F5FFCB" stroke-linecap="round"/>
</svg>
