<svg width="6" height="8" viewBox="0 0 6 8" fill="none" xmlns="http://www.w3.org/2000/svg">
<path d="M0.934082 7.06667C1.36189 6.96404 1.77657 6.71734 2.18393 6.53947C2.41046 6.44056 2.70339 6.36262 2.8971 6.17911C3.02786 6.05524 3.28395 6.07567 3.44812 6.07567C3.71859 6.07567 3.96536 6.18926 4.22587 6.069C4.38849 5.99393 4.62766 5.8497 4.62766 6.18078C4.62766 6.3281 4.60756 6.73634 4.45259 6.73634C4.33289 6.73634 4.37805 6.61078 4.41241 6.51612C4.49045 6.30114 4.58889 6.09817 4.68506 5.89382C4.7458 5.76474 4.76959 5.65794 4.63914 5.83209C4.26642 6.32963 4.14204 7.06667 3.49117 7.06667C3.10321 7.06667 2.75979 7.20691 2.3963 7.33695C2.29345 7.37374 2.23313 7.45003 2.12079 7.45874C2.01952 7.46659 1.91403 7.51519 1.81801 7.55383C1.66524 7.61532 1.95186 7.87749 2.05622 7.87749C2.18154 7.87749 2.30686 7.87749 2.43218 7.87749C2.6109 7.87749 2.76855 7.83248 2.94302 7.7874C3.02471 7.7663 3.12161 7.69731 3.20705 7.69731C3.27585 7.69731 3.34493 7.69503 3.41369 7.69731C3.48362 7.69963 3.51959 7.77042 3.58014 7.80242C3.74954 7.89194 3.91451 7.75659 4.03933 7.64392C4.65808 7.08538 5.2198 6.49162 5.57186 5.66192C5.86605 4.9686 5.87887 4.08249 5.7584 3.33123C5.62614 2.50644 4.88671 2.01769 4.37798 1.52607C4.08804 1.24588 4.06039 0.827944 3.85278 0.490021" stroke="#F5FFCB" stroke-linecap="round"/>
</svg>
