<svg width="2" height="6" viewBox="0 0 2 6" fill="none" xmlns="http://www.w3.org/2000/svg">
<path d="M1.28475 0.192901C1.15084 0.19007 0.999521 0.162835 0.868817 0.202936C0.758887 0.236664 0.667272 0.362343 0.610412 0.470129C0.561703 0.562462 0.485361 0.66831 0.498742 0.784991C0.51449 0.922315 0.495477 1.06277 0.510071 1.20021C0.518915 1.2835 0.539852 1.37665 0.57157 1.45235C0.593744 1.50527 0.618049 1.55174 0.628754 1.61041C0.645965 1.70474 0.620893 1.80014 0.607175 1.89265C0.589722 2.01034 0.575886 2.12601 0.575886 2.24577C0.575886 2.42476 0.562915 2.62679 0.597464 2.80086C0.650182 3.06646 0.646316 3.34577 0.668674 3.61687C0.676172 3.70777 0.684643 3.80318 0.702661 3.89221C0.732751 4.04089 0.717246 4.19471 0.733411 4.34506C0.738722 4.39447 0.749464 4.44309 0.756068 4.49246C0.767817 4.58027 0.778336 4.66826 0.787358 4.75651C0.806279 4.94161 0.841899 5.09931 0.89633 5.27334" stroke="#F5FFCB" stroke-linecap="round"/>
</svg>
