<svg width="3" height="9" viewBox="0 0 3 9" fill="none" xmlns="http://www.w3.org/2000/svg">
<path d="M2.0703 3.89397C1.71448 4.3228 1.48566 4.90628 1.32907 5.46577C1.18344 5.98615 1.09546 6.5514 1.14619 7.09966C1.16116 7.26141 1.20984 7.71479 1.43751 7.67231C1.66209 7.6304 1.89816 7.35148 2.04225 7.1743C2.35002 6.79586 2.59783 6.3108 2.69825 5.79945C2.77495 5.40882 2.68713 5.06298 2.49001 4.74196C2.30388 4.43885 2.01135 4.10517 1.66894 4.08464C1.41551 4.06945 1.19838 4.26157 1.02967 4.45533C0.688104 4.84758 0.434101 5.36431 0.325122 5.90858C0.21432 6.46197 0.248571 7.06659 0.458371 7.58387C0.518957 7.73326 0.597948 7.91653 0.751842 7.96773C0.91772 8.02292 1.05973 7.90787 1.18342 7.79964C1.43661 7.57807 1.56001 7.38524 1.71533 7.04823C1.95991 6.51757 2.11909 5.96062 2.25696 5.3811C2.4032 4.7664 2.51196 4.21717 2.52562 3.58224C2.53241 3.26618 2.52078 2.98919 2.36054 2.73111C2.26129 2.57128 2.15329 2.51788 1.98723 2.53417C1.78392 2.55411 1.66391 2.65639 1.52598 2.83147C1.32433 3.08744 1.21138 3.36238 1.1025 3.68511C0.965994 4.08969 0.889041 4.43264 0.841394 4.86427C0.791006 5.32074 0.792297 5.80964 0.921236 6.25104C0.99825 6.51469 1.17351 6.72408 1.43157 6.64368C1.79464 6.53057 1.99145 6.07201 2.10591 5.69784C2.27504 5.14494 2.38475 4.49125 2.30983 3.90401C2.26559 3.55727 2.10082 3.08856 1.73907 3.07608C1.28948 3.06057 0.953705 3.66618 0.76479 4.04827C0.484371 4.61541 0.25208 5.28002 0.208058 5.93869C0.199605 6.06517 0.206264 6.3836 0.231794 6.51698C0.239715 6.55836 0.288945 6.76647 0.385004 6.73776C0.446146 6.71949 0.495011 6.66211 0.538752 6.60918C0.731811 6.37559 0.902721 6.02372 1.02967 5.75241C1.37288 5.01891 1.6875 4.21031 1.73907 3.36586C1.75319 3.13467 1.76209 2.63605 1.48822 2.56428C1.17121 2.4812 0.889005 2.89639 0.745908 3.1595C0.511584 3.59035 0.436417 4.06829 0.511779 4.56885C0.5779 5.00804 0.741094 5.56344 1.09872 5.79819C1.44724 6.02697 1.85969 5.82992 2.09458 5.49274C2.3943 5.06251 2.47177 4.44036 2.42797 3.90526C2.40153 3.58221 2.32262 3.2159 2.11994 2.97447C1.90707 2.72092 1.60473 2.73352 1.37331 2.94437C1.0541 3.2352 0.853772 3.73237 0.72379 4.16618C0.718007 4.18548 0.641257 4.46485 0.668764 4.53373C0.700041 4.61205 0.822411 4.50414 0.879157 4.44843C1.76797 3.57576 2.20625 2.21742 2.20625 0.890867C2.20625 0.862422 2.20822 0.832637 2.20517 0.804311C2.19925 0.749249 2.14148 0.888705 2.12047 0.938535C1.95694 1.32657 1.80668 1.73051 1.69429 2.14279C1.67205 2.22439 1.63908 2.3167 1.63064 2.40308C1.62338 2.4773 1.65174 2.56899 1.66301 2.64017C1.66525 2.65436 1.6992 2.92799 1.71749 2.9243C1.75106 2.91751 1.74665 2.85253 1.75795 2.81516C1.78177 2.73643 1.84549 2.52015 1.86315 2.46016C1.94089 2.19605 2.01798 1.93171 2.09188 1.6661C2.1135 1.58841 2.16314 1.40629 2.18683 1.31612C2.19389 1.28925 2.21833 1.21102 2.20517 1.23458C2.17609 1.28666 2.15802 1.34604 2.13612 1.40267C2.06064 1.59785 1.97481 1.83182 1.90846 2.02487C1.58805 2.95715 1.29871 3.90761 1.05934 4.87243C0.83474 5.7777 0.643932 6.70509 0.583528 7.64722C0.572349 7.82159 0.569429 8.09924 0.579212 8.28447C0.581649 8.3306 0.597045 8.49164 0.615896 8.55041C0.650914 8.65958 0.773392 8.63246 0.846789 8.60812C1.04259 8.54316 1.20203 8.38854 1.33231 8.21172C1.51637 7.9619 1.66586 7.66734 1.82269 7.39383C1.84639 7.3525 1.76015 7.46187 1.7326 7.49983C1.58862 7.69817 1.46882 7.91918 1.37817 8.15652C1.35234 8.22413 1.21167 8.5517 1.33717 8.60749C1.48116 8.6715 1.67667 8.37332 1.74716 8.27757C2.01298 7.91656 2.16584 7.47479 2.40747 7.09527C2.41878 7.07752 2.44775 7.0233 2.4447 7.0451C2.42608 7.17806 2.35081 7.32344 2.31846 7.45153C2.24938 7.72507 2.18238 8.02797 2.21272 8.31583C2.21949 8.38001 2.24997 8.55537 2.3368 8.54665C2.40638 8.53966 2.46305 8.43018 2.49163 8.37228C2.5685 8.21654 2.61062 8.04004 2.63405 7.86361C2.63915 7.82518 2.66835 7.74241 2.63513 7.74695C2.58077 7.75439 2.51153 7.88047 2.48785 7.91818C2.40991 8.04234 2.34329 8.1761 2.28825 8.31583C2.27442 8.35093 2.24374 8.43919 2.2343 8.48393C2.23092 8.49995 2.22659 8.53261 2.24078 8.53285C2.32385 8.53425 2.42357 8.31382 2.45225 8.25562C2.54189 8.07374 2.61714 7.86671 2.65509 7.66102C2.67168 7.57107 2.6737 7.48162 2.63135 7.40135C2.61498 7.37033 2.58771 7.34609 2.57525 7.31229C2.54635 7.2339 2.61443 7.17498 2.66372 7.13542C2.73081 7.08156 2.69909 7.25698 2.69609 7.29536C2.6958 7.2991 2.68058 7.41123 2.69717 7.4001C2.75628 7.36045 2.80242 7.24483 2.83473 7.18057C2.93136 6.98841 2.93246 6.81755 2.89623 6.60166C2.86679 6.42622 2.85311 6.24947 2.84822 6.07041C2.84428 5.92635 2.8399 5.77654 2.86656 5.63512C2.88613 5.53131 2.88381 5.42472 2.9054 5.32151C2.92534 5.22622 2.92482 5.13541 2.92482 5.03801C2.92482 4.95154 2.93028 4.86409 2.93507 4.77772C2.93937 4.70035 2.96366 4.62591 2.96366 4.54816C2.96366 4.43358 2.96366 4.31901 2.96366 4.20444C2.96366 3.79613 2.96366 3.38781 2.96366 2.97949C2.96366 2.65747 2.94424 2.33643 2.94424 2.01421C2.94424 1.71126 2.94424 1.40832 2.94424 1.10537" stroke="#F5FFCB" stroke-linecap="round"/>
</svg>
