<svg width="5" height="14" viewBox="0 0 5 14" fill="none" xmlns="http://www.w3.org/2000/svg">
<path d="M1.8528 5.49001C1.88137 4.39363 1.9316 3.29794 1.96472 2.20169C1.97647 1.8129 1.98959 1.42424 2.00203 1.03551C2.00367 0.984204 2.02876 0.808638 1.98481 0.760228C1.94639 0.717903 1.87163 0.776712 1.84849 0.791927C1.48765 1.02924 1.25359 1.46924 1.08079 1.89304C0.824062 2.52267 0.677326 3.20554 0.559901 3.88506C0.551264 3.93503 0.493531 4.17547 0.515417 4.26878C0.520723 4.2914 0.545901 4.26342 0.546986 4.2621C0.653368 4.13316 0.745081 3.96391 0.835412 3.82333C1.24778 3.18156 1.65898 2.53076 1.96185 1.80795C1.98466 1.75353 2.0425 1.62541 1.99055 1.62944C1.72134 1.65031 1.46142 2.35334 1.37352 2.55371C1.09972 3.17781 0.913019 3.84652 0.802408 4.53405C0.798527 4.55817 0.732721 4.84065 0.75936 4.89274C0.811398 4.9945 0.94906 4.80125 1.032 4.73258C1.60887 4.25496 2.11127 3.66679 2.69081 3.19102C2.89968 3.01955 3.30223 2.62052 3.59914 2.68718C3.91 2.75697 4.00784 3.37092 4.05976 3.63814C4.27001 4.72026 4.25254 5.87184 4.26496 6.97485C4.27793 8.12685 4.19053 9.24435 4.04828 10.3833C3.93145 11.3187 3.76178 12.2443 3.63501 13.1778" stroke="#F5FFCB" stroke-linecap="round"/>
</svg>
