<svg width="5" height="9" viewBox="0 0 5 9" fill="none" xmlns="http://www.w3.org/2000/svg">
<path d="M2.05069 2.73846C1.89996 3.37034 1.75471 3.85072 1.7173 4.50971C1.70237 4.77277 1.71273 5.03885 1.74373 5.3C1.78097 5.61365 1.85537 6.03498 2.10788 6.23894C2.42545 6.49547 2.75681 5.96651 2.89119 5.72275C3.20188 5.1591 3.37766 4.48714 3.48406 3.83546C3.55745 3.38594 3.63249 2.82073 3.4641 2.37969C3.33687 2.04647 3.05469 1.81002 2.74175 1.78886C2.31319 1.75988 1.91651 2.05866 1.62451 2.39475C1.28759 2.78253 1.03045 3.28819 0.918348 3.82417C0.856925 4.11785 0.848288 4.33597 0.892453 4.62826C0.923709 4.83511 1.00612 5.14655 1.24796 5.11184C1.55456 5.06784 1.8344 4.70648 2.01347 4.45577C2.33067 4.01167 2.58874 3.49619 2.7984 2.97429C2.9374 2.62826 3.07892 2.23237 3.08539 1.8428C3.08845 1.65897 3.0455 1.43379 2.8955 1.33099C2.73565 1.22144 2.54181 1.31752 2.40674 1.42507C2.12797 1.64706 1.91199 1.9867 1.74751 2.3245C1.52253 2.78654 1.32645 3.40806 1.53982 3.92327C1.71076 4.33605 2.14802 4.5284 2.50924 4.33535C2.72829 4.21828 2.88413 3.99344 2.99261 3.74953C3.07086 3.57356 3.14038 3.34836 3.13502 3.14615C3.13125 3.00341 3.05463 3.02363 2.97534 3.10224C2.76716 3.30866 2.6072 3.6038 2.47633 3.87748C2.22923 4.39426 2.03203 4.99379 2.03343 5.59354C2.03368 5.69959 2.0324 5.94404 2.11651 6.02695C2.20712 6.11627 2.37407 5.83875 2.39811 5.80303C2.87054 5.10118 3.14831 4.25182 3.3411 3.39829C3.40003 3.13742 3.4519 2.89017 3.54394 2.64312C3.57218 2.56732 3.59549 2.48962 3.60382 2.40729C3.61269 2.31963 3.64814 2.2418 3.68259 2.16393C3.73378 2.0482 3.8122 1.94546 3.88165 1.84405C3.95824 1.73223 3.9875 1.62816 4.00465 1.48779C4.03091 1.27286 4.04481 1.05296 4.06291 0.836745C4.06752 0.781661 4.07757 0.727131 4.07963 0.671788C4.08184 0.612694 4.09461 0.521215 4.07748 0.465434C4.06708 0.431579 4.03002 0.499591 4.02946 0.500558C3.98473 0.578573 3.95531 0.671174 3.92804 0.758344C3.79553 1.18202 3.68839 1.62473 3.63134 2.0711C3.60259 2.29603 3.57322 2.53104 3.57685 2.75916C3.57851 2.86361 3.59169 2.95951 3.63457 3.05144C3.73027 3.25657 3.8055 3.4695 3.9685 3.61781C4.00849 3.6542 4.04613 3.69711 4.08665 3.73197C4.1088 3.75103 4.13932 3.74528 4.16002 3.76333C4.18139 3.78197 4.16758 3.69944 4.16757 3.69684C4.16679 3.46847 4.15971 3.24026 4.15786 3.01193C4.15758 2.97794 4.13985 2.7017 4.16325 2.69393C4.19743 2.68257 4.22135 2.76451 4.23554 2.78926C4.29974 2.90122 4.23901 3.02105 4.20102 3.1311C4.10529 3.40836 4.0107 3.68657 3.91294 3.96278C3.84761 4.14737 3.7948 4.32934 3.77376 4.52728C3.76503 4.60937 3.73754 4.6882 3.73168 4.77001C3.72739 4.82987 3.72936 4.89256 3.73114 4.95253C3.73386 5.04414 3.76944 5.13387 3.76944 5.22223C3.76944 5.28237 3.83527 5.30858 3.84497 5.36774C3.85539 5.43135 3.82006 5.50543 3.80181 5.56155C3.74061 5.7497 3.70264 5.94545 3.6842 6.14549C3.67019 6.29761 3.6663 6.45742 3.68852 6.609C3.69966 6.68499 3.72532 6.75544 3.73599 6.83166C3.76483 7.03763 3.75002 7.25416 3.75002 7.46264C3.75002 7.70182 3.75002 7.941 3.75002 8.18017" stroke="#F5FFCB" stroke-linecap="round"/>
</svg>
