<svg width="3" height="4" viewBox="0 0 3 4" fill="none" xmlns="http://www.w3.org/2000/svg">
<path d="M1.89577 1.79616C1.96161 1.8407 2.02132 1.8933 2.07946 1.95214C2.19162 2.06566 2.29247 2.18955 2.35053 2.35639C2.41182 2.53248 2.46951 2.91393 2.23283 2.93894C2.12636 2.95019 2.03152 2.8698 1.96086 2.78296C1.82789 2.61952 1.72421 2.40892 1.64164 2.2034C1.57156 2.02896 1.52549 1.84807 1.51412 1.65406C1.50454 1.49053 1.51475 1.31827 1.63985 1.22368C1.73791 1.14953 1.84792 1.16759 1.95195 1.21687C2.15322 1.31223 2.33604 1.47726 2.48183 1.66958C2.62327 1.85615 2.74171 2.08515 2.80663 2.32808C2.84076 2.45576 2.85808 2.60967 2.78813 2.72525C2.76633 2.76127 2.73975 2.79422 2.70899 2.81862C2.65526 2.86124 2.53477 2.91065 2.46913 2.90246C2.2836 2.87932 2.1535 2.62481 2.06229 2.46147C1.93196 2.22804 1.8046 1.96519 1.74909 1.68727C1.72713 1.57738 1.7239 1.43691 1.74284 1.32576C1.75869 1.23275 1.81507 1.0597 1.86411 0.983852C1.8911 0.942115 1.92481 0.904462 1.96376 0.88068C2.06162 0.82093 2.14448 0.849882 2.24041 0.901641C2.42835 1.00305 2.59658 1.19094 2.72103 1.38783C2.81295 1.53326 2.86559 1.69177 2.86972 1.8751C2.87114 1.93793 2.87295 2.09762 2.7946 2.11738C2.76784 2.12413 2.73957 2.11771 2.71278 2.11112C2.59844 2.08296 2.48452 2.02223 2.38085 1.96167C2.19662 1.85404 2.00577 1.72428 1.86813 1.53483C1.75643 1.38108 1.69021 1.1849 1.65992 0.98494C1.64045 0.856459 1.63446 0.749189 1.65434 0.621798C1.6667 0.542606 1.68284 0.488134 1.73571 0.439955C1.80212 0.379444 1.90788 0.372179 1.98628 0.387688C2.09557 0.409311 2.18078 0.485361 2.252 0.585048C2.33692 0.703909 2.55674 1.12221 2.29792 1.16787C2.08087 1.20617 1.88158 0.996883 1.76826 0.795475C1.71053 0.692876 1.64776 0.561992 1.63718 0.434782C1.63307 0.3854 1.63509 0.339268 1.67887 0.318544C1.73707 0.290992 1.79282 0.327746 1.84026 0.366727C1.88305 0.401888 1.92316 0.442684 1.95863 0.48841C2.0291 0.579259 2.12778 0.749078 2.16595 0.867341C2.22245 1.04239 2.19672 1.19381 2.09127 1.32739C1.99254 1.45248 1.85864 1.52686 1.71431 1.51305C1.58682 1.50085 1.46068 1.4171 1.37257 1.30725C1.2946 1.21005 1.24073 1.08115 1.22165 0.94683C1.21075 0.870132 1.21466 0.780284 1.28942 0.761447C1.48144 0.713062 1.67075 1.0899 1.49941 1.25281C1.40575 1.34187 1.27457 1.31822 1.18308 1.24137C1.07136 1.14752 0.994755 0.972579 0.997835 0.805275C0.999938 0.691059 1.08001 0.52858 1.192 0.618531C1.30272 0.707456 1.18516 0.857809 1.11242 0.898919C0.900514 1.01867 0.741813 0.697128 0.693768 0.49331C0.669753 0.391432 0.684471 0.220367 0.792746 0.196862C0.89579 0.174492 0.788075 0.411263 0.756186 0.442677C0.738376 0.460222 0.718705 0.461578 0.697335 0.458466C0.692246 0.457725 0.677891 0.450614 0.682622 0.453021C0.684462 0.453958 0.686453 0.45471 0.687972 0.456288C0.720468 0.490065 0.774705 0.557309 0.796313 0.584776C0.965691 0.800085 1.13114 1.02207 1.2776 1.26152C1.40507 1.46991 1.55277 1.71928 1.57342 1.98943C1.58706 2.16783 1.50642 2.32552 1.38929 2.42063C1.37342 2.43352 1.32039 2.45724 1.33489 2.44214C1.36477 2.41102 1.45515 2.39575 1.48559 2.39287C1.61293 2.38081 1.72953 2.41145 1.82087 2.52816C1.88213 2.60644 1.90872 2.68755 1.93099 2.78949C1.94482 2.8528 1.95681 2.92845 1.9379 2.99366C1.91232 3.08191 1.82762 3.1025 1.76023 3.10118C1.67092 3.09944 1.5902 3.05533 1.52037 2.99039C1.47944 2.95233 1.41967 2.88907 1.40222 2.82515" stroke="#F5FFCB" stroke-linecap="round"/>
</svg>
