<svg width="2" height="4" viewBox="0 0 2 4" fill="none" xmlns="http://www.w3.org/2000/svg">
<path d="M1.5249 2.419C1.50868 2.79536 1.45016 3.1614 1.41091 3.53118C1.40835 3.55525 1.37653 3.78959 1.36771 3.77882C1.32824 3.73063 1.29462 3.6014 1.27531 3.5473C1.16007 3.22445 1.07373 2.8858 1.02212 2.53916C0.963815 2.14757 0.921782 1.74412 0.890123 1.34785C0.889152 1.3357 0.88536 1.30048 0.890123 1.31122C0.943917 1.43249 0.984765 1.5582 1.01372 1.6922C1.11042 2.13977 1.13941 2.60675 1.15831 3.06741C1.16435 3.21457 1.16731 3.33919 1.16731 3.48283C1.16731 3.51489 1.18376 3.56102 1.16191 3.5788C1.1459 3.59184 1.14671 3.53549 1.14151 3.51286C1.119 3.41493 1.09811 3.31645 1.07612 3.21834C0.977837 2.77982 0.868946 2.34308 0.794126 1.89735C0.742865 1.59196 0.702148 1.25715 0.728128 0.943421C0.735164 0.858459 0.766473 0.793665 0.797726 0.718495C0.871804 0.540316 0.916055 0.321786 1.04492 0.187315C1.08811 0.142248 1.13995 0.118768 1.19371 0.0993957C1.27737 0.0692503 1.31759 0.10391 1.35211 0.204899C1.40148 0.349366 1.41491 0.509999 1.41691 0.66501C1.41751 0.711801 1.426 0.804751 1.39771 0.84671C1.3837 0.867472 1.34999 0.862829 1.33171 0.862829C1.24833 0.862829 1.159 0.859884 1.08212 0.815938C0.97422 0.754265 0.84287 0.60418 0.812125 0.454004" stroke="#F5FFCB" stroke-linecap="round"/>
</svg>
