<svg width="2" height="3" viewBox="0 0 2 3" fill="none" xmlns="http://www.w3.org/2000/svg">
<path d="M1.08102 1.10698C1.12881 1.15463 1.17724 1.20054 1.21344 1.26269C1.23046 1.29191 1.25 1.32966 1.25 1.36722C1.25 1.39696 1.23029 1.42412 1.20363 1.42166C1.11171 1.41319 1.0076 1.30745 0.94036 1.24635C0.827087 1.14344 0.722109 1.02922 0.633395 0.894645C0.589932 0.828715 0.528573 0.738632 0.509672 0.654002C0.489022 0.56154 0.587719 0.544872 0.639636 0.552464C0.733726 0.566222 0.819819 0.633858 0.888864 0.709535C0.983184 0.812915 1.06486 0.944961 1.10488 1.09309C1.14671 1.24795 1.15076 1.42431 1.12204 1.58336C1.11675 1.61265 1.10889 1.64223 1.09529 1.66721C1.07148 1.71092 1.04477 1.69535 1.01281 1.67864C0.848922 1.59299 0.736714 1.38941 0.615338 1.23928C0.60105 1.2216 0.586656 1.20401 0.571422 1.18755C0.557366 1.17237 0.548304 1.16279 0.556263 1.18592C0.622009 1.37701 0.679561 1.57055 0.730589 1.76847C0.741124 1.80934 0.751103 1.85043 0.760238 1.89179C0.7625 1.90203 0.777962 1.94667 0.765588 1.96583C0.750126 1.98978 0.707817 1.97532 0.690017 1.96937C0.650814 1.95626 0.616901 1.9313 0.581008 1.90921C0.570135 1.90252 0.542685 1.8809 0.53085 1.90132C0.515699 1.92745 0.525952 1.97153 0.517029 2.00149C0.516275 2.00402 0.514515 2.00757 0.515468 2.01048C0.521381 2.02853 0.531493 1.97651 0.5362 1.95794C0.553004 1.89165 0.563628 1.8185 0.560722 1.74887C0.557947 1.68241 0.536164 1.63622 0.504099 1.58472C0.428723 1.46368 0.341613 1.35433 0.260667 1.239C0.222365 1.18444 0.166255 1.11928 0.143855 1.0509C0.140612 1.041 0.149063 1.04328 0.15411 1.04328" stroke="#F5FFCB" stroke-linecap="round"/>
</svg>
