<svg width="3" height="5" viewBox="0 0 3 5" fill="none" xmlns="http://www.w3.org/2000/svg">
<path d="M2.04858 0.0521545C2.04858 0.589636 2.07286 1.09952 2.20499 1.61874C2.2933 1.9658 2.39162 2.3101 2.45611 2.6648C2.46762 2.72813 2.4957 3.20167 2.56947 2.97011C2.64657 2.72808 2.6755 2.43953 2.69431 2.18765C2.73458 1.64827 2.83218 0.749167 2.4475 0.322428C2.28565 0.142892 2.06593 0.235457 1.90939 0.352458C1.45622 0.691166 1.02221 1.20102 0.73129 1.72718C0.614221 1.93891 0.520487 2.2156 0.536136 2.47461C0.564968 2.95179 1.01536 2.709 1.21917 2.55469C1.54753 2.30607 1.79996 1.94621 2.01701 1.57369C2.17003 1.31106 2.55695 0.472603 2.40301 0.734512C2.04031 1.35164 1.72515 2.03538 1.44877 2.70817C1.28901 3.09706 1.1543 3.46484 1.07568 3.8827C1.0345 4.10158 1.06033 4.16942 1.04124 4.37653" stroke="#F5FFCB" stroke-linecap="round"/>
</svg>
