<svg width="4" height="5" viewBox="0 0 4 5" fill="none" xmlns="http://www.w3.org/2000/svg">
<path d="M2.22144 3.12107C2.49337 3.37842 2.74285 3.67271 2.98039 3.9761C3.0077 4.01098 3.46778 4.75398 3.39658 4.71752C3.26907 4.65222 3.07406 4.40839 3.01466 4.33784C2.63408 3.88583 2.32392 3.47234 1.97907 2.96561C1.60883 2.42157 1.23327 1.85317 0.965516 1.21968C0.851453 0.949817 0.511855 -0.0707242 1.1932 0.185281C2.0972 0.524946 2.96994 1.70821 3.36231 2.72046C3.4212 2.8724 3.5926 3.4913 3.49941 3.73095C3.33453 4.15495 2.51277 3.47198 2.41485 3.40508C2.29008 3.31985 1.55973 2.90772 1.52371 2.62181C1.51266 2.53411 1.62136 2.64894 1.63877 2.66067C2.22653 3.05667 2.79257 3.50555 3.3672 3.92826" stroke="#F5FFCB" stroke-linecap="round"/>
</svg>
