<svg width="5" height="7" viewBox="0 0 5 7" fill="none" xmlns="http://www.w3.org/2000/svg">
<path d="M1.93263 4.14375C2.17105 4.46443 2.40015 4.79428 2.63266 5.12074C2.77571 5.32159 2.91846 5.52279 3.0618 5.72333C3.16558 5.86852 3.26733 6.02059 3.41217 6.1138C3.76833 6.34304 3.935 5.7928 4.02789 5.48952C4.28242 4.65848 4.15102 3.72552 3.76944 2.97071C3.66797 2.76999 3.53106 2.56681 3.31473 2.54327C3.12519 2.52266 2.91143 2.62184 2.76051 2.74574C2.22139 3.18833 2.29604 4.14329 2.6603 4.70054C2.96062 5.15996 3.5557 5.42025 3.96293 5.00344C4.16315 4.79851 4.26122 4.52998 4.31122 4.22891C4.38786 3.76741 4.38659 3.27839 4.35959 2.81163C4.34349 2.53319 4.33511 2.11884 4.15643 1.89248C4.04032 1.7454 3.8602 1.74077 3.72452 1.84427C3.44693 2.05603 3.21624 2.48314 3.14335 2.85341C3.06805 3.2359 3.11745 3.96805 3.56281 4.05697C4.05864 4.15598 4.31193 3.30629 4.37203 2.90483C4.39732 2.73595 4.392 2.55959 4.3672 2.39062C4.32519 2.10444 4.21933 1.97536 4.05415 1.78401C3.93236 1.64293 3.73481 1.42976 3.55107 1.39916C3.36111 1.36753 3.23046 1.59403 3.14818 1.75027C3.03929 1.95706 2.92449 2.23425 2.97473 2.48703C3.01546 2.69198 3.17168 2.83002 3.34513 2.8526C3.77102 2.90806 4.08558 2.41813 4.27045 2.04353C4.34073 1.90112 4.48137 1.63738 4.44597 1.4538C4.41205 1.27781 4.17476 1.18268 4.05069 1.13161C3.87153 1.05787 3.65577 0.956538 3.46399 0.950837C3.27361 0.945177 2.83258 1.07481 2.85725 1.37506C2.88243 1.68154 3.13713 2.00192 3.40456 2.02103C3.64086 2.03791 3.90346 1.87602 4.04724 1.66109C4.23147 1.38569 3.78055 1.1769 3.6257 1.1292C3.04133 0.949194 2.4211 1.12847 1.97133 1.60163C1.56017 2.03417 1.39971 2.71883 1.45442 3.34672C1.4618 3.43142 1.4789 3.65426 1.58019 3.68498C1.67847 3.71478 1.81071 3.57057 1.87182 3.50902C2.18865 3.1899 2.44541 2.76027 2.65408 2.34081C2.68873 2.27116 2.92643 1.86773 2.80059 1.79125C2.54777 1.6376 2.19904 1.75224 2.00035 1.968C1.77708 2.21046 1.70266 2.56182 1.66934 2.90081C1.64157 3.18334 1.6276 3.55097 1.73361 3.82076C1.89618 4.23449 2.38711 3.56615 2.48961 3.40939C2.71583 3.06348 2.90799 2.50816 2.81441 2.06603C2.73359 1.6842 2.37504 1.32985 2.03076 1.35256C1.66994 1.37637 1.34768 1.76511 1.2015 2.12227C1.10106 2.36766 1.05554 2.68621 1.0854 2.95705C1.09764 3.06803 1.14821 3.05125 1.22223 2.99803C1.39661 2.87265 1.55261 2.69887 1.69422 2.52881C1.96826 2.1997 2.1637 1.82743 2.26641 1.3839C2.31137 1.18972 2.31152 0.990653 2.24567 0.802199C2.16641 0.575359 2.01641 0.39573 1.82828 0.288794C1.71363 0.223624 1.55981 0.133359 1.43093 0.113642C1.25589 0.0868645 1.12461 0.226289 1.02805 0.377977C0.944942 0.508518 0.8645 0.648464 0.812438 0.799788C0.758332 0.957057 0.699118 1.10732 0.633457 1.25856C0.627037 1.27335 0.525856 1.55715 0.536019 1.55583C0.551591 1.55382 0.586447 1.48946 0.590612 1.48272C0.648754 1.38861 0.702116 1.28981 0.753008 1.19026C0.757796 1.1809 0.895745 0.931908 0.867722 0.905844C0.827749 0.868664 0.53552 0.922102 0.515978 0.984582C0.500947 1.03264 0.561127 1.11813 0.577482 1.15331C0.629972 1.26621 0.677302 1.37866 0.733659 1.48915C0.914642 1.84398 0.986169 2.28388 0.987274 2.69111C0.98787 2.91075 0.986646 3.1331 0.937518 3.34672C0.936555 3.35091 0.893531 3.52991 0.887763 3.52991C0.877627 3.52991 0.887763 3.50634 0.887763 3.49456C0.887763 3.44316 0.887489 3.39162 0.884999 3.3403C0.880441 3.24635 0.881681 3.10236 0.835243 3.01892C0.790833 2.93912 0.643805 2.97175 0.582319 2.99803C0.570735 3.00298 0.46006 3.03217 0.500775 3.05909C1.25428 3.55724 2.07044 3.9639 2.74254 4.60975C2.90369 4.7646 3.05048 4.93414 3.17375 5.13038C3.32008 5.36333 3.50737 5.55443 3.66854 5.77314C3.92831 6.12564 4.1877 6.47636 4.47016 6.80477" stroke="#F5FFCB" stroke-linecap="round"/>
</svg>
