<svg width="5" height="8" viewBox="0 0 5 8" fill="none" xmlns="http://www.w3.org/2000/svg">
<path d="M3.5229 7.95537C3.01332 7.29946 2.50807 6.61614 2.10034 5.85922C2.05787 5.78038 2.01267 5.69534 1.98335 5.60645C1.98238 5.60351 1.97378 5.57522 1.98095 5.57129C1.99996 5.56084 2.06266 5.56835 2.07335 5.56835C2.29934 5.56835 2.52969 5.57655 2.74712 5.6614C3.12531 5.80899 3.3535 6.14686 3.4209 6.62485C3.46056 6.90609 3.45163 7.55828 3.06571 7.36924C2.74767 7.21344 2.49835 6.77678 2.31574 6.44901C2.17128 6.18973 1.97796 5.77339 1.87775 5.48044C1.80809 5.27678 1.72824 4.96264 1.72896 4.73019C1.72966 4.50066 1.81619 4.26812 2.01755 4.22685C2.34494 4.15975 2.61512 4.52263 2.74892 4.83936C2.85582 5.09238 2.93096 5.41931 2.89532 5.70756C2.88483 5.79236 2.84238 5.92742 2.75612 5.94787C2.66327 5.96989 2.50943 5.8664 2.44653 5.81599C2.18219 5.60416 1.95911 5.29002 1.82015 4.94413C1.7526 4.77597 1.58714 4.36362 1.75056 4.19535C1.89982 4.04165 2.17065 4.12348 2.32414 4.19755C2.68762 4.37295 2.95694 4.73046 3.07591 5.18297C3.09833 5.26822 3.11306 5.35661 3.12331 5.44527C3.12477 5.45791 3.14078 5.69914 3.11011 5.74419C3.03238 5.8584 2.67436 5.19149 2.66133 5.16686C2.50242 4.86637 2.38196 4.54721 2.30674 4.20121C2.23515 3.87192 2.17516 3.47286 2.32234 3.15936C2.43673 2.91569 2.65837 2.78871 2.88032 2.7608C3.16169 2.72541 3.3397 2.88585 3.4551 3.19307C3.53971 3.4183 3.58453 3.67442 3.5685 3.9228C3.55818 4.08254 3.50781 4.29197 3.3405 4.24517C3.11574 4.1823 2.8839 3.94245 2.72732 3.74842C2.53119 3.50538 2.42948 3.18728 2.36134 2.8619C2.32228 2.6754 2.27953 2.44753 2.31994 2.25453C2.35964 2.06491 2.53792 2.01445 2.67273 1.97245C2.86477 1.91262 3.08728 1.86348 3.22291 2.08675C3.31798 2.24325 3.38182 2.47689 3.4293 2.65383C3.49697 2.90596 3.53817 3.09375 3.5673 3.35498C3.60055 3.65324 3.59297 3.95691 3.5877 4.25689C3.58668 4.31493 3.61077 4.61248 3.5589 4.67451C3.52786 4.71162 3.39844 4.57331 3.3813 4.54263C3.35642 4.49806 3.71004 4.44864 3.73049 4.44738C3.8319 4.44116 3.97745 4.43735 4.04248 4.55582C4.09845 4.65776 4.10917 4.80269 4.13848 4.91775C4.15564 4.98511 4.20328 5.06292 4.20328 5.13462C4.20328 5.1754 4.20328 5.21619 4.20328 5.25697C4.20328 5.28849 4.21476 5.19546 4.22248 5.16539C4.22508 5.15523 4.26943 5.05742 4.24768 5.05696C4.17934 5.05549 4.11537 5.10037 4.07068 5.16173C3.84906 5.46599 3.8054 5.9156 3.73169 6.29589C3.69853 6.46695 3.65833 6.62889 3.5961 6.7875C3.56505 6.86663 3.53097 6.95369 3.4593 6.98679C3.38717 7.0201 3.30139 7.0275 3.22591 7.03734C3.06926 7.05776 2.91208 7.06292 2.75612 7.03075C2.54274 6.98672 2.34411 6.88226 2.15194 6.76406C1.95414 6.64239 1.76119 6.50509 1.59816 6.32007C1.38832 6.08191 1.25162 5.77439 1.11938 5.46871C1.01928 5.23735 0.892376 5.00542 0.812186 4.76243C0.794573 4.70906 0.759388 4.61729 0.759388 4.55801C0.759388 4.52417 0.791665 4.48862 0.809186 4.46936C0.890476 4.38002 0.991718 4.3277 1.10018 4.31184C1.26781 4.28732 1.39417 4.35461 1.53936 4.43566C1.55399 4.44382 1.54551 4.39661 1.54416 4.37705C1.52767 4.13785 1.49944 3.89948 1.47156 3.66197C1.44449 3.43131 1.43243 3.15295 1.34977 2.93664C1.34517 2.92459 1.33297 2.89956 1.33057 2.92638C1.32115 3.03186 1.29875 3.13578 1.27777 3.23849C1.23317 3.4569 1.19647 3.75742 1.07738 3.94111C1.04108 3.99711 0.969614 3.90822 0.946582 3.8803C0.856187 3.77075 0.775066 3.65034 0.68499 3.54035C0.674829 3.52794 0.639521 3.50698 0.641192 3.4876C0.651838 3.36408 0.729646 3.23755 0.761788 3.1198C0.783491 3.04029 0.784075 3.01381 0.772587 2.93151C0.737992 2.68366 0.664393 2.45244 0.614193 2.20984C0.586155 2.07434 0.596193 1.93062 0.596193 1.79222C0.596193 1.67897 0.586883 1.55828 0.598593 1.44567C0.605311 1.38107 0.629473 1.32238 0.636992 1.25811C0.642397 1.2119 0.638221 1.16464 0.639992 1.11817C0.642738 1.04607 0.64871 0.975142 0.650191 0.902767C0.650639 0.880877 0.656543 0.801965 0.68379 0.866134C0.801488 1.14332 0.83414 1.51495 0.881784 1.8142C1.04304 2.82707 1.10979 3.85888 1.30657 4.86353C1.35262 5.09865 1.40712 5.331 1.45537 5.56542C1.50165 5.79031 1.56077 6.03033 1.56216 6.26438C1.56426 6.61651 1.43664 6.9949 1.32397 7.31429C1.28966 7.41156 1.18388 7.26664 1.13978 7.2271C0.988267 7.09127 0.912642 6.92396 0.869784 6.70105C0.852682 6.6121 0.832006 6.51828 0.903383 6.46513C0.941059 6.43708 1.01484 6.39749 0.954981 6.48125C0.879992 6.58618 0.797556 6.68416 0.717989 6.78384C0.663419 6.8522 0.595033 6.9638 0.512796 6.98532C0.378313 7.02051 0.380461 6.65186 0.3802 6.56624C0.379517 6.34189 0.437624 6.24972 0.603393 6.15595C0.774522 6.05915 1.05266 5.97854 1.14818 6.24826C1.20648 6.41292 1.20184 6.61584 1.19377 6.79043C1.18509 6.97835 1.17258 7.19341 1.09058 7.35898C0.927132 7.68898 0.644662 7.52103 0.502596 7.25494C0.376001 7.01782 0.345616 6.7196 0.338801 6.44315C0.33409 6.25201 0.336523 6.03374 0.426999 5.86801C0.598287 5.55426 0.946545 5.96163 1.05458 6.15009C1.17136 6.35382 1.22652 6.5803 1.26337 6.82121C1.28392 6.95557 1.28763 7.01404 1.31977 7.14651C1.39114 7.44064 1.34342 7.19623 1.42777 7.49379" stroke="#F5FFCB" stroke-linecap="round"/>
</svg>
