<svg width="2" height="3" viewBox="0 0 2 3" fill="none" xmlns="http://www.w3.org/2000/svg">
<path d="M1.36194 1.29971C1.37579 1.4125 1.39005 1.52926 1.38121 1.64358C1.37928 1.66853 1.3711 1.74015 1.34793 1.76123C1.32459 1.78246 1.28427 1.75598 1.26778 1.74251C1.12434 1.62537 0.998257 1.35195 1.09918 1.1489C1.14349 1.05974 1.22734 0.971883 1.31858 0.979377C1.42748 0.98832 1.5226 1.1126 1.57959 1.21415C1.70632 1.43994 1.73613 1.78087 1.59667 2.01098C1.57004 2.05492 1.54636 2.0505 1.51916 2.00937C1.43739 1.88571 1.3876 1.72663 1.33041 1.58582C1.27208 1.44222 1.21065 1.30088 1.14954 1.15906C1.14759 1.15455 1.10557 1.07207 1.11845 1.06334C1.12875 1.05635 1.16866 1.07321 1.16925 1.0735C1.21613 1.09642 1.26866 1.13462 1.30764 1.17136C1.41461 1.2722 1.52701 1.41489 1.57303 1.57406C1.59607 1.65375 1.5625 1.72769 1.48719 1.70241C1.44577 1.6885 1.4022 1.64369 1.37333 1.60935C1.30388 1.52677 1.24304 1.42781 1.19333 1.32645C1.15647 1.25127 1.12348 1.16649 1.10991 1.07965C1.10509 1.04887 1.11077 1.01967 1.11341 0.989003C1.11713 0.945896 1.12058 0.898722 1.10706 0.857446C1.0914 0.809639 1.05757 0.772869 1.03042 0.734981C0.969208 0.649554 0.927344 0.550113 0.877361 0.455289C0.853868 0.410719 0.821962 0.362855 0.821962 0.307688C0.821962 0.230768 0.821962 0.153849 0.821962 0.0769287C0.821962 0.0590291 0.821101 0.0407621 0.8224 0.0229155C0.825096 -0.0141198 0.863109 0.0264605 0.87123 0.0346808C0.951173 0.115604 1.01388 0.227006 1.0683 0.333625C1.10093 0.397556 1.12139 0.442883 1.14494 0.510906C1.16144 0.558555 1.16706 0.601079 1.17669 0.64995" stroke="#F5FFCB" stroke-linecap="round"/>
</svg>
