<svg width="13" height="18" viewBox="0 0 13 18" fill="none" xmlns="http://www.w3.org/2000/svg">
<path d="M5.34357 6.83243C4.64958 6.84523 3.82455 6.90754 3.20405 7.2979C2.97935 7.43926 2.85566 7.74851 2.73482 7.99527C2.61593 8.23806 2.47527 8.50205 2.42487 8.7794C2.38825 8.98096 2.54019 8.98936 2.67886 8.97459C3.17504 8.92175 3.65554 8.61028 4.0722 8.31726C4.67158 7.89576 5.22506 7.38135 5.65352 6.73233C5.84527 6.44188 6.10266 6.01908 6.02661 5.62287C5.94615 5.20364 5.50827 5.04665 5.1929 4.9889C4.52881 4.86728 3.86019 5.08252 3.25571 5.39097C2.18021 5.93977 1.12143 6.91461 0.685707 8.22217C0.577923 8.54561 0.49945 8.91099 0.628309 9.2432C0.755318 9.57063 0.992788 9.45958 1.21234 9.31494C1.71729 8.98226 2.18466 8.53113 2.6272 8.09871C3.09992 7.6368 3.54544 7.14013 3.90718 6.55548C3.96268 6.46578 4.53591 5.53524 4.16978 5.50608C3.48591 5.45163 2.85212 6.2054 2.51384 6.81074C2.33523 7.13036 2.23077 7.47678 2.24263 7.86013C2.24904 8.06703 2.27656 8.38548 2.4507 8.50579C2.70364 8.68053 3.06204 8.29284 3.22271 8.12874C3.66547 7.67651 4.06453 7.1289 4.36063 6.53546C4.4363 6.38379 4.6172 6.05148 4.4209 5.9115C4.16188 5.72679 3.73394 5.79612 3.45661 5.85143C2.52812 6.03662 1.6925 6.73116 1.39745 7.7984C1.31933 8.08095 1.22141 8.61359 1.5596 8.71767C2.1883 8.91116 2.88743 8.2575 3.28585 7.78506C3.56264 7.45683 3.80834 7.08978 4.02915 6.70897C4.10097 6.58511 4.32107 6.27672 4.28171 6.09168C4.24925 5.93908 4.08856 5.77816 3.98324 5.70128C3.63187 5.44481 3.231 5.44699 2.84388 5.59451C2.34101 5.78613 1.88026 6.14855 1.47206 6.53212C1.43951 6.56271 1.15247 6.79768 1.14489 6.88581C1.14275 6.91068 1.18292 6.86179 1.19942 6.84577C1.27622 6.77122 1.41086 6.62308 1.46919 6.55548C1.99551 5.94551 2.48717 5.28927 2.92424 4.59016C3.25361 4.06332 3.71633 3.3627 3.71633 2.66488C3.71633 2.4133 3.63894 2.03044 3.37768 1.98085C3.11027 1.93009 2.81099 2.16052 2.61142 2.33454C2.32911 2.58071 2.11557 2.91163 1.90829 3.23879C1.86281 3.31058 1.79852 3.4146 1.75618 3.49572C1.74509 3.51698 1.74261 3.58004 1.72749 3.56245C1.71165 3.54404 1.74103 3.51267 1.75044 3.48904C1.78725 3.39666 1.82906 3.31536 1.87672 3.22878C2.18608 2.66678 2.68117 2.0827 2.80083 1.41028C2.81814 1.31301 2.84772 0.914994 2.69178 0.933126C2.46604 0.959371 2.31504 1.28884 2.19815 1.47367C2.15814 1.53694 2.0519 1.64736 2.03744 1.72726C1.99751 1.94776 1.77929 2.05642 1.64713 2.18773C1.50968 2.32429 1.40784 2.55773 1.36588 2.75831C1.32629 2.94751 1.29135 3.19304 1.33144 3.38561C1.38448 3.64042 1.68038 3.61868 1.85089 3.61584C2.15192 3.61083 2.4541 3.56298 2.75348 3.53075C3.07438 3.49621 3.42956 3.49753 3.73499 3.36225C4.11112 3.19566 4.91048 2.09188 4.65623 2.45466C4.22137 3.07517 3.62242 3.5768 3.2715 4.2715C3.15645 4.49925 3.07009 4.80354 3.25141 5.02226C3.50953 5.33362 4.06025 5.13793 4.35776 5.07064C5.45771 4.82187 6.51706 4.38743 7.57923 3.98288C7.64222 3.95889 7.6332 3.95861 7.60506 4.0346C7.50341 4.3091 7.53174 4.18276 7.41278 4.56346C7.15554 5.38674 7.05761 6.23471 7.03826 7.10771C7.03539 7.23713 6.92009 8.42916 7.31377 8.25386C7.5191 8.16243 7.74557 7.90783 7.88918 7.74669C8.12855 7.47811 8.30848 7.24618 8.49617 6.92752C8.79012 6.42847 9.01759 5.84234 9.16486 5.26251C9.21971 5.04656 9.21859 4.95537 9.01275 4.98556C7.98285 5.13659 7.1289 6.16548 7.02965 7.35796C6.99259 7.80318 6.98049 8.76993 7.43717 8.98794C7.9587 9.23691 8.32023 7.89457 8.42442 7.57318C8.47757 7.40923 8.95916 6.16828 8.36703 6.38364C7.775 6.59896 7.16422 7.22715 6.8718 7.85513C6.59355 8.45268 6.65617 9.15915 6.87324 9.76539C6.94448 9.96438 7.09268 10.3864 7.3396 10.3493C7.68403 10.2976 8.00536 9.92003 8.21779 9.63526C8.54778 9.19289 8.81194 8.6532 8.94675 8.08703C9.01484 7.80105 9.01678 7.56164 8.75159 7.44638C8.46457 7.32163 8.10585 7.35 7.816 7.43804C7.30248 7.59403 6.96823 8.00321 6.7814 8.57419C6.61776 9.07428 6.50212 9.8705 6.83736 10.3226C7.24037 10.8662 7.92453 10.121 8.18622 9.78708C8.73618 9.08524 9.13768 8.15954 9.17347 7.19946C9.19333 6.66677 9.05888 6.18386 8.64397 5.91483C8.39178 5.75131 8.10742 5.70133 7.82318 5.72798C7.34906 5.77243 6.82143 5.90416 6.45997 6.29021C6.28478 6.47732 6.18813 6.72117 6.11414 6.97924C6.11246 6.98511 6.00058 7.35641 6.09405 7.17611C6.32324 6.73402 6.52487 6.25063 6.65799 5.75801C6.77054 5.34153 6.86168 4.80705 6.49871 4.51675C5.99627 4.1149 4.9808 4.07084 4.82842 4.92383C4.76984 5.25176 4.81945 5.6119 4.96475 5.90149C5.121 6.21292 5.315 6.16167 5.55595 6.00159C5.80577 5.83561 6.23914 5.53762 6.27055 5.15406C6.27561 5.09234 6.28972 5.00474 6.21603 5.00892C6.00133 5.02109 5.77512 5.13569 5.5746 5.21245C5.44162 5.26336 5.04718 5.50396 4.89874 5.41766C4.71435 5.31047 4.96121 4.68957 4.99918 4.58182C5.14197 4.17666 5.39133 3.76987 5.45406 3.33222C5.50887 2.94987 5.05963 3.29393 4.96905 3.35724C4.65716 3.57525 4.37935 3.84896 4.07794 4.08465C3.90139 4.22271 3.72507 4.35153 3.55992 4.50841C3.41998 4.64135 3.27735 4.77272 3.14092 4.91048C3.13235 4.91913 3.11511 4.95169 3.12513 4.94552C3.17573 4.91438 3.35062 4.77657 3.36333 4.767C3.90662 4.35829 4.49743 4.01921 5.14124 3.89445C5.48425 3.82799 4.44549 3.8815 4.09803 3.89779C3.69833 3.91653 3.28949 3.95643 2.9185 4.14471C2.90522 4.15145 2.53214 4.3509 2.66164 4.44001C2.75668 4.5054 2.96168 4.50264 3.03903 4.5034C3.38605 4.50685 3.65545 4.47516 4.00763 4.41999C4.95281 4.27191 5.87534 3.99374 6.80723 3.76599C7.42199 3.61575 8.04479 3.4769 8.67267 3.42565C9.03802 3.39583 9.42861 3.37617 9.66853 3.75598C10.023 4.31717 10.1483 5.10755 10.2626 5.77135C10.3719 6.40577 10.3635 7.17369 10.6185 7.76337C11.0405 8.73935 12.0752 7.95721 12.2514 7.18612C12.3813 6.61791 12.2161 6.17437 11.7779 5.88146C11.2559 5.53256 10.53 5.28613 9.92969 5.47105C8.88814 5.79187 8.62149 7.28194 8.83626 8.34396C8.88632 8.59153 8.9881 8.92996 9.26674 8.76438C9.66276 8.52905 9.93428 7.98962 10.1248 7.54648C10.1473 7.49426 10.4332 6.88734 10.1277 7.12606C9.65126 7.49838 9.28553 8.0894 9.06298 8.69765C8.80723 9.39663 8.79034 10.1729 8.79608 10.9199C8.80056 11.5036 8.8295 12.1055 8.93383 12.6783C8.93483 12.6838 8.99414 13.0007 9.04863 13.032C9.14347 13.0866 9.23099 12.8942 9.2897 12.7918C9.67367 12.1221 9.93569 11.3135 10.0674 10.5262C10.1454 10.0606 10.1776 9.46759 9.98135 9.02798C9.84336 8.71895 9.62133 8.92782 9.51068 9.13809C8.9562 10.1918 9.02964 11.6654 9.11464 12.8452C9.14696 13.2938 9.21138 13.7423 9.21795 14.1932C9.22004 14.3365 9.20246 14.4776 9.19212 14.6203C9.17539 14.8514 9.16777 15.0825 9.1663 15.3143C9.16616 15.3355 9.1663 15.3989 9.1663 15.3777C9.1663 15.1431 9.16576 14.9084 9.1663 14.6737C9.16869 13.63 9.18411 12.5872 9.20647 11.5439C9.20829 11.4591 9.28581 10.8304 9.20647 10.713C9.10398 10.5614 8.6259 10.9307 8.55213 10.9933C8.29772 11.2093 8.03598 11.4308 7.80883 11.6857C7.70084 11.8068 7.59835 11.9336 7.49601 12.061C7.38021 12.2053 7.40618 12.0543 7.42856 11.9192C7.51258 11.412 7.66938 10.9231 7.81744 10.4377C7.83941 10.3657 7.89283 10.1982 7.91645 10.1041C7.91788 10.0984 7.93674 10.0498 7.91932 10.0357C7.87031 9.99578 7.72013 10.0889 7.68542 10.1074C7.4637 10.2257 7.23863 10.3649 7.04256 10.5345C6.84794 10.7028 6.65901 11.0048 6.57477 11.2719C6.53659 11.393 6.53797 11.3701 6.5145 11.2436C6.47371 11.0237 6.42799 10.5138 6.22177 10.411C6.04537 10.3232 5.94699 10.9835 5.9276 11.1101C5.87493 11.454 5.84339 11.8319 5.86159 12.1812C5.86704 12.2856 5.95097 12.3733 5.97352 12.4781C6.02114 12.6996 5.97579 12.9959 5.95056 13.2189C5.91229 13.557 5.9334 13.9149 5.93908 14.2549C5.94398 14.5484 5.95417 14.8442 5.96491 15.1375C5.97064 15.2941 6.01337 15.4697 5.98643 15.6263C5.96979 15.7231 5.85076 15.65 5.83576 15.7198C5.82926 15.75 5.84213 15.6572 5.85155 15.628C5.971 15.2576 6.20209 14.925 6.41692 14.6253C6.81815 14.0655 7.30689 13.6466 7.63089 13.012C7.68091 12.914 8.11159 12.2193 7.82605 12.1845C7.72958 12.1728 7.61741 12.165 7.52471 12.2045C7.44727 12.2375 7.39291 12.309 7.30946 12.328C7.22382 12.3475 6.91933 12.2447 6.8675 12.3113C6.82374 12.3675 6.81735 12.5026 6.8101 12.5682C6.76611 12.9667 6.77784 13.3723 6.78427 13.7728C6.79298 14.3157 6.83601 14.8473 6.81584 15.3911C6.79357 15.9915 6.75968 16.5859 6.78427 17.1862C6.79074 17.3441 6.79001 17.502 6.79001 17.66C6.79001 17.8697 6.79563 17.716 6.80149 17.5599C6.85548 16.1206 6.75218 14.6604 6.60059 13.2322C6.59566 13.1857 6.61098 12.9183 6.57764 12.8752C6.56286 12.8561 6.52221 12.8663 6.51163 12.8318C6.50709 12.8171 6.51961 12.7904 6.52311 12.7818C6.66733 12.4278 6.7282 12.3081 6.89907 11.8709C7.18864 11.1299 7.5604 10.1486 7.77726 9.38501C7.90539 8.93383 8.13538 8.05073 8.07286 7.50311C7.91194 6.0937 5.57819 7.42795 5.1599 7.97358C5.03661 8.13441 5.01131 8.6513 5.14842 8.80776C5.29052 8.96992 5.55431 9.07296 5.73962 9.13142C5.80734 9.15278 5.98028 9.21658 6.05531 9.16812C6.22927 9.05576 6.03299 8.48785 5.97495 8.37065C5.92003 8.25975 5.64166 8.42399 5.58465 8.44406C5.03719 8.63671 4.48742 8.83777 3.95167 9.07136C3.72427 9.1705 3.53325 9.29492 3.32316 9.42839C2.88483 9.70684 2.39318 9.87249 1.92551 10.0757C1.79514 10.1324 1.65659 10.1908 1.54668 10.2926C1.487 10.3478 1.43188 10.4223 1.36588 10.4661C1.14251 10.6145 1.19535 10.9298 1.18507 11.1968C1.17964 11.338 1.10857 11.4821 1.05593 11.6073C0.925864 11.9166 0.789769 12.2224 0.648398 12.5249C0.567234 12.6985 0.506879 12.847 0.467594 13.0354C0.451978 13.1103 0.526524 12.9509 0.539342 12.9286" stroke="#F5FFCB" stroke-linecap="round"/>
</svg>
