<svg width="4" height="3" viewBox="0 0 4 3" fill="none" xmlns="http://www.w3.org/2000/svg">
<path d="M2.38209 1.78022C2.54083 1.85897 2.71231 2.00564 2.7575 2.22068C2.7774 2.31538 2.75163 2.43552 2.65451 2.43138C2.62161 2.42997 2.5882 2.41912 2.5591 2.40034C2.46827 2.34175 2.36343 2.20891 2.30273 2.11723C2.17913 1.93053 2.06134 1.704 2.01383 1.46799C1.98762 1.33779 1.99414 1.19248 2.07268 1.08878C2.13735 1.00339 2.24073 0.977514 2.33104 0.994595C2.48365 1.02346 2.62467 1.13396 2.73476 1.26192C2.89502 1.44817 2.99998 1.74612 2.94966 2.01923C2.93546 2.09628 2.90094 2.12523 2.83775 2.10308C2.71769 2.06099 2.60556 1.95337 2.51094 1.85917C2.42027 1.76889 2.32482 1.66493 2.25837 1.54557C2.22753 1.49017 2.24032 1.47062 2.29292 1.45955C2.52653 1.41038 2.76039 1.5019 2.93985 1.68712C3.02098 1.77087 3.08956 1.8751 3.13557 1.99201C3.14395 2.0133 3.15184 2.03511 3.15697 2.05789C3.15944 2.06883 3.16192 2.08157 3.15809 2.09192C3.15582 2.09804 3.14714 2.10075 3.14226 2.09763C3.12579 2.08712 3.1122 2.07061 3.09924 2.05435C3.03796 1.97744 2.98879 1.89186 2.94163 1.80118C2.8728 1.66882 2.78793 1.50531 2.77488 1.34358C2.76106 1.17212 2.94023 1.17273 3.03481 1.17916C3.12853 1.18553 3.21632 1.20986 3.30321 1.25157C3.31653 1.25796 3.33662 1.27004 3.34423 1.24722C3.35031 1.229 3.31729 1.26926 3.30589 1.28315C3.08167 1.55622 2.88175 1.85723 2.65807 2.13084C2.55487 2.25709 2.44382 2.39581 2.31009 2.47439C2.17994 2.55086 2.03353 2.54657 1.89501 2.51386C1.84271 2.50151 1.79277 2.47734 1.74052 2.46568C1.71679 2.46038 1.69018 2.45776 1.67632 2.48745C1.65357 2.53618 1.6593 2.60916 1.66205 2.66167C1.66535 2.72472 1.67414 2.78688 1.68434 2.84869C1.68598 2.85859 1.68951 2.88438 1.68256 2.87891C1.66345 2.86386 1.64641 2.84239 1.62817 2.82582C1.5898 2.79098 1.55066 2.75858 1.50645 2.73626C1.39552 2.68027 1.29938 2.59367 1.19592 2.52148C1.17634 2.50782 1.11948 2.46421 1.10006 2.48609C1.09192 2.49527 1.07705 2.49232 1.07398 2.50542C1.07103 2.51802 1.06389 2.53179 1.05414 2.537C1.02826 2.55083 0.993815 2.52995 0.969653 2.52012" stroke="#F5FFCB" stroke-linecap="round"/>
</svg>
