<svg width="3" height="4" viewBox="0 0 3 4" fill="none" xmlns="http://www.w3.org/2000/svg">
<path d="M1.41689 2.14397C1.35184 2.23694 1.3211 2.36855 1.29971 2.48282C1.26263 2.68092 1.25896 2.88414 1.29671 3.08326C1.33508 3.28562 1.40891 3.53099 1.56712 3.65072C1.66997 3.72856 1.74928 3.72439 1.8619 3.67207C2.08855 3.56676 2.27871 3.3119 2.41774 3.08947C2.60508 2.78974 2.72931 2.45438 2.79798 2.09351C2.85183 1.8105 2.88543 1.48308 2.81233 1.19847C2.72805 0.870329 2.42861 0.626187 2.1313 0.710194C1.92721 0.767862 1.76149 0.965296 1.65859 1.16975C1.53944 1.4065 1.50387 1.6779 1.51971 1.94757C1.53309 2.17531 1.57801 2.45692 1.708 2.64001C1.8245 2.80412 1.98776 2.79115 2.14065 2.71453C2.34291 2.61318 2.51254 2.42849 2.64141 2.22393C2.74697 2.05636 2.83192 1.85479 2.85573 1.64716C2.86372 1.57747 2.87247 1.48109 2.82402 1.42204C2.75201 1.33428 2.60588 1.44271 2.5466 1.48724C2.20499 1.74384 1.9822 2.17014 1.93634 2.63846C1.93016 2.70164 1.8991 3.2429 2.07121 3.05687C2.17935 2.93999 2.25879 2.76678 2.31825 2.61284C2.38733 2.43399 2.43473 2.24208 2.44411 2.04577C2.44685 1.98834 2.45189 1.90192 2.4174 1.84899C2.37278 1.78051 2.25241 1.82888 2.20274 1.84976C1.86032 1.99378 1.56756 2.32384 1.35413 2.65787C1.32901 2.69718 1.26802 2.82544 1.28402 2.78013C1.31329 2.69729 1.34651 2.61658 1.37416 2.53289C1.44442 2.32021 1.49911 2.08982 1.44093 1.86374C1.40143 1.71027 1.31141 1.58608 1.21358 1.47754C1.1128 1.36572 0.963149 1.21701 0.812979 1.2268C0.650539 1.23739 0.522987 1.41803 0.486152 1.59049C0.460865 1.70888 0.474414 1.83465 0.504513 1.94952C0.52318 2.02075 0.553341 2.12674 0.632373 2.13466C0.680142 2.13944 0.758724 2.10309 0.795953 2.07877C0.903498 2.0085 0.99433 1.89994 1.06703 1.78572C1.19631 1.5826 1.24377 1.34745 1.22493 1.09794C1.21442 0.958663 1.1897 0.736433 1.04099 0.709418C0.877834 0.679778 0.735662 0.839747 0.681447 1.00207C0.602154 1.23948 0.638284 1.50316 0.663753 1.74807C0.684951 1.9519 0.709171 2.15501 0.723176 2.35978C0.735554 2.54074 0.738548 2.72196 0.746545 2.90317C0.756285 3.12386 0.776615 3.34396 0.824329 3.55834C0.836976 3.61517 0.851894 3.67223 0.870733 3.72679C0.88319 3.76288 0.884025 3.75633 0.899109 3.71205C1.02596 3.33966 1.13219 2.9589 1.268 2.59033C1.30238 2.49703 1.34186 2.40629 1.37583 2.31281C1.3812 2.29804 1.38098 2.29017 1.38084 2.30388C1.37884 2.49166 1.38116 2.67543 1.41823 2.8597C1.44613 2.99842 1.48589 3.1355 1.53941 3.26375C1.57421 3.34714 1.61974 3.41583 1.66326 3.49236" stroke="#F5FFCB" stroke-linecap="round"/>
</svg>
