<svg width="5" height="9" viewBox="0 0 5 9" fill="none" xmlns="http://www.w3.org/2000/svg">
<path d="M1.04945 8.29895C1.63638 7.57966 2.21831 6.83032 2.68792 6.00028C2.73684 5.91381 2.78891 5.82056 2.82268 5.72309C2.8238 5.71986 2.8337 5.68884 2.82544 5.68452C2.80354 5.67306 2.73133 5.68131 2.71902 5.68131C2.45873 5.68131 2.19341 5.69029 1.94297 5.78334C1.50738 5.9452 1.24456 6.3157 1.16693 6.83988C1.12125 7.14829 1.13153 7.8635 1.57603 7.65619C1.94235 7.48534 2.22951 7.00649 2.43984 6.64705C2.60623 6.36271 2.82889 5.90616 2.9443 5.58489C3.02454 5.36156 3.11651 5.01707 3.11568 4.76216C3.11487 4.51046 3.01521 4.25544 2.78329 4.21019C2.4062 4.13661 2.09502 4.53455 1.9409 4.88187C1.81778 5.15935 1.73124 5.51786 1.77228 5.83396C1.78436 5.92696 1.83325 6.07507 1.93261 6.09749C2.03955 6.12163 2.21674 6.00815 2.28919 5.95287C2.59365 5.72057 2.8506 5.37608 3.01064 4.99677C3.08845 4.81236 3.27902 4.36017 3.09081 4.17564C2.91889 4.00709 2.60695 4.09683 2.43016 4.17805C2.01151 4.37041 1.70131 4.76245 1.56428 5.25869C1.53846 5.35218 1.5215 5.44911 1.50969 5.54633C1.508 5.56019 1.48957 5.82473 1.52489 5.87413C1.61441 5.99938 2.02679 5.26803 2.04179 5.24102C2.22482 4.9115 2.36356 4.5615 2.4502 4.18207C2.53266 3.82096 2.60175 3.38335 2.43224 3.03956C2.30048 2.77234 2.0452 2.6331 1.78956 2.60249C1.46548 2.56368 1.26046 2.73962 1.12754 3.07652C1.03009 3.32352 0.978456 3.60439 0.996927 3.87676C1.00881 4.05193 1.06682 4.28159 1.25953 4.23028C1.5184 4.16133 1.78543 3.89831 1.96578 3.68554C2.19168 3.41901 2.30883 3.07017 2.38732 2.71336C2.43231 2.50884 2.48154 2.25895 2.435 2.0473C2.38927 1.83936 2.18393 1.78403 2.02866 1.73797C1.80747 1.67236 1.55119 1.61847 1.39497 1.86331C1.28547 2.03494 1.21194 2.29115 1.15725 2.48518C1.07931 2.76167 1.03186 2.96761 0.998309 3.25408C0.960005 3.58116 0.968738 3.91417 0.974814 4.24313C0.975989 4.30678 0.948237 4.63308 1.00798 4.7011C1.04374 4.7418 1.1928 4.59013 1.21253 4.55648C1.2412 4.5076 0.833905 4.4534 0.810344 4.45203C0.693545 4.4452 0.525906 4.44103 0.450998 4.57094C0.386539 4.68273 0.374193 4.84167 0.34043 4.96784C0.320665 5.04171 0.265797 5.12704 0.265797 5.20566C0.265797 5.25039 0.265797 5.29511 0.265797 5.33984C0.265797 5.3744 0.252568 5.27239 0.243684 5.23941C0.240682 5.22827 0.189598 5.12101 0.214659 5.1205C0.293369 5.11889 0.367047 5.16811 0.418519 5.23539C0.673779 5.56905 0.724065 6.0621 0.808962 6.47913C0.847151 6.66673 0.893453 6.84431 0.965139 7.01825C1.0009 7.10502 1.04015 7.20049 1.1227 7.23678C1.20577 7.27332 1.30457 7.28143 1.39152 7.29222C1.57194 7.31461 1.75297 7.32028 1.93261 7.28499C2.17838 7.23672 2.40715 7.12216 2.62849 6.99254C2.85632 6.85912 3.07856 6.70855 3.26633 6.50565C3.50802 6.24448 3.66547 5.90725 3.81779 5.57204C3.93308 5.31832 4.07924 5.06398 4.17161 4.79751C4.19189 4.73898 4.23242 4.63836 4.23242 4.57335C4.23242 4.53623 4.19524 4.49725 4.17506 4.47613C4.08143 4.37816 3.96482 4.32078 3.8399 4.30339C3.64682 4.2765 3.50129 4.35029 3.33406 4.43917C3.31721 4.44812 3.32697 4.39635 3.32853 4.3749C3.34753 4.11259 3.38004 3.85118 3.41214 3.59073C3.44333 3.33778 3.45722 3.03252 3.55243 2.79531C3.55773 2.78211 3.57178 2.75465 3.57454 2.78407C3.58539 2.89974 3.61119 3.0137 3.63535 3.12634C3.68673 3.36584 3.729 3.6954 3.86616 3.89684C3.90797 3.95825 3.99028 3.86077 4.01681 3.83016C4.12093 3.71002 4.21436 3.57798 4.31811 3.45736C4.32981 3.44375 4.37048 3.42077 4.36856 3.39951C4.35629 3.26406 4.26668 3.1253 4.22965 2.99618C4.20466 2.90898 4.20398 2.87994 4.21722 2.78969C4.25706 2.5179 4.34183 2.26433 4.39965 1.99829C4.43195 1.84971 4.42038 1.6921 4.42038 1.54033C4.42038 1.41613 4.43111 1.28378 4.41762 1.16029C4.40988 1.08945 4.38205 1.02509 4.37339 0.954611C4.36717 0.90394 4.37198 0.852116 4.36994 0.801152C4.36677 0.722085 4.3599 0.644305 4.35819 0.564938C4.35767 0.540933 4.35087 0.454396 4.31949 0.524765C4.18393 0.828732 4.14632 1.23627 4.09145 1.56443C3.90571 2.67516 3.82883 3.80666 3.60218 4.90839C3.54914 5.16622 3.48637 5.42102 3.4308 5.67809C3.37749 5.9247 3.3094 6.18792 3.3078 6.44458C3.30538 6.83073 3.45237 7.24568 3.58214 7.59593C3.62166 7.70259 3.74349 7.54368 3.79429 7.50032C3.9688 7.35136 4.0559 7.16789 4.10527 6.92344C4.12496 6.8259 4.14878 6.72301 4.06657 6.66473C4.02317 6.63396 3.93819 6.59055 4.00714 6.6824C4.09351 6.79747 4.18846 6.90492 4.2801 7.01423C4.34296 7.0892 4.42172 7.21158 4.51644 7.23518C4.67134 7.27377 4.66886 6.8695 4.66916 6.7756C4.66995 6.52958 4.60302 6.4285 4.41209 6.32567C4.21499 6.21952 3.89463 6.13112 3.78462 6.42691C3.71746 6.60747 3.72281 6.83 3.7321 7.02146C3.7421 7.22753 3.75651 7.46338 3.85096 7.64494C4.03921 8.00682 4.36456 7.82265 4.52819 7.53085C4.674 7.27082 4.709 6.94378 4.71684 6.64063C4.72227 6.43101 4.71947 6.19165 4.61526 6.00992C4.41797 5.66585 4.01685 6.11257 3.89242 6.31924C3.75791 6.54266 3.69438 6.79102 3.65194 7.05521C3.62826 7.20256 3.624 7.26667 3.58698 7.41194C3.50478 7.73449 3.55974 7.46646 3.46259 7.79277" stroke="#F5FFCB" stroke-linecap="round"/>
</svg>
