<svg width="4" height="3" viewBox="0 0 4 3" fill="none" xmlns="http://www.w3.org/2000/svg">
<path d="M2.41638 0.0184326C2.01086 0.1705 1.50773 0.462812 1.31986 0.870842C1.19185 1.14885 1.20908 1.49483 1.26444 1.78791C1.30051 1.97891 1.37796 2.3431 1.62467 2.37114C2.00221 2.41404 2.48536 2.15117 2.78452 1.95021C3.02933 1.78577 3.23897 1.55158 3.36511 1.28385C3.5663 0.856845 3.2295 0.48749 2.77397 0.54756C1.93802 0.657795 1.32266 1.55969 1.26048 2.35398C1.2459 2.54018 1.26541 2.87674 1.49799 2.93985C1.77148 3.01406 2.07756 2.72301 2.25012 2.55719C2.60719 2.21405 2.75841 1.81646 2.58792 1.34059C2.36916 0.730031 1.52193 1.53491 1.35548 1.78395C1.20493 2.00921 1.09338 2.26813 1.04408 2.53476C1.03737 2.57102 0.971023 2.92978 1.11929 2.87387C1.21251 2.83872 1.3302 2.71799 1.38715 2.66143C1.56251 2.48726 1.70612 2.32213 1.86086 2.12703C2.06098 1.8747 2.38024 1.51721 2.39263 1.17037C2.40724 0.761233 1.79466 0.419319 1.43598 0.476306C1.01791 0.542727 0.716057 1.16771 0.656139 1.53984C0.602377 1.87373 0.711647 2.27654 1.12061 2.29065C1.33188 2.29793 1.48285 2.02044 1.58772 1.87896C1.72217 1.69755 1.86846 1.50533 1.95719 1.29573C2.10458 0.947536 1.61293 0.808564 1.35548 0.868203C1.08415 0.931061 0.830044 1.13371 0.666695 1.35379C0.543288 1.52005 0.563772 1.65648 0.563772 1.84729" stroke="#F5FFCB" stroke-linecap="round"/>
</svg>
