<svg width="2" height="4" viewBox="0 0 2 4" fill="none" xmlns="http://www.w3.org/2000/svg">
<path d="M0.786964 2.27991C0.84445 2.60002 0.87429 2.9605 0.803825 3.28083C0.787581 3.35468 0.76992 3.43448 0.727011 3.49017C0.646095 3.59518 0.534538 3.50098 0.475962 3.43412C0.320349 3.25649 0.214954 2.97934 0.14482 2.73919C0.0909389 2.5547 0.0498782 2.34962 0.104071 2.15637C0.147409 2.00183 0.25086 1.85198 0.370577 1.77888C0.688599 1.58471 0.925591 2.05356 1.04035 2.34397C1.16143 2.65037 1.2232 2.99652 1.18555 3.33631C1.18484 3.34273 1.17358 3.49124 1.13544 3.48216C1.071 3.46682 0.983943 3.25209 0.964478 3.21105C0.778614 2.81925 0.668971 2.38076 0.597271 1.93846C0.562379 1.72321 0.53248 1.52156 0.459569 1.32018C0.415751 1.19915 0.378406 1.0622 0.304536 0.962133C0.284017 0.934336 0.209199 0.893274 0.20524 0.854606C0.197337 0.777395 0.160247 0.70006 0.141541 0.625825C0.139355 0.617148 0.110688 0.534883 0.122806 0.521729C0.139646 0.50345 0.259313 0.598785 0.281117 0.612098" stroke="#F5FFCB" stroke-linecap="round"/>
</svg>
