<svg width="3" height="6" viewBox="0 0 3 6" fill="none" xmlns="http://www.w3.org/2000/svg">
<path d="M1.47815 4.11716C1.49189 4.26014 1.51504 4.40225 1.51936 4.54612C1.52226 4.64248 1.53311 4.74703 1.49969 4.83439C1.48694 4.86772 1.42845 4.86222 1.4093 4.83381C1.35277 4.74995 1.32227 4.64188 1.29923 4.53697C1.23762 4.25651 1.2076 3.82893 1.22803 3.53719C1.23492 3.43897 1.24983 3.33814 1.28611 3.25007C1.3417 3.11515 1.42728 3.16933 1.50719 3.21175C1.66592 3.29603 1.79113 3.44852 1.8669 3.639C1.96744 3.89174 1.99308 4.18348 1.98399 4.46033C1.97859 4.62495 1.96601 4.9005 1.84442 5.01855C1.73019 5.12946 1.56469 5.03794 1.46316 4.96021C1.26591 4.80921 1.12189 4.57665 1.00883 4.33221C0.77282 3.82193 0.591663 3.20386 0.813054 2.64037C0.879291 2.47178 0.988892 2.29013 1.13483 2.21484C1.27681 2.14159 1.41388 2.21427 1.52405 2.33152C1.83575 2.66323 1.94816 3.25406 1.82475 3.73052C1.71015 4.17294 1.2939 3.82429 1.1456 3.60926C0.980575 3.36998 0.886618 3.07023 0.828978 2.76963C0.768572 2.45461 0.739897 2.11297 0.77652 1.79045C0.802615 1.56064 0.869815 1.34828 1.02289 1.20305C1.1422 1.08986 1.2997 1.03152 1.45098 1.0572C1.77693 1.11254 2.07447 1.48663 2.08329 1.8934C2.08718 2.07303 2.03586 2.26977 1.94933 2.41445C1.85538 2.57155 1.73615 2.61123 1.58494 2.53971C1.18383 2.34999 0.885094 1.85198 0.799002 1.35005C0.754288 1.08935 0.715523 0.672831 0.933895 0.504698C1.13141 0.352624 1.42693 0.343397 1.60274 0.545879C1.79318 0.765216 1.85075 1.12353 1.91655 1.41982" stroke="#F5FFCB" stroke-linecap="round"/>
</svg>
