<svg width="11" height="16" viewBox="0 0 11 16" fill="none" xmlns="http://www.w3.org/2000/svg">
<path d="M6.13583 5.93966C6.73836 5.95134 7.45467 6.00815 7.99339 6.36412C8.18849 6.49303 8.29588 6.77503 8.40079 7.00005C8.50401 7.22144 8.62614 7.46217 8.66989 7.71509C8.70169 7.8989 8.56977 7.90655 8.44938 7.89309C8.01859 7.8449 7.60141 7.56087 7.23965 7.29367C6.71927 6.9093 6.23872 6.44022 5.86672 5.84838C5.70025 5.58352 5.47678 5.19797 5.5428 4.83667C5.61266 4.45437 5.99283 4.31122 6.26664 4.25855C6.84321 4.14765 7.42373 4.34393 7.94854 4.6252C8.88231 5.12565 9.80157 6.0146 10.1799 7.20695C10.2734 7.5019 10.3416 7.83509 10.2297 8.13803C10.1194 8.43661 9.91325 8.33535 9.72264 8.20344C9.28423 7.90008 8.87845 7.48869 8.49423 7.09437C8.0838 6.67316 7.697 6.22025 7.38293 5.68711C7.33474 5.60532 6.83706 4.75676 7.15494 4.73017C7.74868 4.68051 8.29895 5.36788 8.59265 5.91988C8.74773 6.21134 8.83841 6.52723 8.82812 6.87682C8.82256 7.06549 8.79866 7.35587 8.64747 7.46558C8.42786 7.62493 8.11669 7.2714 7.9772 7.12176C7.59279 6.70937 7.24632 6.21001 6.98924 5.66885C6.92354 5.53055 6.76647 5.22752 6.93691 5.09986C7.16179 4.93143 7.53334 4.99465 7.77412 5.0451C8.58025 5.21397 9.30575 5.84731 9.56192 6.82053C9.62974 7.07818 9.71476 7.56389 9.42114 7.6588C8.87529 7.83524 8.2683 7.23917 7.92238 6.80836C7.68206 6.50905 7.46874 6.17434 7.27703 5.82708C7.21467 5.71413 7.02359 5.43291 7.05776 5.26417C7.08594 5.12502 7.22545 4.97828 7.3169 4.90817C7.62196 4.6743 7.97 4.67629 8.3061 4.81081C8.7427 4.98554 9.14273 5.31603 9.49714 5.66581C9.5254 5.69371 9.77461 5.90797 9.78119 5.98834C9.78305 6.01102 9.74818 5.96644 9.73385 5.95183C9.66718 5.88384 9.55027 5.74875 9.49963 5.68711C9.04267 5.13088 8.61581 4.53246 8.23634 3.89495C7.95037 3.41452 7.54862 2.77563 7.54862 2.13929C7.54862 1.90988 7.61582 1.56076 7.84265 1.51553C8.07482 1.46924 8.33466 1.67937 8.50793 1.83806C8.75303 2.06254 8.93844 2.3643 9.1184 2.66264C9.15789 2.7281 9.21371 2.82296 9.25046 2.89693C9.26009 2.91632 9.26224 2.97382 9.27538 2.95779C9.28913 2.941 9.26361 2.91239 9.25544 2.89085C9.22349 2.8066 9.18719 2.73246 9.14581 2.65351C8.87721 2.14102 8.44737 1.60841 8.34348 0.995227C8.32845 0.906527 8.30277 0.543584 8.43816 0.560118C8.63415 0.58405 8.76525 0.884491 8.86674 1.05304C8.90148 1.11074 8.99371 1.21142 9.00627 1.28429C9.04094 1.48535 9.2304 1.58444 9.34514 1.70418C9.46448 1.82871 9.5529 2.04159 9.58933 2.22449C9.6237 2.39702 9.65404 2.62092 9.61923 2.79652C9.57318 3.02888 9.31627 3.00906 9.16823 3.00647C8.90687 3.0019 8.64452 2.95827 8.38459 2.92888C8.10598 2.89738 7.79761 2.89858 7.53243 2.77522C7.20587 2.62331 6.51185 1.61678 6.73259 1.9476C7.11015 2.51343 7.63016 2.97087 7.93484 3.60436C8.03472 3.81205 8.10971 4.08953 7.95228 4.28898C7.72817 4.57291 7.25003 4.39446 6.99173 4.3331C6.03674 4.10624 5.11698 3.71007 4.19479 3.34117C4.14011 3.31929 4.14793 3.31904 4.17236 3.38833C4.26062 3.63865 4.23603 3.52344 4.33931 3.8706C4.56265 4.62135 4.64767 5.3946 4.66448 6.19068C4.66697 6.3087 4.76707 7.39571 4.42527 7.23586C4.247 7.15248 4.05037 6.92031 3.92568 6.77336C3.71786 6.52845 3.56165 6.31695 3.39869 6.02637C3.14348 5.57129 2.94598 5.0368 2.81812 4.50805C2.7705 4.31113 2.77147 4.22798 2.95018 4.25551C3.84437 4.39323 4.58577 5.33147 4.67195 6.41889C4.70412 6.82488 4.71463 7.70645 4.31813 7.90526C3.86533 8.13229 3.55144 6.90822 3.46098 6.61514C3.41484 6.46564 2.99671 5.33402 3.51082 5.53041C4.02482 5.72676 4.55511 6.2996 4.80899 6.87225C5.05057 7.41716 4.99621 8.06138 4.80775 8.61421C4.74589 8.79567 4.61722 9.18047 4.40285 9.14669C4.1038 9.09957 3.82482 8.75523 3.64038 8.49555C3.35388 8.09215 3.12453 7.60001 3.00749 7.08372C2.94837 6.82294 2.94668 6.60462 3.17693 6.49952C3.42613 6.38576 3.73757 6.41163 3.98922 6.49191C4.43507 6.63415 4.72527 7.00728 4.88748 7.52796C5.02955 7.98399 5.12996 8.71005 4.83889 9.12235C4.489 9.61799 3.89499 8.93853 3.66779 8.63399C3.19031 7.99398 2.84172 7.14985 2.81065 6.27436C2.7934 5.7886 2.91014 5.34823 3.27037 5.10291C3.48932 4.95379 3.73621 4.90821 3.98299 4.93251C4.39463 4.97305 4.85273 5.09318 5.16655 5.44521C5.31866 5.61584 5.40257 5.8382 5.4668 6.07354C5.46827 6.07889 5.5654 6.41747 5.48425 6.25306C5.28526 5.84992 5.1102 5.40912 4.99463 4.9599C4.89691 4.58011 4.81778 4.09273 5.13292 3.828C5.56915 3.46156 6.45079 3.42138 6.58309 4.19922C6.63395 4.49826 6.59088 4.82667 6.46473 5.09074C6.32907 5.37473 6.16064 5.328 5.95144 5.18202C5.73454 5.03066 5.35829 4.75893 5.33101 4.40917C5.32662 4.35288 5.31437 4.273 5.37835 4.27681C5.56475 4.28791 5.76115 4.39241 5.93525 4.46241C6.05071 4.50884 6.39316 4.72823 6.52204 4.64954C6.68213 4.5518 6.4678 3.98559 6.43483 3.88734C6.31086 3.51788 6.09437 3.14693 6.0399 2.74784C5.99231 2.39918 6.38236 2.71293 6.461 2.77066C6.73179 2.96946 6.97298 3.21905 7.23467 3.43397C7.38796 3.55987 7.54104 3.67734 7.68442 3.8204C7.80592 3.94162 7.92975 4.06143 8.04821 4.18705C8.05565 4.19493 8.07062 4.22462 8.06192 4.219C8.01799 4.1906 7.86614 4.06493 7.8551 4.05621C7.38342 3.68351 6.87046 3.3743 6.31149 3.26054C6.01369 3.19993 6.91556 3.24873 7.21723 3.26358C7.56425 3.28067 7.91922 3.31705 8.24132 3.48874C8.25285 3.49489 8.57676 3.67677 8.46433 3.75802C8.38182 3.81765 8.20383 3.81513 8.13667 3.81583C7.83538 3.81898 7.60148 3.79008 7.29572 3.73977C6.4751 3.60473 5.67414 3.35107 4.86506 3.14339C4.33132 3.00639 3.79059 2.87977 3.24545 2.83303C2.92825 2.80584 2.58913 2.78791 2.38083 3.13426C2.07305 3.64601 1.96431 4.36676 1.86504 4.97207C1.77017 5.5506 1.77744 6.25085 1.55607 6.78858C1.18968 7.67857 0.291287 6.96534 0.138292 6.26219C0.025552 5.74404 0.168964 5.33958 0.549423 5.07248C1.00262 4.75432 1.63285 4.5296 2.15408 4.69822C3.05838 4.99078 3.28989 6.34957 3.10342 7.31801C3.05995 7.54377 2.97159 7.85239 2.72967 7.7014C2.38583 7.4868 2.1501 6.99489 1.98465 6.5908C1.96515 6.54318 1.71693 5.98973 1.98215 6.20742C2.39582 6.54694 2.71336 7.08588 2.90658 7.64054C3.12862 8.27794 3.14329 8.98581 3.13831 9.667C3.13441 10.1992 3.10928 10.7482 3.0187 11.2705C3.01784 11.2755 2.96634 11.5644 2.91904 11.593C2.83669 11.6428 2.7607 11.4673 2.70973 11.374C2.37636 10.7633 2.14888 10.0259 2.03448 9.30795C1.96683 8.88341 1.9388 8.34265 2.10923 7.94177C2.22903 7.65997 2.4218 7.85043 2.51787 8.04218C2.99929 9.00308 2.93552 10.3468 2.86173 11.4226C2.83366 11.8318 2.77773 12.2407 2.77202 12.6519C2.77021 12.7826 2.78548 12.9113 2.79445 13.0414C2.80898 13.2521 2.81559 13.4629 2.81688 13.6743C2.81699 13.6935 2.81688 13.7513 2.81688 13.7321C2.81688 13.5181 2.81734 13.3041 2.81688 13.0901C2.8148 12.1384 2.80141 11.1874 2.78199 10.236C2.78041 10.1587 2.71311 9.58539 2.78199 9.47835C2.87098 9.34004 3.28605 9.67681 3.3501 9.73394C3.57099 9.93093 3.79824 10.1329 3.99545 10.3653C4.08921 10.4758 4.17819 10.5913 4.26705 10.7076C4.36758 10.8391 4.34503 10.7015 4.3256 10.5783C4.25266 10.1158 4.11652 9.66994 3.98798 9.22732C3.9689 9.16165 3.92252 9.00891 3.90201 8.92305C3.90077 8.91784 3.8844 8.8736 3.89952 8.86067C3.94207 8.8243 4.07246 8.90921 4.1026 8.92609C4.2951 9.03395 4.49051 9.16092 4.66074 9.31556C4.82971 9.46906 4.99374 9.7444 5.06689 9.988C5.10003 10.0984 5.09883 10.0775 5.11921 9.96214C5.15462 9.76167 5.19432 9.29668 5.37337 9.20298C5.52652 9.12283 5.61193 9.72497 5.62877 9.84043C5.6745 10.154 5.70188 10.4986 5.68607 10.8171C5.68135 10.9124 5.60847 10.9923 5.5889 11.0879C5.54755 11.2899 5.58692 11.5601 5.60883 11.7634C5.64206 12.0718 5.62373 12.3981 5.6188 12.7082C5.61454 12.9758 5.60569 13.2456 5.59637 13.513C5.5914 13.6558 5.5543 13.816 5.57769 13.9588C5.59213 14.047 5.69548 13.9804 5.7085 14.044C5.71415 14.0716 5.70297 13.9869 5.6948 13.9603C5.59108 13.6226 5.39045 13.3193 5.20393 13.0459C4.85558 12.5355 4.43124 12.1535 4.14994 11.5748C4.10651 11.4854 3.73259 10.8519 3.9805 10.8202C4.06425 10.8095 4.16164 10.8024 4.24213 10.8384C4.30936 10.8685 4.35656 10.9337 4.42901 10.951C4.50337 10.9688 4.76773 10.8751 4.81273 10.9358C4.85072 10.9871 4.85627 11.1102 4.86257 11.1701C4.90075 11.5335 4.89057 11.9033 4.88499 12.2685C4.87742 12.7636 4.84007 13.2484 4.85758 13.7442C4.87692 14.2918 4.90634 14.8338 4.88499 15.3812C4.87938 15.5252 4.88001 15.6692 4.88001 15.8133C4.88001 16.0045 4.87512 15.8643 4.87004 15.722C4.82316 14.4095 4.91285 13.078 5.04446 11.7756C5.04875 11.7332 5.03544 11.4893 5.06439 11.45C5.07722 11.4326 5.11251 11.4419 5.1217 11.4105C5.12564 11.397 5.11477 11.3727 5.11174 11.3648C4.98652 11.042 4.93367 10.9329 4.78532 10.5342C4.53391 9.8585 4.21114 8.96368 4.02286 8.26734C3.91162 7.85591 3.71193 7.05062 3.76622 6.55124C3.90593 5.26602 5.93213 6.48271 6.2953 6.98027C6.40234 7.12692 6.42431 7.59828 6.30526 7.74095C6.18189 7.88882 5.95287 7.98279 5.79197 8.03609C5.73317 8.05558 5.58303 8.11376 5.51788 8.06956C5.36685 7.9671 5.53726 7.44923 5.58765 7.34235C5.63533 7.24122 5.87703 7.391 5.92652 7.40929C6.40184 7.58498 6.87916 7.76832 7.3443 7.98133C7.54174 8.07174 7.70758 8.18519 7.88999 8.3069C8.27055 8.56081 8.69741 8.71187 9.10345 8.89719C9.21663 8.94884 9.33693 9.00218 9.43235 9.09496C9.48417 9.14535 9.53203 9.2132 9.58933 9.25319C9.78326 9.38851 9.73738 9.67607 9.74631 9.91954C9.75103 10.0483 9.81273 10.1796 9.85844 10.2938C9.97136 10.5759 10.0895 10.8547 10.2123 11.1305C10.2827 11.2889 10.3351 11.4243 10.3692 11.5961C10.3828 11.6644 10.3181 11.5191 10.3069 11.4987" stroke="#F5FFCB" stroke-linecap="round"/>
</svg>
