<svg width="3" height="17" viewBox="0 0 3 17" fill="none" xmlns="http://www.w3.org/2000/svg">
<path d="M1.72514 2.67262C1.64655 3.39033 1.57357 4.10827 1.54436 4.83003C1.53613 5.03355 1.53287 5.2172 1.53644 5.41722C1.53698 5.44715 1.52144 5.48377 1.5404 5.50695C1.55388 5.52342 1.55522 5.46694 1.5602 5.44625C1.57723 5.37537 1.59194 5.30394 1.60638 5.23249C1.69162 4.81065 2.49064 1.0356 1.50873 1.25941C0.980038 1.37992 0.569612 1.81724 0.363391 2.30315C0.26036 2.54592 0.186823 2.87878 0.157546 3.13973C0.128903 3.39503 0.0895706 3.79897 0.236717 4.03568C0.490187 4.44344 1.12664 3.58026 1.229 3.43002C1.65325 2.80733 1.91483 2.04288 1.68819 1.29768C1.59998 1.00765 1.41913 0.60003 1.04822 0.705213C0.59964 0.832423 0.337945 1.26219 0.215605 1.68298C0.17151 1.83464 -0.126274 2.90771 0.28554 2.86923C0.54179 2.84528 0.775422 2.53481 0.909672 2.35593C1.16779 2.012 1.38431 1.61995 1.52853 1.21455C1.55428 1.14214 1.82473 0.233359 1.46123 0.41096C0.805768 0.731209 0.716724 1.65159 0.759247 2.27676C0.783143 2.62807 0.865027 3.08836 0.951897 3.43002C1.01496 3.67804 1.11122 4.11106 1.31345 4.3075C1.53195 4.51976 1.88808 3.27507 1.91647 3.13709C1.93154 3.06383 1.98198 2.88864 1.91119 2.91277C1.73898 2.97148 1.48307 3.5476 1.4322 3.64906C0.982105 4.54677 0.670855 5.53663 0.759247 6.55069C0.793374 6.94219 0.856068 7.2106 0.97169 7.58255C1.00285 7.6828 1.16625 8.32728 1.37942 8.34655C1.61248 8.36763 1.74817 7.62736 1.7634 7.56408C1.89889 7.00106 1.96223 6.42663 1.94682 5.84738C1.9392 5.5612 1.89213 5.12764 1.84653 4.83663C1.83756 4.77935 1.80729 4.38689 1.68159 4.34841C1.5748 4.31572 1.41261 4.50095 1.36359 4.55689C1.10868 4.84776 0.944883 5.19067 0.850294 5.565C0.641141 6.39272 0.711528 7.30183 1.13663 8.05098C1.14624 8.06791 1.35865 8.45742 1.46519 8.39274C1.61746 8.30029 1.70891 7.86606 1.74625 7.73166C1.82977 7.43098 1.88942 7.10788 1.93362 6.80008C1.99565 6.36808 2.06959 5.89787 2.02731 5.45944C1.9955 5.12967 1.73799 5.05612 1.45068 5.15859C0.993124 5.32179 0.745284 5.68001 0.743413 6.16275C0.742748 6.33432 0.825286 7.57441 1.19865 7.42421C1.5266 7.29227 1.65226 6.75167 1.73041 6.45172C1.7408 6.41185 1.8142 6.22402 1.72777 6.19573C1.59109 6.151 1.32907 6.17607 1.20261 6.22476C0.999989 6.30279 0.896313 6.43802 0.827862 6.64701C0.673963 7.11689 0.702639 7.66856 0.802791 8.14467C0.83334 8.28989 0.93651 8.79039 1.17358 8.47059C1.43631 8.11615 1.59592 7.62896 1.72646 7.2144C1.82118 6.91357 1.86562 6.70636 1.92702 6.4029C1.95845 6.24755 2.03997 5.98409 2.02335 5.81307C2.01935 5.77191 1.96591 5.87404 1.94682 5.91072C1.7761 6.23859 1.63579 6.58459 1.52985 6.93862C1.26972 7.80795 1.14039 8.73735 1.14719 9.64496C1.15036 10.0684 1.17673 10.4989 1.24615 10.917C1.28834 11.171 1.34808 11.4641 1.48762 11.6876C1.72746 12.0716 2.09821 11.6317 2.26086 11.4131C2.63404 10.9116 2.92528 10.2555 2.90215 9.61857C2.88941 9.26778 2.74534 8.92314 2.40337 8.78859C1.90806 8.59371 1.37691 8.93691 1.101 9.34015C0.643533 10.0088 0.617875 10.9425 0.743413 11.714C0.755396 11.7876 1.02994 13.0782 1.22768 12.9504C1.34916 12.8718 1.51993 12.5806 1.56679 12.503C1.8376 12.0549 2.05991 11.5811 2.216 11.0806C2.28144 10.8707 2.58239 10.1266 2.16586 10.0698C1.63487 9.99755 1.17044 10.3228 0.856892 10.7217C0.13495 11.6402 0.269618 12.7465 0.540207 13.8094C0.649963 14.2405 0.748398 14.5396 0.885921 14.9534C0.917395 15.0481 1.03927 15.5926 1.17622 15.6725C1.46336 15.8402 2.19343 14.0282 2.27406 13.8146C2.35532 13.5994 2.51626 13.2674 2.48254 13.0229C2.46182 12.8727 2.02845 12.9451 1.96265 12.9596C1.38568 13.087 0.926458 13.5217 0.694591 14.0548C0.36354 14.8159 0.524167 15.6673 0.826543 16.4101C0.838118 16.4386 0.905724 16.7177 1.04426 16.6569C1.11953 16.6239 1.17736 16.5566 1.22636 16.4906C1.4298 16.2166 1.69004 15.6813 1.80958 15.3954C2.16221 14.5523 2.45572 13.5976 2.48518 12.6746C2.48853 12.5697 2.2977 12.6644 2.2569 12.6799C1.72687 12.8803 1.33325 13.3592 1.23955 13.9189C1.16931 14.3385 1.2699 14.7714 1.35303 15.1817C1.36579 15.2446 1.36485 15.314 1.39789 15.369C1.44812 15.4527 1.51372 15.2088 1.547 15.117C1.70901 14.6703 1.8749 14.2066 1.98376 13.7434C1.99886 13.6791 1.98787 13.4083 1.84653 13.4716C1.59481 13.5842 1.4752 14.0819 1.40185 14.3029C1.31621 14.5609 1.24493 14.8264 1.23691 15.0999C1.23443 15.1845 1.2535 15.4038 1.31213 15.3426C1.40076 15.2502 1.48892 14.9384 1.5061 14.8835C1.72262 14.1902 1.87693 13.4755 2.02071 12.7643C2.12916 12.2278 2.24153 11.6798 2.29121 11.1334C2.31321 10.8913 2.30947 11.049 2.27142 10.9856" stroke="#F5FFCB" stroke-linecap="round"/>
</svg>
