<svg width="4" height="10" viewBox="0 0 4 10" fill="none" xmlns="http://www.w3.org/2000/svg">
<path d="M1.99422 0.942352C2.13422 1.73798 2.22157 2.54399 2.30024 3.35197C2.4343 4.72887 2.6333 6.21685 2.51813 7.60917C2.49102 7.93694 2.24287 7.85877 2.09215 7.68092C1.64182 7.14954 1.27341 6.49104 0.961075 5.83334C0.7148 5.31474 0.440653 4.62222 0.265785 4.05154C0.229531 3.93322 0.0831083 3.43156 0.12379 3.22043C0.206028 2.79362 0.779153 3.33516 0.848458 3.41774C1.49632 4.18974 1.80097 5.2871 1.94036 6.35353C2.03654 7.08942 2.04601 7.85581 2.01135 8.59873C1.98311 9.20415 1.86071 9.27314 1.54375 8.72429C1.10961 7.97253 -0.81564 4.20957 0.80439 3.79742C1.24808 3.68455 1.76256 3.85368 2.14601 4.12927C2.85852 4.64136 3.16392 5.54928 3.18894 6.52693C3.20874 7.30073 3.11795 8.49818 2.59648 9.05614C2.45155 9.2112 2.21378 9.29343 2.0236 9.24149C1.6186 9.13089 1.83391 9.01826 1.46541 8.79903" stroke="#F5FFCB" stroke-linecap="round"/>
</svg>
