<svg width="3" height="8" viewBox="0 0 3 8" fill="none" xmlns="http://www.w3.org/2000/svg">
<path d="M1.75654 4.97719C1.90993 5.40167 2.01292 5.86942 2.07784 6.32586C2.0971 6.46123 2.13202 6.72485 2.0741 6.87379C1.99473 7.07783 1.7852 7.05816 1.64834 6.9836C1.32334 6.80655 1.10548 6.37291 0.950931 6.00442C0.792961 5.62777 0.692386 5.31958 0.580914 4.91313C0.455582 4.45614 0.325983 3.94973 0.325181 3.46037C0.32503 3.36839 0.343792 3.17635 0.411362 3.10004C0.468014 3.03606 0.589527 3.0396 0.652108 3.07144C0.783736 3.13841 0.930067 3.32778 1.01276 3.44893C1.27042 3.82644 1.48819 4.26082 1.64225 4.71466C1.74642 5.02151 1.79704 5.2545 1.84459 5.57831C1.88568 5.8581 1.92036 6.17763 1.86707 6.46084C1.85446 6.52791 1.81254 6.65183 1.75466 6.68962C1.62013 6.77745 1.44652 6.62155 1.35701 6.5249C1.06273 6.20711 0.865447 5.74731 0.735479 5.30149C0.67407 5.09084 0.49535 4.47415 0.846015 4.47273C1.13341 4.47156 1.38375 4.73515 1.55888 4.98291C1.9449 5.52902 2.2638 6.21625 2.3865 6.92641C2.40059 7.00794 2.46145 7.47356 2.2755 7.22497C2.16726 7.08026 2.08605 6.89362 2.01789 6.7205C1.84173 6.27309 1.71549 5.79571 1.61415 5.31579C1.57975 5.15288 1.51873 4.81725 1.5083 4.63173C1.49975 4.47975 1.51059 4.29268 1.6268 4.20105C1.89676 3.98818 2.17242 4.58814 2.26051 4.79302C2.41934 5.16244 2.56524 5.62368 2.54528 6.05017C2.54229 6.11414 2.51589 6.25974 2.48065 6.31899C2.41248 6.4336 2.31329 6.34174 2.2563 6.27152C2.02271 5.98375 1.87992 5.56846 1.76684 5.19568C1.69018 4.94294 1.63166 4.7058 1.57902 4.44413C1.55617 4.3305 1.53425 4.21639 1.5186 4.10096C1.51222 4.05387 1.48093 3.77173 1.51017 3.69144C1.54608 3.59285 1.67196 3.70949 1.68722 3.72576C1.84672 3.89585 2.01275 4.19996 2.10501 4.41324C2.23586 4.71576 2.39514 5.2059 2.44599 5.548C2.507 5.95844 2.45781 6.36962 2.1748 6.63872C1.98421 6.81994 1.82747 6.86904 1.58839 6.82975C1.27789 6.77872 1.06726 6.53535 0.929386 6.20689C0.86895 6.06291 0.775506 5.71169 0.738289 5.54914C0.709111 5.42172 0.681962 5.28676 0.690983 5.15335C0.697582 5.05576 0.717561 5.04716 0.772012 5.13333C1.017 5.52105 1.1675 6.0189 1.25163 6.49287C1.27695 6.63555 1.30422 6.87422 1.30128 7.02936C1.30054 7.06837 1.29104 7.2056 1.24882 7.24213C1.21208 7.27392 1.13786 7.22743 1.11393 7.20781C0.995779 7.11096 0.907251 6.95443 0.833837 6.80973C0.638591 6.42488 0.528584 5.98159 0.414173 5.55372C0.392759 5.47364 0.366015 5.39428 0.349537 5.31235C0.342463 5.27718 0.343733 5.23705 0.331738 5.20368C0.292497 5.09453 0.250787 4.98762 0.209024 4.87996C0.126929 4.66832 0.133097 4.39917 0.129868 4.17245C0.125293 3.85119 0.108628 3.5304 0.0830308 3.21157C0.0696259 3.0446 0.0940358 2.88087 0.0956769 2.71454C0.0988199 2.39598 0.0872462 2.07796 0.0872462 1.75995C0.0872462 1.4319 0.0956769 1.10431 0.0956769 0.776764" stroke="#F5FFCB" stroke-linecap="round"/>
</svg>
