<svg width="5" height="10" viewBox="0 0 5 10" fill="none" xmlns="http://www.w3.org/2000/svg">
<path d="M1.96191 0.54068C1.80066 1.41318 1.70005 2.29706 1.60944 3.18311C1.45503 4.69305 1.22582 6.32479 1.35847 7.85163C1.3897 8.21107 1.67552 8.12535 1.84912 7.93032C2.3678 7.3476 2.79213 6.62548 3.15187 5.90423C3.43553 5.33552 3.75129 4.5761 3.9527 3.95027C3.99445 3.82052 4.1631 3.27039 4.11624 3.03886C4.02152 2.57082 3.36141 3.16468 3.28158 3.25524C2.53538 4.10182 2.18449 5.30521 2.02395 6.47468C1.91317 7.28167 1.90226 8.12211 1.94217 8.9368C1.9747 9.60072 2.11569 9.67638 2.48076 9.0745C2.98079 8.2501 5.19827 4.12357 3.33234 3.6716C2.82131 3.54782 2.22873 3.7333 1.78708 4.03551C0.966419 4.59708 0.614664 5.59272 0.585847 6.66483C0.56304 7.51339 0.667608 8.82654 1.26824 9.43841C1.43516 9.60845 1.70902 9.69862 1.92808 9.64167C2.39454 9.52039 2.14656 9.39687 2.57099 9.15646" stroke="#F5FFCB" stroke-linecap="round"/>
</svg>
