<svg width="2" height="2" viewBox="0 0 2 2" fill="none" xmlns="http://www.w3.org/2000/svg">
<path d="M0.949424 0.950562C0.970904 0.976791 0.989862 1.00619 1.00783 1.03604C1.03559 1.08214 1.07208 1.1465 1.09477 1.1961C1.11191 1.23357 1.15295 1.31381 1.12932 1.36161C1.11442 1.39178 1.08512 1.39705 1.05955 1.40081C0.997184 1.41001 0.932428 1.39526 0.876751 1.35944C0.805742 1.31376 0.731142 1.22296 0.724049 1.11988C0.720375 1.0665 0.751595 1.07478 0.778888 1.09865C0.839368 1.15155 0.891179 1.23019 0.920444 1.3137C0.92267 1.32006 0.93157 1.35075 0.93382 1.35944C0.935375 1.36544 0.941068 1.38173 0.936941 1.37795C0.921258 1.36358 0.909314 1.32679 0.897706 1.30826C0.863733 1.25403 0.820776 1.20742 0.774652 1.16888C0.727004 1.12907 0.665962 1.12631 0.611473 1.10763C0.580537 1.09703 0.551124 1.08828 0.519183 1.08286C0.499378 1.0795 0.483393 1.07249 0.465012 1.06408C0.447464 1.05604 0.501722 1.07332 0.520074 1.07796" stroke="#F5FFCB" stroke-linecap="round"/>
</svg>
