<svg width="3" height="6" viewBox="0 0 3 6" fill="none" xmlns="http://www.w3.org/2000/svg">
<path d="M1.34201 4.37972C1.32618 4.53652 1.29951 4.69236 1.29453 4.85013C1.2912 4.95579 1.2787 5.07045 1.31719 5.16624C1.33188 5.2028 1.39925 5.19677 1.42131 5.16562C1.48642 5.07365 1.52154 4.95514 1.54808 4.84009C1.61904 4.53253 1.65362 4.06364 1.63008 3.74372C1.62216 3.63601 1.60498 3.52544 1.56319 3.42886C1.49917 3.2809 1.4006 3.34031 1.30856 3.38684C1.12574 3.47925 0.98152 3.64648 0.894248 3.85537C0.778452 4.13253 0.748914 4.45245 0.759381 4.75605C0.765605 4.93658 0.780097 5.23875 0.920143 5.36821C1.05171 5.48982 1.24233 5.38946 1.35927 5.30423C1.58646 5.13864 1.75233 4.88361 1.88256 4.61555C2.15439 4.05597 2.36305 3.37818 2.10805 2.76025C2.03176 2.57537 1.90552 2.37617 1.73744 2.2936C1.57391 2.21328 1.41603 2.29298 1.28914 2.42155C0.930127 2.78531 0.800654 3.43323 0.942801 3.95572C1.0748 4.44089 1.55422 4.05856 1.72503 3.82275C1.9151 3.56035 2.02332 3.23164 2.08971 2.902C2.15929 2.55654 2.19231 2.18189 2.15013 1.82821C2.12008 1.5762 2.04268 1.34331 1.86637 1.18406C1.72895 1.05993 1.54754 0.995958 1.3733 1.02412C0.997873 1.0848 0.655173 1.49503 0.645014 1.94111C0.640527 2.1381 0.699647 2.35385 0.799302 2.5125C0.907517 2.68478 1.04485 2.72829 1.21901 2.64986C1.681 2.44181 2.02508 1.89568 2.12424 1.34525C2.17574 1.05937 2.22039 0.602608 1.96887 0.41823C1.74138 0.251463 1.401 0.241344 1.19851 0.463389C0.979161 0.703919 0.912853 1.09685 0.837065 1.42177" stroke="#F5FFCB" stroke-linecap="round"/>
</svg>
