<svg width="4" height="6" viewBox="0 0 4 6" fill="none" xmlns="http://www.w3.org/2000/svg">
<path d="M1.63779 4.03132C1.32459 4.31353 1.03725 4.63626 0.763654 4.96896C0.7322 5.00721 0.202279 5.822 0.284287 5.78201C0.431154 5.71041 0.65576 5.44302 0.724177 5.36565C1.16252 4.86997 1.51976 4.41653 1.91696 3.86084C2.34339 3.26424 2.77596 2.64092 3.08435 1.94622C3.21573 1.65028 3.60688 0.531137 2.82211 0.811877C1.7809 1.18436 0.775685 2.48195 0.323764 3.59201C0.255935 3.75862 0.0585182 4.43732 0.165855 4.70012C0.355759 5.16509 1.30225 4.41613 1.41503 4.34277C1.55874 4.2493 2.39995 3.79736 2.44144 3.48382C2.45416 3.38765 2.32896 3.51358 2.30891 3.52644C1.63194 3.96069 0.979984 4.45294 0.318125 4.9165" stroke="#F5FFCB" stroke-linecap="round"/>
</svg>
