<svg width="1" height="6" viewBox="0 0 1 6" fill="none" xmlns="http://www.w3.org/2000/svg">
<path d="M0.318672 0.475443C0.434933 0.472862 0.566311 0.448026 0.67979 0.484594C0.775234 0.51535 0.854775 0.629956 0.904142 0.728246C0.946432 0.812444 1.01271 0.908966 1.0011 1.01537C0.987423 1.14059 1.00393 1.26867 0.99126 1.394C0.983581 1.46995 0.965404 1.5549 0.937866 1.62393C0.918614 1.67218 0.897511 1.71456 0.888218 1.76806C0.873275 1.85408 0.895042 1.94108 0.906953 2.02544C0.922106 2.13276 0.934118 2.23823 0.934118 2.34745C0.934118 2.51066 0.94538 2.69489 0.915383 2.85363C0.869614 3.09582 0.87297 3.35053 0.853558 3.59774C0.847048 3.68063 0.839693 3.76764 0.82405 3.84882C0.797926 3.98441 0.811387 4.12467 0.797353 4.26177C0.792741 4.30683 0.783415 4.35117 0.777681 4.39618C0.76748 4.47626 0.758348 4.5565 0.750515 4.63698C0.734087 4.80576 0.703161 4.94957 0.655903 5.10827" stroke="#F5FFCB" stroke-linecap="round"/>
</svg>
