<svg width="5" height="10" viewBox="0 0 5 10" fill="none" xmlns="http://www.w3.org/2000/svg">
<path d="M1.2734 6.49046C1.37322 6.69354 1.62859 6.80188 1.8062 6.86326C2.32547 7.04269 2.8825 6.87579 3.25948 6.41815C3.61478 5.98681 3.77915 5.38472 3.76533 4.79598C3.75921 4.5356 3.71878 4.2742 3.61883 4.03913C3.54884 3.87454 3.42288 3.67369 3.23875 3.72177C3.05299 3.77028 2.91874 3.99886 2.84209 4.18295C2.69759 4.52997 2.66483 4.95511 2.73566 5.33028C2.83553 5.85923 3.26319 6.18959 3.70452 5.94813C4.10037 5.73154 4.47556 5.20853 4.44256 4.67466C4.42848 4.44692 4.32719 4.20112 4.10809 4.17331C3.79541 4.13362 3.50195 4.42915 3.34517 4.71162C2.92226 5.47353 3.07169 6.5786 3.54765 7.26177C3.67529 7.44498 3.85916 7.61801 4.07354 7.62653C4.35307 7.63765 4.55206 7.33715 4.65678 7.07376C4.921 6.40921 4.79945 5.52704 4.29951 5.0555C3.97463 4.74906 3.53688 4.62919 3.1268 4.6136C2.66262 4.59596 2.14222 4.68703 1.73295 4.95667C1.08421 5.38409 1.31341 6.36128 1.56779 7.00306C1.65402 7.22062 1.77274 7.49677 1.96238 7.62011C2.24463 7.80368 2.56522 7.46128 2.74534 7.24891C3.4011 6.47576 3.55069 5.36672 3.36728 4.32918C3.2973 3.93329 3.14036 3.38616 2.78404 3.21078C2.40844 3.0259 2.14068 3.55277 2.02941 3.87603C1.8533 4.38768 1.80721 4.9583 1.82693 5.50382C1.84771 6.07862 1.94742 6.70194 2.22913 7.18785C2.34176 7.38213 2.49879 7.56259 2.71908 7.54137C3.03241 7.51118 3.28369 7.18563 3.42257 6.88736C3.54643 6.62135 3.62586 6.31082 3.64439 6.00919C3.6623 5.71774 3.62203 5.35109 3.41497 5.15111C3.20036 4.94384 2.88879 5.0113 2.65827 5.13825C2.33893 5.31412 2.02083 5.64071 1.97758 6.07186C1.92974 6.54877 2.07804 7.09771 2.23811 7.52851C2.40955 7.98994 2.70395 8.37847 3.15582 8.44123C3.8375 8.53592 4.19848 7.6838 4.24699 7.02314C4.26177 6.82183 4.22413 5.42701 3.78744 5.89108C3.52236 6.17279 3.41588 6.68081 3.35899 7.07215C3.28842 7.55766 3.29026 8.09155 3.45436 8.55372C3.52245 8.74549 3.64219 8.96759 3.83443 9.00606C4.09973 9.05914 4.29593 8.76027 4.37276 8.50631C4.4933 8.10788 4.47349 7.6425 4.42044 7.23284C4.30371 6.33136 4.01444 5.42676 3.62435 4.6377C3.45799 4.30119 3.25085 3.95233 2.95127 3.76033C2.68564 3.59009 2.40774 3.61907 2.15795 3.81336C1.83248 4.06651 1.67787 4.47074 1.60027 4.90364C1.50153 5.45447 1.50783 6.03591 1.6597 6.57321C1.72417 6.80129 1.82954 7.09278 2.02388 7.21838C2.22048 7.34544 2.42438 7.14741 2.54908 6.9902C3.09631 6.30032 3.16419 5.28462 3.0183 4.40068C2.92695 3.84719 2.75096 3.30516 2.49518 2.82512C2.27094 2.40429 1.95172 1.98751 1.52356 1.85777C0.827833 1.64694 0.607154 2.72114 0.630729 3.31362C0.651076 3.82496 0.845594 4.46504 1.32523 4.60155C1.68786 4.70475 1.97339 4.37222 2.06811 3.99334C2.19394 3.49004 2.09998 2.84158 1.90571 2.37679C1.82907 2.19342 1.68858 1.95104 1.48763 1.95257C1.24328 1.95444 1.15816 2.38069 1.11723 2.58408C1.04734 2.93135 1.03001 3.28866 1.06471 3.64303C1.07738 3.77245 1.11883 4.00279 1.15731 4.13474C1.16725 4.16884 1.20591 4.28584 1.24991 4.30989C1.3221 4.34936 1.44235 4.23912 1.48763 4.19821C1.62948 4.07006 1.74329 3.90448 1.81242 3.71132C1.84805 3.61177 1.9463 3.25611 1.75299 3.27023C1.59659 3.28165 1.44812 3.43704 1.37153 3.58518C1.26842 3.78463 1.26322 4.03931 1.31763 4.25847C1.33908 4.34487 1.37581 4.40891 1.451 4.34444C1.61544 4.20347 1.71668 3.92399 1.7371 3.69526C1.78571 3.15079 1.53563 2.66071 1.14763 2.38483C0.977513 2.26387 0.811855 2.16355 0.619672 2.26511C0.593577 2.27891 0.563922 2.30356 0.533291 2.29565C0.478289 2.28143 0.452368 2.17886 0.439999 2.12933C0.389538 1.92725 0.371767 1.71882 0.352236 1.51068C0.323122 1.20039 0.308451 0.890837 0.315611 0.578673C0.315919 0.565228 0.316501 0.508862 0.330814 0.563408C0.382698 0.761135 0.395356 0.980296 0.421341 1.18367C0.473937 1.59532 0.562158 2.02194 0.564388 2.43946C0.565315 2.61296 0.198917 2.52111 0.0854912 2.59212C0.0693487 2.60222 0.0419979 2.59327 0.0322804 2.61462C0.0170292 2.64811 0.042303 2.72572 0.0488656 2.75763C0.0610841 2.81704 0.101387 2.88942 0.10415 2.94724C0.108015 3.02814 0.0803767 3.08705 0.106914 3.17221C0.141995 3.28478 0.236207 3.36434 0.294879 3.45984C0.340198 3.53361 0.363732 3.62435 0.390244 3.70891C0.433405 3.84659 0.476372 3.98544 0.502194 4.12912C0.541918 4.35015 0.536475 4.58065 0.554714 4.80482C0.581219 5.13059 0.62697 5.44214 0.713655 5.75289" stroke="#F5FFCB" stroke-linecap="round"/>
</svg>
