<svg width="4" height="7" viewBox="0 0 4 7" fill="none" xmlns="http://www.w3.org/2000/svg">
<path d="M0.833902 0.253904C0.992464 0.22833 1.14688 0.197848 1.30789 0.193825C1.46358 0.189935 1.62505 0.198057 1.77947 0.226063C1.85588 0.239919 1.95508 0.261887 2.02066 0.321309C2.05715 0.354367 2.10246 0.364714 2.14786 0.369664C2.23098 0.378727 2.31575 0.388987 2.39925 0.390911C2.48388 0.392861 2.56885 0.364032 2.65124 0.344754C2.81121 0.307324 2.97158 0.271898 3.13183 0.23632C3.36395 0.184783 3.62897 0.218619 3.83981 0.0641445C3.86391 0.0464846 3.91315 0.0527898 3.9394 0.0436299C3.95552 0.0380052 3.97002 0.0357113 3.979 0.0165215C4.00696 -0.0432253 3.94109 0.14631 3.9268 0.212875C3.86567 0.497675 3.80166 0.757448 3.64781 0.990961C3.52975 1.17015 3.38631 1.32448 3.25542 1.48917C3.01675 1.7895 2.77891 2.0805 2.50905 2.33979C2.34585 2.49659 2.17916 2.65691 2.00026 2.78671C1.8842 2.87093 1.81918 2.86722 1.71467 2.764C1.58183 2.63279 1.44202 2.50198 1.32169 2.35371C1.1794 2.1784 1.12671 1.93796 1.09309 1.70018C1.07446 1.56835 1.06717 1.42937 1.10149 1.30014C1.13473 1.17502 1.25082 1.15909 1.34329 1.13823C1.5079 1.10108 1.69779 1.0636 1.86047 1.13236C2.11534 1.2401 2.12227 1.63156 2.13106 1.90532C2.13438 2.00883 2.13263 2.24338 2.12746 2.35371C2.12657 2.37273 2.11781 2.53897 2.09866 2.57644C2.03131 2.70822 1.71667 2.24297 1.69127 2.20498C1.53503 1.97123 1.37795 1.70315 1.28749 1.4203C1.1995 1.14518 1.27487 0.92864 1.44228 0.731599C1.53209 0.62589 1.65906 0.484995 1.78907 0.460514C1.92226 0.435433 2.05393 0.54927 2.14006 0.659798C2.32355 0.895262 2.41065 1.19594 2.41065 1.51555C2.41065 1.55999 2.40645 1.65772 2.41725 1.54339C2.4345 1.36088 2.45119 1.1785 2.48745 0.999753C2.50469 0.914775 2.52505 0.877577 2.59005 0.841498C2.64151 0.81293 2.7807 0.725445 2.81264 0.82538C2.90024 1.09949 2.89907 1.37289 2.86244 1.65915C2.83284 1.89046 2.79603 2.12005 2.75444 2.34858C2.69686 2.66501 2.64647 3.00938 2.47185 3.26661C1.99158 3.97408 1.1733 3.56869 0.698307 3.06439C0.496465 2.8501 0.315992 2.58019 0.200323 2.28411C0.115614 2.06728 0.115652 1.87325 0.29872 1.74121C0.46173 1.62363 0.681667 1.55429 0.867501 1.62691C1.15978 1.74112 1.29855 2.12276 1.36429 2.45628C1.44421 2.86177 1.43425 3.27709 1.37508 3.68569C1.28216 4.32749 1.08555 4.92008 0.776304 5.4514C0.652095 5.66481 0.511255 5.8926 0.353918 6.07343C0.318393 6.11426 0.284969 5.99094 0.272321 5.96427" stroke="#F5FFCB" stroke-linecap="round"/>
</svg>
