<svg width="2" height="5" viewBox="0 0 2 5" fill="none" xmlns="http://www.w3.org/2000/svg">
<path d="M0.350586 3.12616C0.369269 3.53887 0.436673 3.94029 0.481885 4.34579C0.484828 4.37218 0.521479 4.62917 0.531641 4.61736C0.577096 4.56451 0.615821 4.42279 0.638062 4.36347C0.770797 4.00943 0.870239 3.63805 0.929685 3.25792C0.996838 2.8285 1.04525 2.38607 1.08172 1.95151C1.08283 1.93819 1.0872 1.89957 1.08172 1.91134C1.01976 2.04433 0.972708 2.18218 0.93936 2.32913C0.827978 2.81995 0.794593 3.33205 0.772817 3.83721C0.76586 3.99859 0.762451 4.13525 0.762451 4.29277C0.762451 4.32793 0.743504 4.37851 0.768671 4.39802C0.78711 4.41231 0.786177 4.35052 0.792166 4.32571C0.818096 4.21831 0.842164 4.11031 0.867491 4.00272C0.980688 3.52184 1.10611 3.0429 1.19228 2.5541C1.25133 2.21921 1.29822 1.85204 1.2683 1.50801C1.2602 1.41484 1.22413 1.34378 1.18814 1.26135C1.10282 1.06596 1.05185 0.826313 0.903425 0.678849C0.853682 0.629427 0.793967 0.603679 0.732045 0.582435C0.635688 0.549377 0.589362 0.587386 0.549608 0.698132C0.492738 0.856557 0.477268 1.03271 0.474975 1.2027C0.474282 1.25401 0.464496 1.35594 0.497088 1.40195C0.513215 1.42472 0.552045 1.41963 0.573104 1.41963C0.669141 1.41963 0.772029 1.4164 0.86058 1.36821C0.984854 1.30058 1.13614 1.13599 1.17155 0.971305" stroke="#F5FFCB" stroke-linecap="round"/>
</svg>
