<svg width="6" height="8" viewBox="0 0 6 8" fill="none" xmlns="http://www.w3.org/2000/svg">
<path d="M5.09595 6.80092C4.72451 6.70733 4.36449 6.48237 4.01081 6.32017C3.81413 6.22998 3.5598 6.1589 3.39162 5.99156C3.2781 5.8786 3.05576 5.89723 2.91321 5.89723C2.67839 5.89723 2.46414 6.00081 2.23796 5.89115C2.09677 5.82269 1.88912 5.69117 1.88912 5.99308C1.88912 6.12743 1.90657 6.49969 2.04112 6.49969C2.14504 6.49969 2.10583 6.38519 2.076 6.29887C2.00825 6.10284 1.92278 5.91775 1.83929 5.7314C1.78654 5.6137 1.76589 5.51631 1.87915 5.67511C2.20275 6.12882 2.31074 6.80092 2.87584 6.80092C3.21267 6.80092 3.51084 6.92881 3.82642 7.04738C3.91572 7.08094 3.96809 7.1505 4.06563 7.15844C4.15355 7.1656 4.24514 7.20992 4.3285 7.24516C4.46114 7.30123 4.21229 7.54031 4.12169 7.54031C4.01289 7.54031 3.90408 7.54031 3.79528 7.54031C3.6401 7.54031 3.50323 7.49926 3.35175 7.45815C3.28083 7.43891 3.1967 7.376 3.12252 7.376C3.06278 7.376 3.00281 7.37391 2.94311 7.376C2.8824 7.37812 2.85116 7.44267 2.79859 7.47184C2.65152 7.55348 2.50829 7.43005 2.39992 7.32731C1.86271 6.81799 1.37501 6.27653 1.06935 5.51994C0.813933 4.8877 0.802794 4.07967 0.90739 3.39459C1.02222 2.64247 1.66421 2.19678 2.1059 1.74848C2.35763 1.49298 2.38164 1.11186 2.56188 0.803711" stroke="#F5FFCB" stroke-linecap="round"/>
</svg>
