<svg width="5" height="9" viewBox="0 0 5 9" fill="none" xmlns="http://www.w3.org/2000/svg">
<path d="M3.32841 6.07282C3.24175 6.25801 3.02003 6.35681 2.86583 6.41278C2.41499 6.5764 1.93137 6.42421 1.60407 6.00688C1.29559 5.61355 1.15288 5.06451 1.16488 4.52764C1.17019 4.2902 1.20529 4.05183 1.29208 3.83747C1.35284 3.68738 1.4622 3.50423 1.62207 3.54807C1.78334 3.5923 1.8999 3.80075 1.96645 3.96862C2.09191 4.28506 2.12035 4.67275 2.05885 5.01486C1.97214 5.49721 1.60085 5.79847 1.21768 5.57828C0.87399 5.38077 0.548243 4.90384 0.5769 4.41701C0.589124 4.20934 0.677065 3.98519 0.86729 3.95983C1.13876 3.92364 1.39355 4.19313 1.52967 4.45071C1.89684 5.14549 1.7671 6.1532 1.35387 6.77618C1.24306 6.94325 1.08341 7.10103 0.89729 7.10881C0.654596 7.11894 0.481825 6.84492 0.390906 6.60473C0.161509 5.99873 0.267042 5.19429 0.701096 4.76429C0.983163 4.48486 1.36322 4.37554 1.71926 4.36133C2.12227 4.34524 2.57409 4.42829 2.92942 4.67417C3.49268 5.06393 3.29367 5.95503 3.07282 6.54026C2.99795 6.73865 2.89488 6.99047 2.73023 7.10294C2.48517 7.27035 2.20683 6.95811 2.05045 6.76446C1.48111 6.05942 1.35124 5.0481 1.51047 4.10196C1.57123 3.74095 1.70749 3.24203 2.01685 3.0821C2.34295 2.91351 2.57543 3.39396 2.67203 3.68874C2.82493 4.15531 2.86495 4.67566 2.84783 5.17311C2.82979 5.69727 2.74322 6.26567 2.49864 6.70877C2.40085 6.88593 2.26451 7.0505 2.07325 7.03114C1.80121 7.00362 1.58305 6.70675 1.46247 6.43476C1.35493 6.19218 1.28597 5.90901 1.26988 5.63396C1.25433 5.36818 1.28929 5.03384 1.46907 4.85148C1.65539 4.66247 1.92591 4.72398 2.12605 4.83975C2.4033 5.00013 2.67948 5.29795 2.71703 5.69111C2.75857 6.126 2.62981 6.62657 2.49084 7.01942C2.34199 7.4402 2.08639 7.79449 1.69406 7.85172C1.10222 7.93806 0.78881 7.16103 0.746694 6.55858C0.733861 6.375 0.766541 5.10307 1.14568 5.52626C1.37583 5.78314 1.46828 6.2464 1.51767 6.60327C1.57894 7.046 1.57735 7.53285 1.43487 7.9543C1.37575 8.12917 1.27179 8.33171 1.10488 8.36679C0.874548 8.41519 0.704204 8.14265 0.637498 7.91107C0.532844 7.54774 0.550043 7.12336 0.596099 6.7498C0.697449 5.92774 0.948595 5.10284 1.28728 4.38331C1.43172 4.07644 1.61156 3.75832 1.87166 3.58324C2.10228 3.428 2.34356 3.45442 2.56044 3.6316C2.84301 3.86244 2.97725 4.23106 3.04462 4.62582C3.13035 5.12811 3.12488 5.65832 2.99302 6.14829C2.93705 6.35627 2.84557 6.62208 2.67683 6.73661C2.50614 6.85247 2.32911 6.67189 2.22085 6.52854C1.74573 5.89944 1.6868 4.97322 1.81346 4.16717C1.89277 3.66244 2.04557 3.16817 2.26765 2.73042C2.46233 2.34667 2.73948 1.96661 3.11122 1.8483C3.71526 1.65604 3.90686 2.6356 3.88639 3.17588C3.86873 3.64217 3.69984 4.22585 3.28341 4.35034C2.96857 4.44445 2.72068 4.14122 2.63843 3.79571C2.52919 3.33676 2.61077 2.74543 2.77943 2.3216C2.84597 2.15438 2.96795 1.93335 3.14242 1.93475C3.35457 1.93646 3.42847 2.32515 3.46401 2.51062C3.52469 2.82729 3.53973 3.15313 3.50961 3.47627C3.4986 3.59428 3.46261 3.80433 3.42921 3.92466C3.42057 3.95576 3.38701 4.06245 3.34881 4.08438C3.28613 4.12037 3.18173 4.01985 3.14242 3.98254C3.01926 3.86568 2.92044 3.71468 2.86043 3.53855C2.82949 3.44777 2.74419 3.12344 2.91202 3.13632C3.04781 3.14673 3.17672 3.28843 3.24321 3.42352C3.33274 3.6054 3.33725 3.83764 3.29001 4.03749C3.27139 4.11627 3.2395 4.17467 3.17422 4.11588C3.03145 3.98733 2.94355 3.73248 2.92582 3.52389C2.88362 3.0274 3.10074 2.5805 3.43761 2.32892C3.58531 2.21862 3.72914 2.12714 3.89599 2.21976C3.91865 2.23233 3.9444 2.25481 3.97099 2.2476C4.01874 2.23464 4.04125 2.14111 4.05199 2.09594C4.0958 1.91166 4.11123 1.7216 4.12819 1.53179C4.15346 1.24884 4.1662 0.966561 4.15998 0.681901C4.15972 0.66964 4.15921 0.61824 4.14678 0.66798C4.10174 0.848286 4.09075 1.04814 4.06819 1.23359C4.02252 1.60898 3.94593 1.99801 3.94399 2.37874C3.94319 2.53695 4.2613 2.4532 4.35978 2.51795C4.37379 2.52717 4.39754 2.519 4.40598 2.53846C4.41922 2.56901 4.39727 2.63978 4.39158 2.66888C4.38097 2.72305 4.34598 2.78906 4.34358 2.84179C4.34022 2.91556 4.36422 2.96928 4.34118 3.04693C4.31072 3.14959 4.22892 3.22214 4.17798 3.30922C4.13864 3.37649 4.1182 3.45923 4.09519 3.53635C4.05771 3.6619 4.02041 3.78851 3.99799 3.91953C3.9635 4.12109 3.96823 4.33128 3.95239 4.5357C3.92938 4.83277 3.88966 5.11687 3.8144 5.40024" stroke="#F5FFCB" stroke-linecap="round"/>
</svg>
