<svg width="3" height="8" viewBox="0 0 3 8" fill="none" xmlns="http://www.w3.org/2000/svg">
<path d="M1.02154 5.38562C0.844865 5.85112 0.726243 6.36405 0.651466 6.86459C0.629289 7.01304 0.589062 7.30214 0.655782 7.46547C0.747191 7.68923 0.988533 7.66765 1.14616 7.58589C1.5205 7.39173 1.77142 6.9162 1.94943 6.5121C2.13138 6.09906 2.24722 5.7611 2.37561 5.31537C2.51996 4.81423 2.66923 4.25889 2.67016 3.72225C2.67033 3.62139 2.64872 3.41078 2.5709 3.3271C2.50565 3.25695 2.36569 3.26082 2.29361 3.29574C2.142 3.36919 1.97346 3.57685 1.87822 3.7097C1.58144 4.12368 1.33062 4.60004 1.15317 5.09773C1.0332 5.43423 0.974896 5.68973 0.920122 6.04483C0.872794 6.35165 0.832851 6.70205 0.894227 7.01262C0.908762 7.08617 0.957039 7.22207 1.0237 7.2635C1.17866 7.35982 1.37862 7.18886 1.48171 7.08287C1.82067 6.73437 2.04789 6.23015 2.19758 5.74125C2.26831 5.51025 2.47416 4.83398 2.07027 4.83242C1.73926 4.83114 1.45091 5.12019 1.2492 5.39189C0.804595 5.99076 0.437282 6.7444 0.295956 7.52317C0.27973 7.61259 0.209639 8.12319 0.423811 7.85058C0.548479 7.69189 0.642014 7.48721 0.720518 7.29737C0.923415 6.80674 1.06882 6.28322 1.18554 5.75693C1.22516 5.57828 1.29544 5.21023 1.30746 5.00679C1.31731 4.84012 1.30482 4.63498 1.17097 4.53449C0.860036 4.30106 0.542531 4.95898 0.441074 5.18366C0.258134 5.58878 0.0900895 6.09457 0.113076 6.56228C0.116524 6.63242 0.146929 6.79209 0.187523 6.85707C0.266037 6.98275 0.380286 6.88201 0.445929 6.80501C0.714965 6.48943 0.879428 6.03402 1.00967 5.62522C1.09798 5.34806 1.16537 5.08801 1.226 4.80106C1.25233 4.67645 1.27757 4.55132 1.29559 4.42473C1.30295 4.37309 1.33898 4.06369 1.3053 3.97564C1.26395 3.86753 1.11895 3.99544 1.10138 4.01328C0.917675 4.1998 0.726436 4.5333 0.620177 4.76719C0.469464 5.09893 0.286013 5.63642 0.227444 6.01158C0.157176 6.46167 0.213832 6.91258 0.539796 7.20768C0.759312 7.40641 0.939845 7.46026 1.21521 7.41717C1.57284 7.36121 1.81545 7.09433 1.97424 6.73413C2.04385 6.57624 2.15148 6.19109 2.19435 6.01284C2.22795 5.8731 2.25922 5.7251 2.24883 5.5788C2.24123 5.47178 2.21822 5.46235 2.15551 5.55685C1.87333 5.98203 1.69999 6.52798 1.60309 7.04774C1.57392 7.20421 1.54251 7.46594 1.54591 7.63607C1.54676 7.67884 1.5577 7.82934 1.60633 7.86939C1.64865 7.90426 1.73413 7.85327 1.76169 7.83176C1.89777 7.72556 1.99974 7.5539 2.0843 7.39522C2.30918 6.97319 2.43588 6.48707 2.56766 6.01785C2.59232 5.93003 2.62313 5.84301 2.64211 5.75317C2.65025 5.7146 2.64879 5.67059 2.66261 5.634C2.7078 5.5143 2.75584 5.39706 2.80395 5.279C2.8985 5.04691 2.8914 4.75176 2.89512 4.50313C2.90039 4.15083 2.91958 3.79904 2.94906 3.44941C2.9645 3.26631 2.93639 3.08676 2.9345 2.90436C2.93088 2.55502 2.94421 2.20627 2.94421 1.85754C2.94421 1.49779 2.9345 1.13855 2.9345 0.779358" stroke="#F5FFCB" stroke-linecap="round"/>
</svg>
