<svg width="3" height="5" viewBox="0 0 3 5" fill="none" xmlns="http://www.w3.org/2000/svg">
<path d="M2.27075 2.78366C2.19983 2.88109 2.11188 2.9769 2.00658 3.01244C1.75128 3.0986 1.49934 2.79917 1.37334 2.56288C1.18313 2.2062 1.2149 1.78321 1.42954 1.45386C1.538 1.28745 1.69685 1.13901 1.87825 1.12499C2.0441 1.11217 2.18163 1.23075 2.27777 1.38351C2.52751 1.78033 2.60355 2.36747 2.56582 2.85458C2.55098 3.04622 2.51349 3.31614 2.37613 3.44312C2.23319 3.57525 2.02997 3.47091 1.89792 3.37277C1.72149 3.24165 1.50948 3.00122 1.37896 2.81568C1.12091 2.44886 0.90674 2.01616 0.803326 1.54652C0.750987 1.30883 0.703405 0.945133 0.86843 0.741782C0.992634 0.588732 1.18508 0.658 1.31058 0.75608C1.47123 0.881635 1.56661 1.0253 1.67451 1.21936C1.88692 1.60141 2.03847 2.03904 2.15646 2.47594C2.21638 2.69779 2.27771 2.99392 2.30634 3.22978C2.32002 3.34245 2.36511 3.63987 2.28199 3.74625C2.23435 3.80722 2.17009 3.76628 2.12274 3.73596C1.98308 3.64652 1.87537 3.49233 1.7827 3.34074C1.70658 3.21621 1.63411 3.07863 1.58177 2.93637C1.57873 2.92811 1.53759 2.82878 1.59067 2.84771C1.77764 2.91443 1.88871 3.22238 1.9471 3.4191C2.01199 3.63769 2.04627 3.8668 2.06935 4.09686C2.08049 4.20793 2.1004 4.34731 2.08527 4.46062C2.07836 4.51236 2.06589 4.49129 2.04593 4.45548C1.9581 4.29791 1.8959 4.10607 1.83141 3.93443C1.73108 3.66736 1.62159 3.39552 1.55413 3.1131" stroke="#F5FFCB" stroke-linecap="round"/>
</svg>
