<svg width="1" height="3" viewBox="0 0 1 3" fill="none" xmlns="http://www.w3.org/2000/svg">
<path d="M0.511189 1.77505C0.49582 1.81566 0.482535 1.85139 0.472932 1.89565C0.424213 2.12023 0.391266 2.37026 0.423121 2.60106C0.429098 2.64437 0.445727 2.73541 0.498351 2.74405C0.537455 2.75047 0.573806 2.70206 0.593866 2.67181C0.704497 2.505 0.754944 2.30421 0.802868 2.10462C0.81403 2.05813 0.834671 2.00141 0.835477 1.95178C0.836136 1.91114 0.792885 1.94921 0.782841 1.95775C0.649251 2.07125 0.546276 2.24957 0.496297 2.4318C0.476943 2.50237 0.448946 2.64015 0.498608 2.70614C0.551791 2.77681 0.697694 2.46476 0.711975 2.42881C0.792312 2.22657 0.818886 1.98307 0.812112 1.76191C0.810894 1.72215 0.804336 1.68287 0.803638 1.6431C0.802833 1.5972 0.81381 1.54999 0.821868 1.50548C0.842724 1.39031 0.867123 1.27139 0.900437 1.16009C0.914978 1.11152 0.931762 1.07195 0.931762 1.01979C0.931762 0.981379 0.931762 0.942969 0.931762 0.904559C0.931762 0.842321 0.926428 0.776379 0.934329 0.714699C0.943332 0.644421 0.95487 0.57856 0.95487 0.506927" stroke="#F5FFCB" stroke-linecap="round"/>
</svg>
