<svg width="3" height="5" viewBox="0 0 3 5" fill="none" xmlns="http://www.w3.org/2000/svg">
<path d="M0.732992 0.822906C0.732992 1.31303 0.711907 1.77799 0.597194 2.25147C0.520517 2.56795 0.435159 2.88191 0.37917 3.20536C0.369172 3.26312 0.344792 3.69493 0.280747 3.48377C0.21381 3.26307 0.188687 2.99994 0.172358 2.77025C0.137392 2.27839 0.0526542 1.45851 0.386645 1.06937C0.52716 0.905649 0.717929 0.990059 0.85384 1.09675C1.24729 1.40562 1.6241 1.87055 1.87668 2.35035C1.97833 2.54343 2.05971 2.79574 2.04612 3.03193C2.02109 3.46707 1.63005 3.24567 1.45309 3.10495C1.16801 2.87824 0.948846 2.55009 0.760401 2.21039C0.627545 1.9709 0.291619 1.20631 0.425266 1.44514C0.740175 2.0079 1.0138 2.6314 1.25376 3.24492C1.39246 3.59954 1.50942 3.93492 1.57768 4.31596C1.61344 4.51555 1.59101 4.57742 1.60758 4.76628" stroke="#F5FFCB" stroke-linecap="round"/>
</svg>
