<svg width="4" height="7" viewBox="0 0 4 7" fill="none" xmlns="http://www.w3.org/2000/svg">
<path d="M2.75615 4.3734C2.54914 4.66583 2.35024 4.96662 2.14837 5.26432C2.02417 5.44746 1.90023 5.63094 1.77578 5.81381C1.68567 5.94621 1.59733 6.08488 1.47159 6.16989C1.16236 6.37892 1.01765 5.87716 0.937005 5.60061C0.716015 4.84278 0.830099 3.99202 1.1614 3.30371C1.2495 3.12068 1.36836 2.9354 1.55619 2.91394C1.72075 2.89514 1.90634 2.98559 2.03737 3.09857C2.50544 3.50217 2.44062 4.37298 2.12437 4.88113C1.86363 5.30008 1.34697 5.53743 0.993403 5.15735C0.819571 4.97047 0.73442 4.7256 0.691013 4.45106C0.624474 4.03022 0.625572 3.58428 0.649014 3.15865C0.662999 2.90474 0.670267 2.5269 0.825409 2.32048C0.926216 2.18636 1.0826 2.18214 1.2004 2.27652C1.4414 2.46962 1.6417 2.8591 1.70498 3.19675C1.77035 3.54554 1.72746 4.21318 1.34079 4.29427C0.910308 4.38455 0.6904 3.60973 0.638215 3.24364C0.616263 3.08964 0.620883 2.92882 0.642414 2.77473C0.678882 2.51377 0.77079 2.39606 0.914206 2.22157C1.01995 2.09292 1.19146 1.89853 1.35099 1.87063C1.51591 1.84179 1.62935 2.04833 1.70078 2.1908C1.79532 2.37937 1.89499 2.63215 1.85138 2.86265C1.81601 3.04954 1.68038 3.17542 1.52979 3.19601C1.16002 3.24659 0.886914 2.79982 0.726412 2.45822C0.665395 2.32836 0.54329 2.08785 0.574017 1.92045C0.603473 1.75997 0.809487 1.67322 0.917206 1.62665C1.07276 1.5594 1.26009 1.467 1.42659 1.4618C1.59188 1.45664 1.97479 1.57485 1.95337 1.84865C1.93151 2.12813 1.71038 2.42029 1.47819 2.43771C1.27303 2.4531 1.04504 2.30547 0.920205 2.10948C0.760254 1.85835 1.15175 1.66795 1.28619 1.62446C1.79356 1.46031 2.33205 1.62379 2.72255 2.05526C3.07952 2.44969 3.21884 3.07403 3.17133 3.6466C3.16492 3.72383 3.15008 3.92704 3.06214 3.95505C2.97681 3.98223 2.862 3.85073 2.80894 3.7946C2.53386 3.50359 2.31094 3.11182 2.12977 2.72931C2.09968 2.6658 1.89331 2.29791 2.00257 2.22817C2.22207 2.08806 2.52484 2.1926 2.69735 2.38935C2.89119 2.61045 2.95581 2.93085 2.98474 3.23997C3.00885 3.49761 3.02098 3.83285 2.92894 4.07887C2.78779 4.45615 2.36156 3.84669 2.27256 3.70375C2.07616 3.38831 1.90932 2.88192 1.99057 2.47874C2.06074 2.13055 2.37204 1.80742 2.67095 1.82814C2.98422 1.84985 3.26401 2.20434 3.39093 2.53002C3.47813 2.75379 3.51765 3.04428 3.49172 3.29126C3.4811 3.39246 3.4372 3.37716 3.37293 3.32863C3.22153 3.21429 3.08609 3.05583 2.96314 2.90075C2.72521 2.60064 2.55553 2.26117 2.46636 1.85671C2.42732 1.67964 2.42718 1.49811 2.48436 1.32626C2.55317 1.11941 2.6834 0.955606 2.84674 0.858092C2.94629 0.798663 3.07983 0.716351 3.19173 0.698371C3.3437 0.673953 3.45768 0.801094 3.54152 0.939417C3.61367 1.05846 3.68351 1.18607 3.72871 1.32406C3.77569 1.46748 3.8271 1.6045 3.88411 1.74241C3.88968 1.7559 3.97753 2.0147 3.96871 2.0135C3.95519 2.01166 3.92492 1.95297 3.92131 1.94683C3.87083 1.86101 3.8245 1.77091 3.78031 1.68014C3.77616 1.6716 3.65639 1.44454 3.68072 1.42078C3.71542 1.38687 3.96914 1.4356 3.98611 1.49258C3.99916 1.5364 3.94691 1.61436 3.93271 1.64644C3.88714 1.74939 3.84604 1.85193 3.79711 1.95269C3.63998 2.27625 3.57788 2.6774 3.57692 3.04875C3.5764 3.24904 3.57747 3.4518 3.62012 3.6466C3.62096 3.65042 3.65831 3.81365 3.66332 3.81365C3.67212 3.81365 3.66332 3.79216 3.66332 3.78141C3.66332 3.73454 3.66355 3.68754 3.66572 3.64074C3.66967 3.55507 3.6686 3.42376 3.70892 3.34767C3.74747 3.27491 3.87513 3.30466 3.92851 3.32863C3.93857 3.33314 4.03466 3.35976 3.99931 3.38431C3.3451 3.83857 2.6365 4.2094 2.05297 4.79834C1.91306 4.93956 1.78561 5.09415 1.67858 5.27311C1.55153 5.48553 1.38893 5.6598 1.24899 5.85924C1.02347 6.18068 0.798257 6.5005 0.553017 6.79997" stroke="#F5FFCB" stroke-linecap="round"/>
</svg>
