<svg width="4" height="12" viewBox="0 0 4 12" fill="none" xmlns="http://www.w3.org/2000/svg">
<path d="M2.56189 4.80372C2.53708 3.80393 2.49347 2.80478 2.46471 1.80511C2.45451 1.45058 2.44312 1.09617 2.43232 0.741678C2.43089 0.694895 2.40911 0.534797 2.44727 0.490653C2.48063 0.452057 2.54554 0.505684 2.56563 0.519559C2.87891 0.73596 3.08213 1.1372 3.23216 1.52366C3.45505 2.09781 3.58245 2.72052 3.6844 3.34017C3.6919 3.38574 3.74203 3.605 3.72302 3.69008C3.71842 3.71071 3.69656 3.68519 3.69562 3.68399C3.60325 3.56641 3.52363 3.41207 3.4452 3.28388C3.08718 2.69865 2.73016 2.10519 2.4672 1.44607C2.44741 1.39644 2.39718 1.27961 2.44229 1.28328C2.67602 1.30231 2.90168 1.94341 2.978 2.12612C3.21573 2.69523 3.37782 3.30503 3.47385 3.93198C3.47722 3.95397 3.53436 4.21157 3.51123 4.25907C3.46605 4.35186 3.34653 4.17564 3.27452 4.11302C2.77367 3.67748 2.33748 3.14113 1.83431 2.70728C1.65297 2.55092 1.30346 2.18704 1.04569 2.24783C0.775793 2.31147 0.690845 2.87133 0.645767 3.115C0.463219 4.10178 0.478392 5.1519 0.467611 6.15773C0.456351 7.20823 0.532227 8.22728 0.655734 9.26587C0.757169 10.1189 0.904479 10.963 1.01454 11.8142" stroke="#F5FFCB" stroke-linecap="round"/>
</svg>
