<svg width="3" height="7" viewBox="0 0 3 7" fill="none" xmlns="http://www.w3.org/2000/svg">
<path d="M1.70195 0.623809C1.48325 0.722001 1.25693 0.85402 1.0897 1.02758C0.938563 1.18444 0.831949 1.35649 0.791485 1.57386C0.754657 1.77171 0.758946 2.18787 0.972259 2.31147C1.10964 2.39108 1.23726 2.26463 1.31929 2.18084C1.56092 1.93403 1.67926 1.59487 1.76265 1.26773C1.80991 1.08234 2.06395 0.305072 1.70327 0.256982C1.35305 0.210286 0.823393 0.306246 0.650296 0.658116C0.510789 0.941704 0.549246 1.31847 0.580361 1.61081C0.612039 1.90843 0.65924 2.6625 1.15039 2.2389C1.34155 2.07404 1.79977 1.45209 1.93947 1.2519C2.01447 1.14442 2.08694 1.03467 2.14927 0.919381C2.21927 0.789923 2.20602 0.76866 2.08857 0.823056C1.58924 1.05433 1.18986 1.69819 1.00789 2.18876C0.77414 2.8189 0.795118 3.48676 0.899685 4.13901C0.924408 4.29322 1.00619 4.67293 1.04483 4.83836C1.07773 4.9792 1.10623 5.16078 1.17678 5.29227C1.26737 5.46109 1.38004 4.96185 1.43277 4.77766C1.60618 4.17194 1.73958 3.52251 1.72834 2.88942C1.72685 2.8051 1.73092 2.51076 1.55945 2.60837C1.1917 2.8177 1.05684 3.46506 0.994691 3.83552C0.831018 4.81114 1.0592 5.88069 1.39319 6.79916" stroke="#F5FFCB" stroke-linecap="round"/>
</svg>
