<svg width="4" height="8" viewBox="0 0 4 8" fill="none" xmlns="http://www.w3.org/2000/svg">
<path d="M0.855257 5.17754C0.899457 5.4834 0.984728 5.77654 1.00645 6.08824C1.0189 6.26683 0.995737 6.43784 0.976453 6.61356C0.968054 6.69008 0.946179 6.76363 0.930854 6.83849C0.920978 6.88673 0.89757 6.84191 0.871456 6.85534C0.795472 6.89441 0.845417 7.1569 0.785659 6.90223C0.648384 6.31719 0.588083 5.7023 0.612264 5.09402C0.623568 4.80967 0.646169 4.58919 0.711261 4.3196C0.75203 4.15074 0.82016 3.91235 0.975253 3.8441C1.2059 3.7426 1.43327 4.05453 1.54343 4.25146C1.74621 4.61396 1.92412 5.13746 1.71203 5.54754C1.6671 5.6344 1.61982 5.71831 1.53023 5.74096C1.35571 5.78509 1.15791 5.60059 1.03885 5.47354C0.737706 5.15216 0.568526 4.68333 0.513268 4.20677C0.501037 4.10129 0.484894 3.95075 0.519267 3.8419C0.560268 3.71207 0.707408 3.70208 0.801258 3.71955C1.02844 3.76182 1.22341 3.93189 1.38444 4.12178C1.55192 4.31927 1.71926 4.57865 1.79003 4.85517C1.82823 5.00447 1.82512 5.16159 1.79603 5.31235C1.76674 5.46413 1.68773 5.7972 1.54343 5.85892C1.43856 5.90378 1.3395 5.77307 1.28184 5.70213C1.06257 5.43233 0.911991 5.078 0.816858 4.7189C0.743482 4.44192 0.69403 4.08205 0.671663 3.79428C0.638589 3.36876 0.618066 2.89336 0.704661 2.47402C0.759236 2.20975 0.890094 1.92183 1.13605 1.87177C1.39652 1.81876 1.63746 2.05247 1.80323 2.26082C2.10844 2.64443 2.31398 3.16997 2.32281 3.70929C2.32614 3.91261 2.314 4.40297 2.05402 4.3555C1.92133 4.33127 1.81488 4.25105 1.70723 4.15548C1.46792 3.94302 1.25874 3.66288 1.10965 3.35029C1.05694 3.23977 0.916717 2.94507 1.04185 2.81984C1.15969 2.7019 1.41021 2.74911 1.53323 2.81105C1.69978 2.89489 1.84298 3.05535 1.93762 3.24039C2.08065 3.52003 2.19516 3.95202 2.07922 4.27564C1.90031 4.77499 1.48556 4.01742 1.40124 3.83091C1.34227 3.70048 1.27842 3.51424 1.23804 3.37226C1.20928 3.27111 1.1559 3.10659 1.16605 2.99201C1.18415 2.78748 1.56645 3.21312 1.57403 3.22207C1.89112 3.59626 2.03784 4.07622 2.06962 4.609C2.08087 4.79761 2.09407 5.09075 2.00962 5.26619C1.9475 5.39524 1.83444 5.2713 1.78643 5.19659C1.68722 5.04222 1.60098 4.79967 1.54883 4.62512C1.44917 4.29154 1.33307 3.88045 1.35624 3.51733C1.38168 3.11872 1.86812 3.01604 2.12242 3.04183C2.4931 3.07943 2.7363 3.42948 2.88679 3.81772C2.94945 3.97938 3.0058 4.19957 3.03679 4.37455C3.0697 4.5604 3.10221 4.7879 3.06679 4.97826C3.01964 5.23156 2.73899 5.00132 2.6444 4.93283C2.43954 4.78451 2.24844 4.60661 2.07082 4.41338C1.95513 4.28752 1.81274 4.13744 1.75643 3.95253C1.67558 3.68708 1.77751 3.34351 1.85062 3.09532C1.93269 2.81673 2.03895 2.42875 2.25681 2.26009C2.37794 2.16631 2.57971 2.11577 2.7152 2.18975C2.9104 2.29634 2.95466 2.60942 2.95699 2.84109C2.95723 2.86528 2.96258 3.16612 2.88559 3.10411C2.84582 3.07208 2.75177 2.94865 2.7332 2.92388C2.59821 2.74382 2.47014 2.55497 2.34861 2.36119C2.31947 2.31473 2.17034 2.14249 2.25921 2.07985C2.42604 1.96225 2.63837 2.00173 2.78599 2.14432C3.00954 2.36027 3.13125 2.71739 3.22518 3.03451C3.30293 3.29701 3.3897 3.58869 3.38717 3.87194C3.38672 3.92324 3.3778 4.25397 3.27918 4.20823C3.17264 4.15883 3.07026 3.99412 3.00319 3.89539C2.85923 3.68347 2.73268 3.45295 2.618 3.21621C2.54387 3.06318 2.39394 2.80387 2.48 2.61323C2.53839 2.48389 2.69894 2.49556 2.79619 2.52751C2.99123 2.59157 3.12044 2.78626 3.21558 2.99275C3.32832 3.23743 3.43436 3.52212 3.47477 3.80014C3.50571 4.01295 3.51812 4.23392 3.53177 4.44928C3.53729 4.53631 3.56523 4.73109 3.45677 4.60314C3.38187 4.51477 3.25129 4.32747 3.19758 4.24853C2.97655 3.92363 2.75317 3.59183 2.5676 3.23452C2.45535 3.01839 2.39133 2.81774 2.38641 2.56048C2.38184 2.32203 2.41052 2.0726 2.4554 1.841C2.4744 1.74299 2.51212 1.49955 2.618 1.46441C2.70303 1.4362 2.8204 1.48472 2.89279 1.53255C3.07134 1.65053 3.25293 1.85691 3.29838 2.10769C3.3069 2.15471 3.29325 2.68031 3.18078 2.60297C3.15247 2.5835 3.12014 2.49492 3.11238 2.47109C3.06884 2.33724 3.04193 2.18951 3.03259 2.04615C3.01252 1.73837 3.07491 1.40953 3.12918 1.11054C3.16434 0.916856 3.23118 0.735306 3.23118 0.5354" stroke="#F5FFCB" stroke-linecap="round"/>
</svg>
