<svg width="2" height="1" viewBox="0 0 2 1" fill="none" xmlns="http://www.w3.org/2000/svg">
<path d="M1.10277 0.385406C1.07803 0.414171 1.0562 0.446415 1.0355 0.479142C1.00353 0.529703 0.961498 0.60028 0.935364 0.654674C0.915623 0.69576 0.868354 0.783747 0.895566 0.836175C0.912735 0.869255 0.946481 0.87503 0.975932 0.879162C1.04776 0.889241 1.12235 0.873066 1.18647 0.833787C1.26826 0.783691 1.35419 0.684124 1.36236 0.571087C1.36659 0.512547 1.33063 0.521623 1.29919 0.547803C1.22953 0.605817 1.16986 0.692056 1.13615 0.783635C1.13359 0.790601 1.12334 0.824261 1.12074 0.833787C1.11895 0.840374 1.1124 0.858231 1.11715 0.854086C1.13521 0.838336 1.14897 0.797985 1.16234 0.777665C1.20147 0.718195 1.25095 0.667082 1.30407 0.624821C1.35895 0.581164 1.42926 0.578136 1.49202 0.557654C1.52765 0.546025 1.56153 0.536429 1.59832 0.530488C1.62113 0.526805 1.63954 0.519121 1.66071 0.50989C1.68092 0.501078 1.61843 0.52003 1.59729 0.525115" stroke="#F5FFCB" stroke-linecap="round"/>
</svg>
