<svg width="5" height="6" viewBox="0 0 5 6" fill="none" xmlns="http://www.w3.org/2000/svg">
<path d="M4.47023 3.80479C4.38507 4.05233 4.24474 4.27727 4.14129 4.51504C4.03289 4.76422 3.93507 5.02793 3.89113 5.30403C3.88705 5.32972 3.84931 5.68326 3.88422 5.68326C4.23031 5.68326 4.57747 5.44396 4.74043 5.09513C4.81682 4.93161 4.92449 4.65449 4.87657 4.46041C4.84782 4.34399 4.76291 4.24099 4.69137 4.15992C4.5619 4.01321 4.41104 3.87821 4.24357 3.79515C3.97882 3.66384 3.62404 3.64935 3.38252 3.85461C3.14485 4.0566 3.08391 4.41534 3.06188 4.73519C3.03952 5.05978 3.01896 5.5108 3.18281 5.79655C3.31947 6.03488 3.65341 5.93817 3.82963 5.8319C4.40258 5.48638 4.7671 4.59705 4.54349 3.86907C4.44572 3.5508 4.22766 3.2541 3.95333 3.12829C3.76735 3.04299 3.55428 3.02634 3.35695 3.02705C3.15639 3.02778 2.94275 3.04855 2.76058 3.15721C2.47469 3.32774 2.35157 3.67982 2.33627 4.03538C2.32821 4.22301 2.34053 4.38338 2.36461 4.56968C2.39385 4.79591 2.43397 5.0749 2.56709 5.25743C2.79263 5.56671 3.15019 5.33036 3.3459 5.11361C3.78251 4.63006 4.10248 3.90806 4.20971 3.22149C4.27406 2.80949 4.24023 2.36398 3.98097 2.04524C3.71287 1.71562 3.25356 1.60166 2.87944 1.63227C2.47507 1.66534 2.03448 1.87139 1.74474 2.20754C1.35912 2.65491 1.32569 3.29053 1.431 3.88514C1.46371 4.06985 1.5324 4.30477 1.64246 4.45237C1.82924 4.70287 2.11956 4.79319 2.39363 4.78661C2.90302 4.77438 3.31549 4.4163 3.58431 3.93335C3.82821 3.49516 3.99509 2.92878 3.87662 2.40759C3.76377 1.91111 3.32653 1.57912 2.89741 1.81143C2.48896 2.03256 2.32671 2.62981 2.27408 3.1074C2.25346 3.29453 2.25169 3.56235 2.26579 3.75177C2.28074 3.95263 2.30594 4.21272 2.40814 4.38569C2.54958 4.62504 2.824 4.23932 2.90985 4.12296C3.13159 3.8224 3.39393 3.35164 3.33277 2.93064C3.29752 2.68801 3.09718 2.49044 2.89326 2.455C2.59328 2.40286 2.23946 2.58102 2.05847 2.85994C1.87832 3.13756 1.80418 3.54577 1.96034 3.85702C2.14534 4.22575 2.50186 3.6139 2.59334 3.43922C2.70555 3.225 2.76806 3.05739 2.79306 2.8045C2.83127 2.41802 2.72158 2.06054 2.58091 1.71743C2.52325 1.57682 2.36654 1.25604 2.28375 1.11966C2.20677 0.992839 2.09445 0.814172 1.93961 0.832833C1.84185 0.844616 1.76541 0.910862 1.68876 0.975044C1.55644 1.08585 1.42352 1.21919 1.31905 1.36552C1.09192 1.68368 1.07522 2.06006 1.10206 2.455C1.10597 2.51253 1.11218 3.05182 1.21056 3.03911C1.27494 3.03079 1.34884 2.91133 1.37295 2.87601C1.54624 2.62212 1.69008 2.33484 1.81661 2.04685C1.90824 1.83827 2.05313 1.56142 1.93201 1.33178C1.80411 1.08928 1.57434 1.02459 1.34186 1.05217C1.03736 1.0883 0.835084 1.27792 0.717838 1.60013C0.64644 1.79633 0.596569 1.97689 0.569953 2.18986C0.569639 2.19237 0.560413 2.31268 0.585156 2.2935C0.597521 2.28392 0.623998 2.2326 0.624546 2.23164C0.70268 2.09538 0.779045 1.95758 0.849137 1.81545C0.911778 1.68844 0.981594 1.53679 1.03434 1.40248C1.06158 1.33311 1.10026 1.24175 1.09722 1.16064C1.09512 1.10443 1.07416 1.0635 1.0447 1.02164C1.02186 0.989183 0.998862 0.999147 0.961087 0.999147C0.824655 0.999147 0.701929 1.02218 0.589303 1.12127C0.491527 1.2073 0.45404 1.37033 0.448329 1.50693C0.437885 1.75672 0.572357 2.01566 0.643204 2.24289C0.729662 2.52018 0.780101 2.80395 0.904421 3.06562C1.02008 3.30906 1.13448 3.56414 1.27344 3.79033" stroke="#F5FFCB" stroke-linecap="round"/>
</svg>
