<svg width="7" height="8" viewBox="0 0 7 8" fill="none" xmlns="http://www.w3.org/2000/svg">
<path d="M0.848736 2.16968C0.842098 2.38208 0.783873 2.61573 0.861931 2.82152C1.00242 3.19189 1.27003 2.61085 1.37127 2.46789C1.49039 2.29965 1.85384 1.91616 1.79351 1.67486C1.73543 1.44253 1.33756 1.40597 1.15091 1.42019C0.515827 1.46857 0.424888 2.32736 0.302455 2.79777C0.28597 2.8611 0.286927 2.80405 0.306413 2.76874C0.364952 2.66264 0.418572 2.55364 0.418572 2.42962C0.418572 2.19502 0.284927 1.96194 0.159946 1.77118C0.13018 1.72575 0.0114891 1.61038 0.107166 1.72368C0.421945 2.09644 0.84473 2.41383 1.23667 2.69748C1.85055 3.14175 2.58084 3.54243 3.34791 3.22529C3.82079 3.02978 4.1346 2.60596 4.47873 2.25017C4.61441 2.10989 4.75628 1.97385 4.90758 1.85035C4.97652 1.79408 5.08018 1.69651 5.1728 1.67617C5.29085 1.65026 5.14799 2.4825 5.14509 2.52331C5.12081 2.86513 5.01703 3.79636 5.48553 3.94839C5.70912 4.02095 5.84702 3.75282 5.89986 3.58552C6.03458 3.15891 6.01945 2.57377 5.91569 2.1446C5.84005 1.83172 5.59639 1.53147 5.26121 1.75798C4.83648 2.04501 4.57422 2.68588 4.63048 3.18571C4.65566 3.40944 4.77119 3.88687 5.00522 3.99985C5.25026 4.11814 5.56955 3.52254 5.65707 3.38759C5.83511 3.11304 5.98012 2.81807 6.15848 2.54442C6.17343 2.52148 6.22785 2.46075 6.21522 2.48504C6.14679 2.61664 6.07894 2.73989 6.02389 2.87958C5.79493 3.46058 5.66184 4.07234 5.5713 4.68864C5.5702 4.69608 5.47624 5.29958 5.52116 5.29958C5.68474 5.29958 5.94753 4.927 6.03181 4.82587C6.25554 4.5574 6.37116 4.27271 6.37884 3.92332C6.38405 3.68642 6.35467 3.56226 6.42503 3.33613C6.45432 3.24196 6.49017 2.96283 6.52135 3.05639C6.52934 3.08037 6.48156 3.20546 6.48045 3.20946C6.41571 3.44133 6.35881 3.67529 6.29044 3.90616C6.01222 4.84565 5.57526 5.9613 4.49325 6.14407C4.08296 6.21337 3.409 6.17203 3.42312 6.75105C3.4279 6.94727 3.53885 7.08097 3.7464 7.03343C4.1426 6.94267 4.52081 6.69056 4.88383 6.51353C5.12994 6.39352 5.39255 6.23771 5.60692 6.06622C5.72784 5.96949 5.75196 5.75013 5.83124 5.6189C5.85028 5.58738 5.96487 5.46034 5.98958 5.52389C6.04296 5.66115 5.98697 5.88942 5.97903 6.02795C5.96956 6.19298 5.94208 6.3705 5.94208 6.53465C5.94208 6.56324 5.96977 6.48454 5.98563 6.46075C6.05724 6.35333 6.10717 6.23171 6.18092 6.12691C6.24191 6.04024 6.25387 5.93999 6.29307 5.84058C6.35732 5.67766 6.41047 5.52018 6.46725 5.355C6.48402 5.30621 6.51268 5.26349 6.53059 5.21513C6.57098 5.10608 6.32509 4.95053 6.2746 4.90372C5.7072 4.37758 5.12042 3.86205 4.63576 3.25564C4.2129 2.72655 3.84335 2.12781 3.49041 1.5495C3.29296 1.22597 3.15053 0.858141 3.01011 0.50708" stroke="#F5FFCB" stroke-linecap="round"/>
</svg>
