<svg width="5" height="5" viewBox="0 0 5 5" fill="none" xmlns="http://www.w3.org/2000/svg">
<path d="M4.2172 2.81145C4.2172 2.95469 4.21719 3.09799 4.22287 3.24112C4.22839 3.38003 4.23412 3.48433 4.25025 3.62227C4.26383 3.73844 4.27782 3.88623 4.34205 3.9844C4.40741 4.08429 4.50868 4.06526 4.58242 3.99449C4.76197 3.82216 4.80872 3.58459 4.75201 3.32612C4.7149 3.15702 4.55411 2.59978 4.32536 2.83396C4.27955 2.88086 4.24458 2.94071 4.20919 2.99853C4.10925 3.16177 4.03402 3.32693 3.96014 3.50815C3.8551 3.76584 3.76881 4.03369 3.71644 4.31276C3.70188 4.39038 3.68367 4.53637 3.68172 4.62405C3.67934 4.73164 3.71155 4.66096 3.73046 4.60813C3.91596 4.09017 3.98635 3.46253 3.80157 2.93138C3.6588 2.52098 3.32377 2.1604 2.91657 2.22614C2.53623 2.28753 2.23938 2.69789 2.10701 3.08935C2.05359 3.24733 2.025 3.37838 2.04592 3.54697C2.07148 3.75302 2.19406 3.93581 2.34504 4.04262C2.50578 4.15633 2.69728 4.18217 2.86983 4.09036C3.06574 3.98612 3.19776 3.76142 3.28379 3.54037C3.35 3.37025 3.40857 3.1215 3.42801 2.9372C3.4527 2.70309 3.46164 2.38439 3.32418 2.18694C3.19624 2.00315 2.96722 2.02807 2.79972 2.11513C2.51043 2.26549 2.30036 2.56616 2.18747 2.90344C2.09798 3.17078 2.07551 3.39073 2.09165 3.67505C2.09842 3.79422 2.11353 3.91369 2.1414 4.02865C2.17491 4.1669 2.2738 4.40865 2.37709 4.50838C2.56362 4.6885 2.79549 4.57106 2.95963 4.42377C3.22576 4.18497 3.42065 3.83542 3.54485 3.47594C3.58519 3.35918 3.64598 3.11126 3.62764 2.96903C3.60085 2.76127 3.42316 2.70181 3.26943 2.72412C3.07075 2.75295 2.92862 2.83988 2.77135 2.98727C2.49995 3.24162 2.30418 3.60345 2.24489 4.00613C2.21827 4.18686 2.23227 4.46948 2.2963 4.64501C2.3218 4.71493 2.36212 4.77961 2.41147 4.82937C2.51925 4.93804 2.61792 4.93122 2.74664 4.87983C2.97131 4.79014 3.14726 4.56575 3.26242 4.33217C3.36725 4.11955 3.44022 3.85544 3.42667 3.6079C3.42094 3.5032 3.40623 3.40888 3.32685 3.3463C3.19229 3.2402 2.98571 3.3741 2.87183 3.44877C2.62975 3.60749 2.38764 3.81921 2.22152 4.08143C2.11291 4.25286 2.01571 4.50794 2.08398 4.72652C2.11982 4.8413 2.21213 4.91739 2.31499 4.9299C2.50452 4.95295 2.70381 4.82437 2.82409 4.6648C2.98144 4.45607 3.0417 4.16273 3.05277 3.89202C3.06508 3.59119 3.02975 3.24482 2.88686 2.98533C2.67696 2.60416 2.20913 2.55077 1.87566 2.71907C1.61334 2.85147 1.40418 3.10353 1.25706 3.3824C1.1528 3.58003 1.05009 3.84777 1.12186 4.08609C1.15767 4.20502 1.26394 4.32941 1.36022 4.38107C1.58082 4.49945 1.84605 4.45193 2.0576 4.33683C2.37495 4.16417 2.62392 3.84994 2.81775 3.51786C3.00325 3.20004 3.15201 2.83091 3.21135 2.45126C3.27633 2.03543 3.20483 1.48332 2.80707 1.32411C2.55526 1.22332 2.29591 1.32623 2.097 1.51158C1.84828 1.74333 1.67547 2.08416 1.56853 2.42874C1.52118 2.58132 1.48175 2.8036 1.4824 2.97058C1.4828 3.07188 1.49753 3.3068 1.63229 3.29934C1.67244 3.29711 1.7114 3.27843 1.74747 3.25781C1.83176 3.2096 2.00657 3.05935 2.07329 2.9962C2.22418 2.85339 2.37213 2.69342 2.47323 2.49783C2.57002 2.3106 2.63751 2.01218 2.4532 1.85896C2.3882 1.80492 2.2754 1.77263 2.19948 1.76425C2.01517 1.74391 1.82761 1.78688 1.65399 1.85547C1.51901 1.90879 1.42629 1.96134 1.30246 2.04022C1.20185 2.10431 1.08888 2.17822 1.00435 2.27116C0.958222 2.32187 0.93945 2.37857 0.950264 2.45164C0.960172 2.51861 0.993513 2.61365 1.04574 2.65231C1.08835 2.68385 1.14061 2.67271 1.18328 2.64921C1.32917 2.56886 1.45044 2.41175 1.54783 2.26767C1.63662 2.13631 1.7259 1.98176 1.76416 1.81782C1.78574 1.72534 1.77416 1.63173 1.75414 1.54108C1.73211 1.44131 1.70162 1.32949 1.64264 1.24958C1.59379 1.1834 1.52369 1.14824 1.46237 1.10132C1.39349 1.0486 1.3082 0.96515 1.27475 0.87542C1.24078 0.784255 1.19834 0.697198 1.15724 0.610322C1.13992 0.573697 1.10418 0.562301 1.06978 0.568015C0.996873 0.580124 0.973737 0.674965 0.956941 0.745006C0.940245 0.814627 0.925356 0.883577 0.904862 0.951883C0.899542 0.969615 0.898173 0.979209 0.880158 0.980605C0.81217 0.985875 0.734563 0.985862 0.669506 0.960034C0.648711 0.951778 0.628523 0.941098 0.607079 0.935193C0.597667 0.932601 0.578465 0.933161 0.571024 0.923549C0.567927 0.919547 0.570518 0.912032 0.569021 0.907247C0.564079 0.891445 0.546448 0.875074 0.536639 0.863C0.534085 0.859856 0.526783 0.850747 0.527959 0.854849C0.535835 0.882319 0.563066 0.896239 0.577701 0.919668C0.659021 1.04985 0.713434 1.20638 0.730599 1.36603C0.739452 1.44837 0.741986 1.53195 0.743952 1.61482C0.747686 1.77218 0.763822 1.92711 0.789354 2.08175C0.80789 2.19402 0.826849 2.30946 0.860795 2.4171C0.889797 2.50906 0.918501 2.59841 0.942252 2.69268C0.999142 2.91848 1.06408 3.14015 1.13387 3.36105C1.14988 3.41172 1.16546 3.46161 1.18862 3.50854C1.22377 3.57976 1.23731 3.65453 1.25472 3.73366" stroke="#F5FFCB" stroke-linecap="round"/>
</svg>
