<svg width="6" height="15" viewBox="0 0 6 15" fill="none" xmlns="http://www.w3.org/2000/svg">
<path d="M3.39549 6.35203C2.72174 7.29764 2.00904 8.21471 1.70368 9.4218C1.65418 9.61748 1.56189 9.84594 1.6391 10.0291C1.68194 10.1307 1.84774 10.0095 1.91892 9.93232C2.15293 9.67874 2.33765 9.3688 2.52591 9.06811C3.35972 7.73632 4.18287 6.30786 4.8161 4.83049C5.10845 4.14841 5.20553 3.50393 5.2925 2.76173C5.37417 2.06481 5.47181 1.36456 5.51922 0.662943C5.52578 0.565869 5.54998 0.446629 5.52353 0.35096C5.40669 -0.0716578 4.65765 0.86345 4.65251 0.869819C4.14299 1.50076 3.84949 2.19189 3.74275 3.05203C3.70854 3.32767 3.70891 3.60781 3.70257 3.8862C3.69743 4.11192 3.69528 4.33827 3.70831 4.56356C3.71448 4.67031 3.71096 4.78831 3.75997 4.87887C3.77953 4.91502 3.84118 4.88838 3.86903 4.86052C3.92813 4.80139 4.31241 4.18686 4.32247 4.16982C4.64087 3.63061 4.91752 3.04648 5.09735 2.42472C5.10768 2.38899 5.20789 2.08347 5.13466 2.02265C5.02333 1.9302 4.77883 2.39623 4.77592 2.40137C4.56941 2.76603 4.40719 3.1684 4.30238 3.58757C4.26953 3.71895 4.25741 3.79238 4.25216 3.91457C4.24937 3.97949 4.26032 3.93192 4.27655 3.88787C4.5426 3.16612 4.78272 2.43009 5.00551 1.68898C5.05165 1.53551 5.13871 1.32008 5.16049 1.1501C5.17005 1.07542 5.06599 1.25396 5.02273 1.31026C4.69052 1.74263 4.48619 2.22845 4.36121 2.79009C4.2673 3.21216 4.263 3.6732 4.14454 4.08641C4.11469 4.19052 4.19202 3.8729 4.23063 3.77276C4.23816 3.75323 4.24565 3.73367 4.25359 3.71436C4.25615 3.70816 4.2517 3.7281 4.24929 3.73438C4.14776 3.99824 4.03626 4.25109 3.95369 4.52518C3.78481 5.08575 3.68263 5.67492 3.61934 6.26361C3.6138 6.31512 3.60138 6.45779 3.63082 6.41877C3.80199 6.19189 3.92344 5.86881 4.03835 5.60461C4.20798 5.21461 4.36617 4.81578 4.49897 4.40673C4.5502 4.24893 4.66088 3.96925 4.6439 3.78277C4.63463 3.68101 4.49407 3.89711 4.44014 3.97796C4.14289 4.4236 3.87924 4.90961 3.67387 5.42109C3.43476 6.01659 3.29018 6.63631 3.1946 7.2813C3.17069 7.44261 3.07209 7.89084 3.11711 8.08712C3.11977 8.09874 3.13715 8.07708 3.14294 8.0671C3.19205 7.98237 3.3236 7.64853 3.33235 7.62665C3.61286 6.92563 3.86854 6.21181 4.09431 5.48449C4.15609 5.28546 4.283 4.9758 4.30238 4.75041C4.31675 4.58334 4.11251 5.00395 4.02687 5.13914C3.40369 6.12282 2.99626 7.20142 2.64644 8.34738C2.56971 8.59875 2.50127 8.85523 2.41255 9.10148C2.34331 9.29364 2.3748 9.05237 2.37954 9.00138C2.49356 7.77518 2.71922 6.56513 2.95496 5.36437C2.98284 5.22233 2.951 5.27825 2.88178 5.35769C2.62372 5.65383 2.36964 5.95701 2.12555 6.26861C1.38078 7.21942 0.671069 8.31818 0.350514 9.56862C0.323072 9.67567 0.219694 10.004 0.260112 10.1309C0.263636 10.1419 0.283833 10.135 0.290246 10.1258C0.354348 10.0345 0.520878 9.65636 0.537058 9.61867C1.23601 7.99054 1.84926 6.3008 2.47999 4.63529C2.56974 4.39828 2.61338 4.26529 2.40107 4.49182C1.76414 5.17136 1.23781 6.02283 0.829789 6.90592C0.577721 7.45148 0.35957 8.05795 0.307465 8.68105C0.291321 8.87411 0.40202 8.63006 0.417957 8.60097C0.738129 8.01668 1.03882 7.41566 1.31337 6.80082C1.51065 6.35902 1.6952 5.90817 1.85148 5.44445C1.89692 5.30959 1.95283 5.15265 1.96914 5.00567C1.97281 4.97263 1.91479 5.03424 1.8974 5.06072C1.69103 5.37497 1.52064 5.72285 1.37077 6.07675C0.976288 7.00828 0.704706 8.02953 0.984764 9.05477C1.061 9.33383 1.19842 9.78631 1.44682 9.93566C1.93043 10.2264 2.57949 9.33429 2.83873 9.02473C3.40363 8.3502 3.90116 7.59968 4.41431 6.87256C4.46641 6.79873 4.32279 7.03138 4.28229 7.11447C3.90729 7.88388 3.62464 8.70699 3.39405 9.5486C3.22648 10.1602 3.08398 10.7871 2.99083 11.4205C2.98027 11.4923 2.97319 11.5648 2.96787 11.6374C2.95998 11.7452 2.95715 11.7777 3.02097 11.6641C3.27245 11.2163 3.47912 10.7237 3.70544 10.2593C4.06763 9.51609 4.44251 8.78051 4.76731 8.01371C4.83214 7.86064 5.0551 7.4237 4.95959 7.55325C4.62045 8.01327 4.35893 8.54371 4.1388 9.09147C3.79611 9.94418 3.56789 10.826 3.45863 11.7575C3.44899 11.8397 3.41785 12.0809 3.44858 12.0061C3.64976 11.516 3.79431 10.9865 3.97952 10.4879C4.1964 9.90401 4.43208 9.33211 4.6726 8.76113C4.71146 8.66888 4.7508 8.5769 4.78883 8.48419C4.81682 8.41596 4.88388 8.34516 4.86201 8.27398C4.85905 8.26432 4.84291 8.27401 4.83619 8.28065C4.76809 8.34795 4.63388 8.54396 4.59798 8.60097C4.28554 9.09728 4.03781 9.64359 3.87476 10.2293C3.80561 10.4777 3.72574 10.7789 3.71835 11.0451C3.7155 11.1481 3.86085 10.9174 3.91207 10.8332C4.3261 10.1533 4.69618 9.41551 4.93663 8.62767C4.9383 8.62221 4.99391 8.44897 4.92515 8.57094C4.77175 8.84304 4.65615 9.15399 4.55206 9.4535C4.36598 9.98898 4.21692 10.5397 4.08714 11.0968C4.05224 11.2466 3.9308 11.6155 3.96517 11.7975C3.98274 11.8906 4.1213 11.7216 4.17611 11.6507C4.40137 11.3596 4.59503 11.0318 4.78309 10.7081C4.95622 10.4101 5.11787 10.1042 5.28102 9.79885C5.30519 9.75362 5.40841 9.52287 5.32407 9.72544C4.95547 10.6107 4.67868 11.5915 4.43727 12.5316C4.33828 12.9171 4.27131 13.3062 4.22633 13.7045C4.22215 13.7415 4.19292 14.5692 4.2005 14.5637C4.2857 14.5018 4.29776 13.729 4.29951 13.7028C4.35597 12.8556 4.3905 12.0047 4.40426 11.1552C4.40716 10.9765 4.60011 8.26763 3.85181 9.03475C3.43637 9.46062 3.27709 10.2538 3.12859 10.8432C3.01884 11.2788 2.95639 11.6903 2.95639 12.1429C2.95639 12.2126 2.98147 12.0065 2.99083 11.9377C3.06078 11.4231 3.13158 10.9086 3.1946 10.3928C3.24121 10.0112 3.30489 9.6096 3.30652 9.2216C3.30727 9.04332 3.22293 9.07327 3.11998 9.14819C2.64162 9.49632 2.29523 10.355 2.64501 10.965C2.68551 11.0357 2.71281 11.0098 2.66366 11.1085C2.59358 11.2492 2.51077 11.4047 2.41398 11.5173" stroke="#F5FFCB" stroke-linecap="round"/>
</svg>
