<svg width="4" height="4" viewBox="0 0 4 4" fill="none" xmlns="http://www.w3.org/2000/svg">
<path d="M2.20385 2.14005C2.26033 2.22482 2.28702 2.34484 2.30558 2.44904C2.33778 2.62969 2.34097 2.815 2.30819 2.99658C2.27488 3.18111 2.21078 3.40486 2.07342 3.51404C1.98412 3.58503 1.91526 3.58122 1.81749 3.53351C1.6207 3.43748 1.4556 3.20508 1.3349 3.00225C1.17224 2.72892 1.06438 2.42311 1.00477 2.09404C0.958009 1.83596 0.928838 1.53738 0.992303 1.27785C1.06547 0.978621 1.32546 0.75599 1.58358 0.832595C1.76078 0.885182 1.90467 1.06522 1.994 1.25166C2.09745 1.46755 2.12833 1.71504 2.11458 1.96096C2.10296 2.16863 2.06396 2.42542 1.95111 2.59238C1.84995 2.74203 1.70821 2.73021 1.57547 2.66034C1.39987 2.56792 1.25259 2.3995 1.1407 2.21296C1.04905 2.06016 0.975297 1.87635 0.954623 1.68701C0.947685 1.62346 0.940094 1.53557 0.982158 1.48172C1.04467 1.4017 1.17155 1.50058 1.22302 1.54118C1.51961 1.77517 1.71304 2.16391 1.75285 2.59097C1.75822 2.64859 1.78519 3.14216 1.63576 2.97252C1.54187 2.86593 1.47289 2.70799 1.42127 2.56761C1.36129 2.40451 1.32014 2.22952 1.312 2.0505C1.30962 1.99813 1.30524 1.91932 1.33519 1.87105C1.37393 1.80861 1.47844 1.85271 1.52156 1.87176C1.81886 2.00309 2.07303 2.30407 2.25834 2.60867C2.28015 2.64452 2.3331 2.76147 2.31921 2.72016C2.2938 2.64461 2.26496 2.57102 2.24095 2.4947C2.17994 2.30076 2.13247 2.09067 2.18298 1.8845C2.21727 1.74456 2.29543 1.63131 2.38036 1.53233C2.46787 1.43036 2.5978 1.29476 2.72818 1.30369C2.86921 1.31335 2.97995 1.47806 3.01193 1.63533C3.03389 1.74329 3.02212 1.85798 2.99599 1.96273C2.97978 2.02769 2.9536 2.12434 2.88498 2.13155C2.84351 2.13592 2.77528 2.10277 2.74296 2.08059C2.64958 2.01651 2.57072 1.91752 2.5076 1.81336C2.39536 1.62814 2.35415 1.4137 2.37051 1.18618C2.37964 1.05917 2.4011 0.856522 2.53021 0.831887C2.67187 0.804859 2.7953 0.950734 2.84237 1.09876C2.91122 1.31525 2.87985 1.5557 2.85774 1.77903C2.83933 1.9649 2.8183 2.15011 2.80614 2.33684C2.7954 2.50186 2.7928 2.66711 2.78585 2.83236C2.7774 3.0336 2.75975 3.23432 2.71832 3.42981C2.70734 3.48162 2.69439 3.53366 2.67803 3.58342C2.66722 3.61632 2.66649 3.61035 2.6534 3.56997C2.54326 3.23039 2.45103 2.88317 2.33312 2.54708C2.30327 2.462 2.26899 2.37925 2.2395 2.29401C2.23484 2.28054 2.23503 2.27337 2.23515 2.28587C2.23688 2.4571 2.23487 2.62468 2.20269 2.79271C2.17846 2.91921 2.14394 3.04422 2.09748 3.16117C2.06726 3.23721 2.02773 3.29985 1.98994 3.36964" stroke="#F5FFCB" stroke-linecap="round"/>
</svg>
