<svg width="4" height="5" viewBox="0 0 4 5" fill="none" xmlns="http://www.w3.org/2000/svg">
<path d="M1.86125 2.63637C1.78542 2.68522 1.71664 2.7429 1.64968 2.80742C1.5205 2.93191 1.40434 3.06777 1.33746 3.25073C1.26688 3.44383 1.20042 3.86214 1.47303 3.88957C1.59566 3.9019 1.7049 3.81375 1.78628 3.71851C1.93944 3.53929 2.05886 3.30834 2.15396 3.08296C2.23468 2.89167 2.28773 2.69329 2.30083 2.48054C2.31186 2.30122 2.3001 2.11231 2.15601 2.00858C2.04307 1.92727 1.91637 1.94707 1.79655 2.00111C1.56472 2.10569 1.35415 2.28666 1.18623 2.49756C1.02333 2.70216 0.886912 2.95329 0.812134 3.21968C0.772828 3.35971 0.752872 3.52849 0.833445 3.65523C0.858557 3.69473 0.889163 3.73086 0.924594 3.75762C0.986485 3.80435 1.12526 3.85854 1.20087 3.84956C1.41456 3.82419 1.56441 3.54509 1.66945 3.36596C1.81957 3.10998 1.96626 2.82173 2.0302 2.51696C2.05549 2.39645 2.05921 2.24242 2.03739 2.12052C2.01914 2.01852 1.9542 1.82875 1.89771 1.74558C1.86663 1.69981 1.8278 1.65852 1.78294 1.63244C1.67023 1.56692 1.57479 1.59867 1.4643 1.65543C1.24783 1.76663 1.05407 1.97267 0.910729 2.18859C0.804854 2.34807 0.744227 2.5219 0.739471 2.72294C0.737841 2.79184 0.735757 2.96696 0.825999 2.98863C0.85682 2.99602 0.889378 2.98899 0.920229 2.98176C1.05193 2.95089 1.18313 2.88429 1.30254 2.81787C1.51474 2.69984 1.73455 2.55755 1.89309 2.34979C2.02175 2.18119 2.09802 1.96605 2.13291 1.74677C2.15532 1.60588 2.16222 1.48824 2.13932 1.34855C2.12509 1.2617 2.1065 1.20197 2.04561 1.14913C1.96912 1.08278 1.84731 1.07481 1.75701 1.09182C1.63112 1.11553 1.53298 1.19893 1.45095 1.30824C1.35314 1.43859 1.09996 1.8973 1.39806 1.94738C1.64806 1.98938 1.87759 1.75987 2.00812 1.539C2.07461 1.42649 2.14691 1.28296 2.15909 1.14346C2.16382 1.08931 2.1615 1.03872 2.11108 1.01599C2.04405 0.985778 1.97983 1.02608 1.92519 1.06883C1.8759 1.10739 1.8297 1.15213 1.78885 1.20227C1.70768 1.3019 1.59403 1.48812 1.55006 1.61781C1.48498 1.80977 1.51462 1.97582 1.63608 2.12231C1.74979 2.25948 1.90402 2.34105 2.07026 2.32591C2.21709 2.31253 2.36238 2.22069 2.46387 2.10022C2.55367 1.99363 2.61572 1.85228 2.63769 1.70498C2.65024 1.62087 2.64574 1.52234 2.55964 1.50169C2.33847 1.44863 2.12043 1.86187 2.31777 2.04052C2.42566 2.13818 2.57674 2.11226 2.68211 2.02798C2.8108 1.92506 2.89903 1.73322 2.89548 1.54975C2.89306 1.4245 2.80084 1.24632 2.67184 1.34496C2.54432 1.44248 2.67972 1.60736 2.76351 1.65244C3.00757 1.78377 3.19036 1.43115 3.2457 1.20764C3.27336 1.09592 3.25641 0.908329 3.1317 0.882552C3.01302 0.858021 3.13708 1.11767 3.17381 1.15212C3.19432 1.17136 3.21698 1.17285 3.24159 1.16943C3.24745 1.16862 3.26399 1.16082 3.25854 1.16346C3.25642 1.16449 3.25413 1.16531 3.25238 1.16704C3.21495 1.20409 3.15248 1.27783 3.12759 1.30795C2.9325 1.54406 2.74194 1.78749 2.57325 2.05007C2.42644 2.2786 2.25631 2.55206 2.23253 2.84832C2.21682 3.04395 2.3097 3.21688 2.44461 3.32118C2.46289 3.33531 2.52396 3.36132 2.50726 3.34476C2.47285 3.31064 2.36875 3.29389 2.33369 3.29073C2.18703 3.27751 2.05272 3.31111 1.94752 3.4391C1.87696 3.52494 1.84634 3.61389 1.82069 3.72568C1.80475 3.79511 1.79095 3.87806 1.81273 3.94957C1.84219 4.04635 1.93974 4.06893 2.01736 4.06749C2.12023 4.06558 2.21321 4.0172 2.29364 3.94599C2.34077 3.90425 2.40962 3.83488 2.42972 3.76478" stroke="#F5FFCB" stroke-linecap="round"/>
</svg>
