<svg width="4" height="11" viewBox="0 0 4 11" fill="none" xmlns="http://www.w3.org/2000/svg">
<path d="M1.25056 0.58075C1.2274 1.5072 1.25045 2.41004 1.38384 3.33063C1.44067 3.72288 1.51404 4.11072 1.60156 4.49708C1.65065 4.71379 1.71791 4.93465 1.70976 5.15948C1.70018 5.42355 1.57802 5.67353 1.49731 5.92085C1.45564 6.04855 1.41361 6.17566 1.3614 6.29955C1.34184 6.34597 1.316 6.48386 1.29807 6.43678C1.26053 6.33823 1.24006 6.19272 1.21758 6.09766C1.1151 5.66445 1.0083 5.22851 0.953673 4.78606C0.862313 4.04605 1.10899 3.3668 1.31126 2.66559C1.36311 2.48586 1.42563 2.30225 1.45509 2.11667C1.45807 2.09791 1.46062 2.04431 1.44981 2.05993C1.42199 2.10012 1.42056 2.15335 1.41023 2.20112C1.19401 3.20112 1.10114 4.25445 1.11202 5.27692C1.1182 5.8584 1.26761 6.4295 1.16612 7.01077C1.11928 7.279 1.08611 7.53868 1.08431 7.81172C1.08392 7.86954 1.04304 7.99979 1.09882 7.98458C1.17266 7.96444 1.1978 7.86718 1.23869 7.80248C1.41288 7.52684 1.37467 7.56407 1.57121 7.2628C1.82432 6.87481 2.3815 6.01132 2.91844 6.51859C3.04425 6.63745 3.11204 6.80552 3.15991 6.96723C3.27184 7.34529 3.30752 7.74492 3.33673 8.13632C3.39217 8.87921 3.43015 9.6237 3.48319 10.3663" stroke="#F5FFCB" stroke-linecap="round"/>
</svg>
