<svg width="4" height="8" viewBox="0 0 4 8" fill="none" xmlns="http://www.w3.org/2000/svg">
<path d="M2.73108 2.41789C2.86195 2.9941 2.98806 3.43214 3.02054 4.03308C3.0335 4.27296 3.02451 4.5156 2.99759 4.75374C2.96526 5.03975 2.90067 5.42396 2.68144 5.60996C2.40571 5.84388 2.11802 5.36153 2.00135 5.13924C1.7316 4.62526 1.57899 4.0125 1.48661 3.41823C1.42289 3.00832 1.35774 2.49291 1.50394 2.09073C1.6144 1.78686 1.8594 1.57124 2.13109 1.55195C2.50318 1.52552 2.84758 1.79798 3.1011 2.10445C3.39362 2.45807 3.61688 2.91918 3.7142 3.40794C3.76753 3.67574 3.77503 3.87464 3.73669 4.14118C3.70955 4.32981 3.638 4.61381 3.42803 4.58216C3.16184 4.54203 2.91887 4.21251 2.7634 3.98389C2.488 3.57892 2.26394 3.10885 2.08191 2.63294C1.96123 2.31739 1.83836 1.95639 1.83274 1.60114C1.83009 1.4335 1.86737 1.22816 1.99761 1.13442C2.1364 1.03452 2.30468 1.12213 2.42196 1.22021C2.66399 1.42264 2.85151 1.73236 2.99431 2.0404C3.18964 2.46173 3.35988 3.02849 3.17464 3.49831C3.02622 3.87471 2.64658 4.05012 2.33296 3.87408C2.14278 3.76732 2.00748 3.56229 1.9133 3.33987C1.84536 3.17941 1.785 2.97405 1.78965 2.78966C1.79293 2.65949 1.85945 2.67793 1.92829 2.74962C2.10903 2.93785 2.24792 3.20698 2.36153 3.45655C2.57607 3.9278 2.74729 4.47451 2.74607 5.02142C2.74586 5.11813 2.74697 5.34103 2.67394 5.41664C2.59527 5.49809 2.45032 5.24502 2.42945 5.21245C2.01927 4.57243 1.77811 3.79791 1.61073 3.01958C1.55957 2.78169 1.51453 2.55623 1.43462 2.33095C1.4101 2.26182 1.38986 2.19097 1.38263 2.11589C1.37493 2.03596 1.34415 1.96499 1.31425 1.89398C1.2698 1.78844 1.20172 1.69475 1.14141 1.60228C1.07492 1.50031 1.04952 1.4054 1.03463 1.27741C1.01182 1.08142 0.999758 0.880889 0.984041 0.683723C0.980036 0.633491 0.971318 0.583766 0.969521 0.533299C0.967602 0.479411 0.956518 0.395992 0.971395 0.345126C0.980424 0.314254 1.0126 0.376274 1.01308 0.377156C1.05192 0.448296 1.07746 0.532739 1.10113 0.612228C1.21618 0.998579 1.30921 1.40228 1.35874 1.80933C1.3837 2.01444 1.4092 2.22874 1.40605 2.43676C1.4046 2.532 1.39317 2.61946 1.35593 2.70329C1.27285 2.89035 1.20753 3.08452 1.06601 3.21976C1.03129 3.25294 0.998609 3.29207 0.963432 3.32386C0.944196 3.34124 0.917703 3.336 0.899733 3.35246C0.881176 3.36945 0.893168 3.29419 0.893176 3.29183C0.893852 3.08358 0.899998 2.87547 0.901607 2.66726C0.901846 2.63626 0.917242 2.38437 0.896923 2.37728C0.867249 2.36692 0.846484 2.44164 0.83416 2.46421C0.778423 2.56631 0.831148 2.67557 0.864136 2.77593C0.947248 3.02877 1.02937 3.28246 1.11425 3.53434C1.17097 3.70266 1.21682 3.8686 1.23509 4.0491C1.24267 4.12396 1.26653 4.19584 1.27162 4.27044C1.27535 4.32503 1.27364 4.3822 1.27209 4.43688C1.26973 4.52043 1.23884 4.60225 1.23884 4.68282C1.23884 4.73766 1.18168 4.76156 1.17326 4.81551C1.16422 4.87352 1.19489 4.94107 1.21073 4.99225C1.26386 5.16381 1.29684 5.34232 1.31284 5.52474C1.32501 5.66346 1.32839 5.80919 1.30909 5.94741C1.29942 6.0167 1.27714 6.08094 1.26788 6.15045C1.24284 6.33827 1.2557 6.53573 1.2557 6.72584C1.2557 6.94394 1.2557 7.16205 1.2557 7.38015" stroke="#F5FFCB" stroke-linecap="round"/>
</svg>
