<svg width="6" height="7" viewBox="0 0 6 7" fill="none" xmlns="http://www.w3.org/2000/svg">
<path d="M1.98733 5.47286C2.37861 5.56778 2.76288 5.62202 3.15866 5.51304C3.63681 5.38137 4.06566 5.02219 4.27056 4.49105C4.45082 4.0238 4.37623 3.43555 4.16483 2.99985C4.08075 2.82656 3.9315 2.5986 3.7426 2.5708C3.56623 2.54485 3.43533 2.7403 3.3563 2.88897C3.1066 3.35876 3.09278 3.93449 3.17732 4.46373C3.24829 4.90805 3.40981 5.69553 3.91674 5.67533C4.25125 5.662 4.51559 5.39976 4.70108 5.10087C4.78198 4.97052 4.89736 4.78667 4.92568 4.62121C4.94592 4.50287 4.79086 4.61228 4.78194 4.6188C4.4971 4.82683 4.29891 5.21716 4.24707 5.59981C4.22255 5.78076 4.22044 6.02142 4.33206 6.16946C4.43113 6.30083 4.60167 6.311 4.73495 6.25382C5.07942 6.10602 5.21079 5.61843 5.29677 5.24951C5.29791 5.24459 5.40026 4.87433 5.35136 4.8301C5.33985 4.81969 5.32166 4.83494 5.30921 4.84376C5.24136 4.89182 5.16411 4.99323 5.1164 5.05507C4.93864 5.2855 4.72579 5.58463 4.70039 5.90833C4.68855 6.05932 4.78969 6.01782 4.85588 5.95333C5.00271 5.81026 5.10754 5.56369 5.13575 5.34592C5.16993 5.08213 5.13219 4.82604 5.04592 4.57943C4.91131 4.19463 4.66295 3.72778 4.33897 3.51968C4.11107 3.37328 3.79787 3.42283 3.57951 3.5719C3.32515 3.74556 3.25578 4.0651 3.23606 4.38258C3.21966 4.64668 3.23363 4.85996 3.28996 5.11533C3.33078 5.30037 3.41344 5.59003 3.62374 5.59499C3.83055 5.59986 4.04074 5.38895 4.16829 5.22862C4.38206 4.9599 4.54813 4.62134 4.66031 4.28054C4.70322 4.15021 4.76801 3.89893 4.75015 3.74384C4.72749 3.54712 4.56829 3.50777 4.42812 3.52691C4.16738 3.56251 3.91273 3.72859 3.70805 3.91096C3.44915 4.14164 3.2218 4.43757 3.10822 4.79797C3.02984 5.04666 3.01519 5.2399 3.02944 5.50179C3.03496 5.6033 3.06277 6.07547 3.23952 6.0867C3.41644 6.09794 3.63776 5.65737 3.7039 5.54276C3.91375 5.17914 4.0225 4.84155 4.0052 4.39463C3.99165 4.04473 3.88371 3.4053 3.81309 3.08501C3.67774 2.47122 3.49972 1.8268 3.18561 1.30055C3.05881 1.08811 2.83779 0.795841 2.57473 0.885166C2.31441 0.973558 2.14073 1.35342 2.03087 1.60345C1.92018 1.85536 1.8434 2.08378 1.78278 2.35628C1.7414 2.54232 1.69125 2.79713 1.78555 2.97896C1.90094 3.20145 2.18225 3.20101 2.34668 3.07698C2.56611 2.91145 3.21445 2.1756 2.75785 1.90233C2.55136 1.77875 2.33231 1.94638 2.22782 2.1498C2.09126 2.41566 2.06964 2.7653 2.05851 3.06493C2.04376 3.4622 2.04518 3.89207 2.11587 4.28376C2.12682 4.34446 2.13671 4.37995 2.18152 4.32634C2.29213 4.19401 2.38016 4.02281 2.46278 3.86757C2.54062 3.72129 2.62865 3.54192 2.69497 3.38711C2.74121 3.27917 2.82212 3.11577 2.82212 2.98619C2.82212 2.77261 2.48525 3.00414 2.44274 3.04082C2.21097 3.2408 2.1043 3.56603 2.01498 3.874C1.91738 4.21046 1.89093 4.56073 1.91754 4.91366C1.92057 4.95386 1.93099 5.39183 2.05229 5.28968C2.1597 5.19922 2.25464 5.05886 2.33631 4.94098C2.44588 4.78285 2.55161 4.61328 2.62586 4.42838C2.64028 4.39249 2.67375 4.29288 2.66733 4.24359C2.65083 4.11697 2.51211 3.97955 2.44481 3.90051C2.27427 3.70025 1.98976 3.28943 1.71368 3.45781C1.60521 3.52397 1.52949 3.64954 1.42344 3.71331C1.38394 3.73706 1.22763 3.52354 1.19954 3.49477C1.14819 3.4422 1.13735 3.42336 1.0786 3.44897C1.02513 3.47229 0.965117 3.50344 0.939704 3.56708C0.91772 3.62213 0.92168 3.61547 0.954216 3.66591C0.978858 3.70411 0.972155 3.74821 0.993606 3.78562C1.17138 4.09565 1.45717 4.38061 1.4884 4.77547C1.49931 4.91347 1.5003 5.05172 1.50222 5.19005C1.50513 5.40029 1.52724 5.68154 1.61555 5.86977C1.70789 6.06658 1.96289 6.10893 2.12969 6.16383C2.24073 6.20038 2.35413 6.22742 2.46761 6.25141C2.62336 6.28433 2.15112 6.27043 1.99286 6.26587C1.73626 6.25848 1.47279 6.22323 1.21612 6.24257C1.20268 6.24358 1.17029 6.24892 1.16637 6.26828C1.14833 6.35742 0.971517 6.42254 0.905151 6.44183" stroke="#F5FFCB" stroke-linecap="round"/>
</svg>
