<svg width="5" height="8" viewBox="0 0 5 8" fill="none" xmlns="http://www.w3.org/2000/svg">
<path d="M4.14671 0.655207C3.96408 0.627163 3.78624 0.593736 3.60079 0.589324C3.42146 0.585058 3.23548 0.593965 3.05762 0.624676C2.96962 0.639871 2.85536 0.663962 2.77982 0.729125C2.73779 0.765378 2.68561 0.776724 2.63332 0.782152C2.53758 0.792091 2.43994 0.803343 2.34377 0.805452C2.24629 0.807591 2.14842 0.775976 2.05353 0.754835C1.86928 0.713789 1.68456 0.674941 1.5 0.635924C1.23264 0.579409 0.927394 0.616514 0.684558 0.447114C0.656797 0.427748 0.600082 0.434662 0.569844 0.424617C0.551275 0.418449 0.534577 0.415933 0.524235 0.39489C0.492033 0.32937 0.567898 0.537218 0.584356 0.610214C0.654772 0.922531 0.728489 1.2074 0.905694 1.46348C1.04167 1.65998 1.20689 1.82922 1.35764 2.00982C1.63254 2.33917 1.90648 2.65829 2.2173 2.94263C2.40527 3.11458 2.59727 3.29038 2.80331 3.43273C2.937 3.52509 3.01189 3.52102 3.13225 3.40783C3.28527 3.26394 3.4463 3.12048 3.58489 2.95789C3.74877 2.76564 3.80946 2.50197 3.84818 2.24122C3.86965 2.09666 3.87804 1.94424 3.83851 1.80253C3.80023 1.66532 3.66651 1.64785 3.56001 1.62497C3.37041 1.58424 3.1517 1.54314 2.96433 1.61854C2.67077 1.73669 2.66279 2.16597 2.65267 2.46618C2.64884 2.57969 2.65086 2.83691 2.65681 2.95789C2.65784 2.97875 2.66792 3.16105 2.68998 3.20214C2.76756 3.34665 3.12996 2.83646 3.15921 2.79479C3.33917 2.53846 3.52008 2.24448 3.62428 1.9343C3.72563 1.6326 3.63881 1.39514 3.44599 1.17906C3.34255 1.06313 3.1963 0.908627 3.04656 0.88178C2.89316 0.854276 2.74151 0.979111 2.6423 1.10032C2.43096 1.35853 2.33064 1.68826 2.33064 2.03875C2.33064 2.08748 2.33548 2.19466 2.32304 2.06928C2.30317 1.86914 2.28394 1.66913 2.24218 1.47312C2.22233 1.37993 2.19888 1.33914 2.12401 1.29957C2.06473 1.26825 1.90442 1.17231 1.86763 1.2819C1.76674 1.5825 1.76809 1.8823 1.81028 2.19622C1.84437 2.44989 1.88677 2.70166 1.93467 2.95227C2.00099 3.29927 2.05903 3.67691 2.26015 3.95899C2.81332 4.73482 3.7558 4.29026 4.30289 3.73724C4.53537 3.50224 4.74324 3.20625 4.87646 2.88157C4.97403 2.64379 4.97398 2.43101 4.76313 2.28621C4.57538 2.15727 4.32206 2.08124 4.10802 2.16087C3.77137 2.28612 3.61154 2.70463 3.53583 3.07038C3.44377 3.51504 3.45525 3.97049 3.52339 4.41857C3.63042 5.12238 3.85686 5.77223 4.21305 6.35488C4.35612 6.5889 4.51833 6.83871 4.69955 7.03701C4.74047 7.08178 4.77897 6.94655 4.79354 6.91729" stroke="#F5FFCB" stroke-linecap="round"/>
</svg>
