<svg width="3" height="5" viewBox="0 0 3 5" fill="none" xmlns="http://www.w3.org/2000/svg">
<path d="M1.33255 3.37041C1.22025 3.15112 0.856905 2.45007 0.761952 2.22939C0.662407 1.99804 0.441691 1.47915 0.490356 1.16748C0.534766 0.88305 0.800164 0.820268 0.983713 0.844947C1.22326 0.877156 1.52279 1.08791 1.70382 1.26484C2.10231 1.65432 2.47737 2.25712 2.56096 2.88662C2.58735 3.08529 2.56134 3.31821 2.51611 3.51037C2.48253 3.65305 2.40723 3.94931 2.27317 4.01242C2.03348 4.12527 1.70578 3.60391 1.59294 3.43735C1.18829 2.84005 0.797454 2.1012 0.612449 1.35308C0.559799 1.14017 0.509672 0.818868 0.737035 0.732367C1.05225 0.612441 1.36912 0.862899 1.55058 1.15835C1.79868 1.56231 1.90772 2.0821 1.94302 2.57778C1.96479 2.88354 1.99426 3.40592 1.81968 3.6686C1.61978 3.96937 1.17752 3.00878 1.10082 2.84098C0.995301 2.61011 1.30044 2.6755 1.40481 2.71014C1.5637 2.76286 1.80331 2.87666 1.84834 3.09656" stroke="#F5FFCB" stroke-linecap="round"/>
</svg>
