<svg width="3" height="4" viewBox="0 0 3 4" fill="none" xmlns="http://www.w3.org/2000/svg">
<path d="M1.93374 0.938494C1.78984 1.0021 1.64851 1.08356 1.51844 1.17914C1.3062 1.33511 1.09275 1.5304 1.07778 1.84829C1.07074 1.99784 1.11542 2.23839 1.17526 2.36994C1.22785 2.48557 1.3398 2.63206 1.46637 2.64242C1.62269 2.65521 1.79429 2.50559 1.89101 2.39168C2.03009 2.22787 2.19145 1.9285 2.27292 1.7202C2.33535 1.56058 2.39378 1.33264 2.39043 1.15042C2.38895 1.07006 2.35149 0.872642 2.2816 0.815067C2.19262 0.741771 2.07594 0.835954 2.02187 0.904338C1.91307 1.04196 1.8144 1.29971 1.78218 1.47568C1.7641 1.5744 1.72815 1.86786 1.85228 1.95231C1.94683 2.01663 2.13408 1.88627 2.18745 1.82655C2.28855 1.71344 2.34987 1.52446 2.331 1.36156C2.31824 1.25135 2.28749 1.13908 2.23219 1.04834C2.07178 0.785144 1.88697 0.712537 1.61192 0.728512C1.47769 0.736308 1.1645 0.820242 1.07344 1.00215C1.05903 1.03094 1.10054 1.07842 1.12919 1.07822C1.20788 1.07768 1.28468 1.04001 1.35553 1.00021C1.49827 0.920027 1.64806 0.797654 1.70673 0.614788C1.75019 0.479316 1.69941 0.37687 1.63328 0.273616C1.51382 0.0870835 1.3054 -0.0342199 1.10382 0.0189978C0.858318 0.083809 0.669517 0.35697 0.553653 0.599263C0.433736 0.850033 0.40348 1.10859 0.498236 1.37748C0.559258 1.55064 0.662874 1.70197 0.832742 1.60182C0.929851 1.54457 1.06597 1.39822 1.05575 1.2556C1.0437 1.08757 0.796983 1.13652 0.715898 1.17526C0.445368 1.3045 0.315965 1.66173 0.251864 1.96861C0.222682 2.10832 0.221915 2.26567 0.174414 2.39944C0.166796 2.4209 0.129712 2.44556 0.131015 2.46465C0.134036 2.5089 0.156947 2.55388 0.170408 2.59429C0.190039 2.65321 0.202308 2.71443 0.220817 2.77361C0.234949 2.81879 0.25717 2.84639 0.285248 2.8819C0.308302 2.91105 0.331601 2.95393 0.356689 2.97893C0.395902 3.01801 0.399752 3.12509 0.410103 3.17805C0.42071 3.23231 0.44074 3.27637 0.455505 3.32787" stroke="#F5FFCB" stroke-linecap="round"/>
</svg>
