<svg width="4" height="8" viewBox="0 0 4 8" fill="none" xmlns="http://www.w3.org/2000/svg">
<path d="M3.12193 5.24782C3.07102 5.58323 2.97281 5.9047 2.94779 6.24651C2.93345 6.44236 2.96013 6.62989 2.98234 6.82258C2.99201 6.9065 3.01721 6.98716 3.03486 7.06924C3.04623 7.12215 3.0732 7.073 3.10327 7.08772C3.19079 7.13057 3.13326 7.41843 3.20209 7.13914C3.3602 6.49758 3.42966 5.82329 3.40181 5.15623C3.38879 4.8444 3.36276 4.60263 3.28778 4.30698C3.24083 4.12182 3.16235 3.86039 2.98372 3.78554C2.71806 3.67424 2.45618 4.01631 2.3293 4.23226C2.09574 4.62979 1.89082 5.20386 2.13511 5.65357C2.18686 5.74882 2.24131 5.84083 2.3445 5.86568C2.54551 5.91407 2.77334 5.71175 2.91047 5.57242C3.25732 5.21999 3.45218 4.70586 3.51583 4.18325C3.52992 4.06758 3.54851 3.9025 3.50892 3.78313C3.46169 3.64075 3.29222 3.62981 3.18413 3.64896C2.92246 3.69532 2.6979 3.88182 2.51243 4.09005C2.31952 4.30662 2.12678 4.59107 2.04528 4.89431C2.00127 5.05803 2.00486 5.23033 2.03837 5.39566C2.0721 5.5621 2.1631 5.92735 2.3293 5.99503C2.45009 6.04423 2.56419 5.90089 2.63059 5.82309C2.88315 5.52723 3.05659 5.13866 3.16616 4.74486C3.25067 4.44113 3.30763 4.04649 3.33339 3.73091C3.37149 3.26428 3.39512 2.74295 3.29538 2.28309C3.23253 1.99329 3.08181 1.67755 2.79852 1.62266C2.49851 1.56452 2.221 1.82082 2.03007 2.04929C1.67853 2.46996 1.4418 3.04628 1.43162 3.63771C1.42779 3.86067 1.44177 4.39841 1.74121 4.34635C1.89405 4.31978 2.01665 4.23182 2.14064 4.12701C2.41628 3.89403 2.6572 3.58682 2.82893 3.24402C2.88964 3.12283 3.05114 2.79965 2.90701 2.66232C2.77129 2.53299 2.48275 2.58476 2.34105 2.65268C2.14922 2.74463 1.98428 2.92059 1.87528 3.1235C1.71054 3.43016 1.57865 3.90389 1.71219 4.25878C1.91825 4.80638 2.39596 3.97561 2.49308 3.77108C2.56099 3.62805 2.63454 3.42382 2.68104 3.26812C2.71418 3.15719 2.77565 2.97677 2.76397 2.85113C2.74311 2.62684 2.30279 3.0936 2.29405 3.10342C1.92884 3.51376 1.75985 4.04009 1.72325 4.62435C1.71029 4.83118 1.69509 5.15265 1.79235 5.34504C1.8639 5.48656 1.99412 5.35064 2.04942 5.26871C2.16368 5.09943 2.26301 4.83344 2.32308 4.64202C2.43787 4.27621 2.57159 3.82541 2.5449 3.42721C2.51561 2.99008 1.95533 2.87748 1.66244 2.90577C1.23549 2.947 0.955368 3.33086 0.782039 3.75662C0.70987 3.93389 0.644966 4.17536 0.609276 4.36724C0.571368 4.57105 0.533919 4.82054 0.574724 5.02929C0.629024 5.30707 0.952277 5.05457 1.06122 4.97947C1.29717 4.81682 1.51728 4.62173 1.72187 4.40983C1.85512 4.27181 2.01911 4.10723 2.08398 3.90446C2.17709 3.61336 2.05969 3.23659 1.97548 2.96442C1.88096 2.65892 1.75857 2.23345 1.50764 2.04849C1.36813 1.94565 1.13573 1.89023 0.979679 1.97136C0.75485 2.08824 0.703867 2.43157 0.701186 2.68562C0.700906 2.71215 0.694746 3.04206 0.783421 2.97406C0.829231 2.93893 0.937559 2.80358 0.958947 2.77641C1.11442 2.57896 1.26193 2.37186 1.40191 2.15936C1.43547 2.10841 1.60724 1.91953 1.50488 1.85084C1.31272 1.72188 1.06816 1.76517 0.898135 1.92154C0.640655 2.15835 0.500474 2.54998 0.392287 2.89773C0.302731 3.1856 0.2028 3.50546 0.205704 3.81608C0.20623 3.87233 0.216501 4.23501 0.330093 4.18486C0.452806 4.13068 0.570725 3.95006 0.647975 3.84179C0.813778 3.60939 0.959537 3.35661 1.09163 3.09699C1.17701 2.92918 1.3497 2.64481 1.25057 2.43575C1.18332 2.29392 0.998401 2.30671 0.886387 2.34175C0.661749 2.412 0.512927 2.6255 0.403344 2.85194C0.273488 3.12026 0.15136 3.43246 0.104811 3.73734C0.0691795 3.97071 0.0548868 4.21303 0.0391609 4.44919C0.0328059 4.54463 0.000621742 4.75823 0.125542 4.61792C0.21181 4.52102 0.362217 4.31562 0.424075 4.22905C0.678653 3.87276 0.935938 3.50891 1.14968 3.11707C1.27897 2.88005 1.3527 2.66002 1.35837 2.3779C1.36363 2.11642 1.3306 1.84289 1.2789 1.58891C1.25703 1.48143 1.21358 1.21447 1.09163 1.17594C0.993695 1.145 0.858509 1.19821 0.775128 1.25066C0.569481 1.38003 0.360327 1.60636 0.307979 1.88137C0.298163 1.93294 0.313888 2.50931 0.443425 2.4245C0.476037 2.40315 0.513276 2.30601 0.522204 2.27988C0.572362 2.1331 0.60335 1.97109 0.614114 1.81388C0.637222 1.47636 0.565361 1.11575 0.502855 0.787874C0.462363 0.575477 0.385376 0.376386 0.385376 0.157166" stroke="#F5FFCB" stroke-linecap="round"/>
</svg>
