<svg width="1" height="3" viewBox="0 0 1 3" fill="none" xmlns="http://www.w3.org/2000/svg">
<path d="M0.463137 1.74642C0.476481 1.78345 0.488015 1.81603 0.496352 1.8564C0.538651 2.06119 0.567256 2.28918 0.539599 2.49966C0.53441 2.53915 0.519972 2.62217 0.474283 2.63005C0.440332 2.6359 0.408771 2.59175 0.391355 2.56417C0.295303 2.41206 0.251505 2.22896 0.209896 2.04695C0.200205 2.00456 0.182284 1.95284 0.181585 1.90758C0.181012 1.87052 0.218563 1.90524 0.227284 1.91302C0.343269 2.01652 0.432673 2.17913 0.476066 2.34531C0.49287 2.40966 0.517178 2.5353 0.47406 2.59548C0.427886 2.65992 0.30121 2.37537 0.288811 2.34258C0.219061 2.15816 0.195989 1.93611 0.201871 1.73444C0.202928 1.69819 0.208621 1.66236 0.209227 1.6261C0.209927 1.58424 0.200396 1.54119 0.1934 1.50061C0.175293 1.39558 0.154109 1.28713 0.125185 1.18565C0.11256 1.14135 0.0979884 1.10527 0.0979884 1.0577C0.0979884 1.02268 0.0979884 0.987651 0.0979884 0.952625C0.0979884 0.895871 0.102619 0.835738 0.0957592 0.779492C0.087943 0.715406 0.0779254 0.655348 0.0779254 0.590027" stroke="#F5FFCB" stroke-linecap="round"/>
</svg>
