<svg width="5" height="14" viewBox="0 0 5 14" fill="none" xmlns="http://www.w3.org/2000/svg">
<path d="M2.16821 5.62059C2.75317 6.48288 3.37195 7.31916 3.63707 8.4199C3.68005 8.59834 3.76018 8.80666 3.69314 8.97367C3.65595 9.06631 3.512 8.95578 3.45019 8.88543C3.24703 8.6542 3.08665 8.37156 2.9232 8.09737C2.19927 6.88292 1.48459 5.58031 0.934817 4.23311C0.680992 3.61112 0.596704 3.02342 0.521194 2.34662C0.45029 1.71109 0.365516 1.07254 0.32435 0.432742C0.318654 0.344221 0.297648 0.235487 0.320612 0.148247C0.422052 -0.237136 1.07238 0.615583 1.07684 0.621391C1.51922 1.19674 1.77404 1.82698 1.86672 2.61133C1.89641 2.86269 1.89609 3.11815 1.9016 3.37202C1.90606 3.57784 1.90793 3.78425 1.89662 3.98969C1.89126 4.08704 1.89432 4.19464 1.85176 4.27723C1.83478 4.31019 1.78125 4.28589 1.75708 4.26049C1.70576 4.20657 1.37213 3.64619 1.36339 3.63065C1.08695 3.13894 0.846755 2.60628 0.69063 2.0393C0.681657 2.00671 0.594654 1.72811 0.658238 1.67265C0.754893 1.58835 0.967174 2.01331 0.969701 2.018C1.149 2.35053 1.28984 2.71746 1.38083 3.09969C1.40935 3.2195 1.41988 3.28646 1.42444 3.39788C1.42686 3.45708 1.41735 3.4137 1.40326 3.37354C1.17227 2.71538 0.963797 2.0442 0.770365 1.36838C0.730307 1.22843 0.654717 1.03198 0.635812 0.87698C0.627507 0.808882 0.717853 0.971686 0.755414 1.02303C1.04385 1.4173 1.22125 1.86032 1.32975 2.37248C1.41129 2.75735 1.41502 3.17778 1.51788 3.55458C1.54379 3.64952 1.47665 3.35988 1.44313 3.26856C1.43659 3.25075 1.43009 3.23292 1.42319 3.21531C1.42098 3.20966 1.42483 3.22785 1.42693 3.23357C1.51508 3.47418 1.61188 3.70475 1.68357 3.9547C1.83019 4.46588 1.91891 5.00314 1.97386 5.53996C1.97867 5.58693 1.98945 5.71703 1.96389 5.68144C1.81528 5.47456 1.70984 5.17994 1.61007 4.93902C1.46279 4.58338 1.32545 4.21969 1.21015 3.84668C1.16567 3.70279 1.06957 3.44775 1.08432 3.27769C1.09236 3.1849 1.21441 3.38196 1.26123 3.45569C1.51931 3.86207 1.74821 4.30526 1.92652 4.77167C2.13412 5.3147 2.25964 5.87982 2.34263 6.46799C2.36339 6.61508 2.44899 7.02382 2.40991 7.20281C2.40759 7.21341 2.3925 7.19365 2.38748 7.18455C2.34484 7.10729 2.23063 6.80286 2.22303 6.78291C1.97949 6.14365 1.7575 5.49272 1.56148 4.82948C1.50784 4.64799 1.39766 4.36562 1.38083 4.16008C1.36836 4.00773 1.54568 4.39128 1.62004 4.51456C2.16109 5.41157 2.51483 6.39514 2.81855 7.44014C2.88517 7.66936 2.94459 7.90325 3.02162 8.1278C3.08173 8.30302 3.05439 8.08301 3.05028 8.03651C2.95128 6.91835 2.75536 5.81491 2.55069 4.71994C2.52648 4.59042 2.55412 4.64142 2.61423 4.71386C2.83828 4.9839 3.05887 5.26037 3.27079 5.54452C3.91742 6.41155 4.5336 7.41351 4.81191 8.55378C4.83574 8.65139 4.92549 8.95078 4.8904 9.06648C4.88734 9.07656 4.86981 9.07025 4.86424 9.06191C4.80858 8.97858 4.664 8.63379 4.64995 8.59942C4.04311 7.11473 3.51067 5.57387 2.96307 4.05511C2.88514 3.83898 2.84725 3.71771 3.03159 3.92427C3.58458 4.54394 4.04154 5.32039 4.3958 6.12568C4.61465 6.62317 4.80405 7.17621 4.84929 7.74441C4.8633 7.92046 4.76719 7.69791 4.75336 7.67139C4.47538 7.13858 4.21431 6.5905 3.97594 6.02984C3.80466 5.62696 3.64443 5.21583 3.50875 4.79297C3.46929 4.66999 3.42075 4.52688 3.40659 4.39285C3.40341 4.36272 3.45378 4.41891 3.46888 4.44305C3.64805 4.72961 3.79599 5.04684 3.92611 5.36956C4.2686 6.21902 4.5044 7.15029 4.26124 8.0852C4.19506 8.33968 4.07575 8.75229 3.86008 8.88848C3.4402 9.15362 2.87668 8.34009 2.6516 8.05781C2.16115 7.44271 1.72918 6.75831 1.28366 6.09525C1.23842 6.02793 1.36312 6.24009 1.39827 6.31585C1.72386 7.01747 1.96926 7.76806 2.16946 8.53552C2.31495 9.09326 2.43867 9.66491 2.51954 10.2425C2.52871 10.308 2.53486 10.3741 2.53948 10.4403C2.54633 10.5386 2.54878 10.5682 2.49338 10.4646C2.27503 10.0563 2.0956 9.60713 1.89911 9.18362C1.58465 8.50588 1.25917 7.83511 0.977176 7.13587C0.920886 6.99628 0.727312 6.59784 0.810232 6.71597C1.10468 7.13546 1.33174 7.61917 1.52286 8.11867C1.82038 8.89625 2.01853 9.70033 2.11339 10.5498C2.12176 10.6248 2.1488 10.8448 2.12212 10.7765C1.94745 10.3296 1.82195 9.84671 1.66115 9.39205C1.47285 8.85961 1.26822 8.33811 1.0594 7.81744C1.02566 7.73331 0.991508 7.64944 0.958488 7.56489C0.934188 7.50267 0.875964 7.43812 0.89495 7.3732C0.897525 7.36439 0.911541 7.37323 0.917375 7.37928C0.976499 7.44065 1.09302 7.61939 1.12419 7.67139C1.39546 8.12397 1.61054 8.62214 1.7521 9.15624C1.81214 9.38277 1.88148 9.65742 1.88789 9.90018C1.89038 9.99413 1.76418 9.78369 1.7197 9.70697C1.36024 9.08692 1.03893 8.41416 0.830166 7.69573C0.828718 7.69075 0.780432 7.53278 0.840132 7.644C0.973315 7.89213 1.07369 8.17568 1.16405 8.4488C1.32562 8.93711 1.45503 9.4393 1.56771 9.94735C1.59801 10.0839 1.70345 10.4203 1.67361 10.5863C1.65835 10.6712 1.53805 10.517 1.49047 10.4524C1.29489 10.1869 1.12675 9.88807 0.963472 9.59287C0.813157 9.32111 0.672815 9.04218 0.531161 8.76372C0.510179 8.72248 0.420557 8.51206 0.493785 8.69678C0.813809 9.50408 1.05413 10.3984 1.26372 11.2557C1.34966 11.6072 1.40781 11.9621 1.44686 12.3252C1.45049 12.359 1.47587 13.1138 1.46929 13.1087C1.39532 13.0523 1.38484 12.3476 1.38332 12.3237C1.3343 11.5512 1.30433 10.7752 1.29238 10.0006C1.28986 9.83759 1.12234 7.36742 1.77203 8.06694C2.13272 8.4553 2.27101 9.17862 2.39994 9.7161C2.49522 10.1133 2.54944 10.4886 2.54944 10.9012C2.54944 10.9648 2.52767 10.7769 2.51954 10.7141C2.45881 10.2449 2.39734 9.77569 2.34263 9.30533C2.30216 8.95739 2.24687 8.59115 2.24545 8.23733C2.24481 8.07476 2.31803 8.10207 2.40742 8.17039C2.82273 8.48785 3.12347 9.2709 2.81979 9.82716C2.78463 9.89157 2.76093 9.86799 2.8036 9.95799C2.86444 10.0863 2.93634 10.2281 3.02038 10.3307" stroke="#F5FFCB" stroke-linecap="round"/>
</svg>
