<svg width="3" height="5" viewBox="0 0 3 5" fill="none" xmlns="http://www.w3.org/2000/svg">
<path d="M1.5723 3.85061C1.70165 3.61013 2.12015 2.84135 2.22951 2.59934C2.34417 2.34564 2.59839 1.77662 2.54233 1.43483C2.49118 1.12292 2.1855 1.05408 1.97409 1.08114C1.69819 1.11646 1.35319 1.34758 1.14469 1.54161C0.685708 1.96871 0.253721 2.62975 0.157438 3.32007C0.12705 3.53795 0.157006 3.79336 0.209096 4.0041C0.247772 4.16056 0.33451 4.48544 0.488913 4.55465C0.764984 4.6784 1.14243 4.10667 1.2724 3.92402C1.73846 3.26901 2.18862 2.45877 2.40171 1.63837C2.46235 1.40489 2.52009 1.05254 2.25821 0.957681C1.89515 0.826169 1.53019 1.10083 1.32119 1.42482C1.03542 1.86781 0.90983 2.43783 0.869176 2.9814C0.844098 3.3167 0.810155 3.88955 1.01124 4.17761C1.24148 4.50744 1.75087 3.45404 1.83921 3.27002C1.96074 3.01684 1.60929 3.08856 1.48908 3.12654C1.30607 3.18436 1.03009 3.30915 0.978232 3.5503" stroke="#F5FFCB" stroke-linecap="round"/>
</svg>
